<?xml version="1.0" encoding="UTF-8"?>
<svg width="81px" height="54px" viewBox="0 0 81 54" version="1.1" xmlns="http://www.w3.org/2000/svg" xmlns:xlink="http://www.w3.org/1999/xlink">
    <!-- Generator: Sketch 59 (86127) - https://sketch.com -->
    <title>Fill 1</title>
    <desc>Created with Sketch.</desc>
    <g id="Symbols" stroke="none" stroke-width="1" fill="none" fill-rule="evenodd">
        <g id="Call-to-action-Amarillo" transform="translate(0.000000, -28.000000)" fill="#FFFFFF">
            <g id="Call-to-action">
                <path d="M31,77 C34.7801745,74.5021832 38.3508568,72.1427864 42,69.7314625 C39.5241396,68.1339233 37.1357387,66.592847 34.6669824,65 C33.4493384,68.9844636 32.261058,72.8732062 31,77 M28.8153676,74 C28.8728424,73.9913522 28.9303172,73.9827044 28.9879521,73.9738965 C30.1657854,70.1605392 31.3261681,66.341737 32.5429049,62.5408709 C32.7007605,62.0477865 33.0606584,61.5285985 33.4753095,61.2219221 C42.1344733,54.8175893 50.8154102,48.4424028 59.491224,42.0606505 C61.3288168,40.708872 63.1638481,39.3535703 65,38 C64.679646,37.9979484 64.4180476,38.1034835 64.1681362,38.231599 C51.6530375,44.6442593 39.1422613,51.0649267 26.6156355,57.4546864 C25.9970209,57.7701707 25.9339427,58.1019898 26.0442495,58.6958051 C26.7393905,62.4407807 27.4050736,66.1912013 28.081163,69.9397001 C28.3251507,71.2934003 28.5705794,72.6466201 28.8153676,74 M6,45.1549349 C6.45158767,45.3989279 6.68989501,45.5307185 6.93087818,45.6574946 C12.7423346,48.7134399 18.5570965,51.7631169 24.3597384,54.8358299 C24.8166778,55.0777857 25.1502136,55.0370418 25.5879499,54.8132641 C39.8906397,47.5049147 54.1999405,40.2094153 68.5081394,32.9115652 C69.0067904,32.6570729 69.5027656,32.3970958 70,32.1397827 C69.9814265,32.0932407 69.9630104,32.046542 69.9445943,32 C48.7108443,36.3683673 27.4770943,40.736578 6,45.1549349 M36,62.5503222 C44.082553,67.7160371 52.0963768,72.8379001 60.1730159,78 C65.8046539,62.9684078 71.4022471,48.0273485 77,33.0864463 C76.9586026,33.0575261 76.9173651,33.028763 76.8761276,33 C63.276059,42.8317703 49.6758306,52.6636978 36,62.5503222 M79.5308528,28 C80.757427,28.011416 81.2822425,28.8961575 80.8511215,30.0699463 C79.5966921,33.484763 78.3343494,36.8965673 77.0784956,40.3109084 C72.174256,53.645136 67.2714409,66.9796807 62.3683092,80.3142255 C62.295506,80.5122617 62.2329903,80.714579 62.1500581,80.9081756 C61.6649677,82.0408984 60.8448248,82.3072722 59.8089631,81.6368982 C57.0202871,79.8315816 54.2411072,78.0118364 51.4570211,76.1993848 C49.2697622,74.7753949 47.0742734,73.3637724 44.8990429,71.9212315 C44.5307541,71.6770556 44.2895542,71.6856176 43.9258551,71.9299521 C39.1108785,75.1646495 34.2822909,78.3787346 29.4609836,81.6040771 C28.2467542,82.4163586 27.2848034,81.9291166 27.0629122,80.5071879 C26.6197628,77.6669775 26.0843433,74.8411956 25.5761459,72.0114498 C24.8115549,67.7532746 24.0252812,63.4990633 23.2841139,59.2369242 C23.1942178,58.7198737 22.9561833,58.4672943 22.5299685,58.2426207 C15.3989032,54.482945 8.27242758,50.7145487 1.15101655,46.9367977 C0.811532452,46.7566782 0.4424523,46.5308948 0.233064204,46.2258333 C-0.318340277,45.4217968 0.14997369,44.4306643 1.20308661,44.1990143 C3.67142883,43.6561191 6.1492671,43.1558755 8.62409829,42.6424717 C20.5604859,40.1661469 32.4963988,37.6880779 44.433736,35.2165097 C54.2309781,33.1881051 64.0299612,31.1682625 73.8279947,29.1436632 C75.5296884,28.7919863 77.2299577,28.4336502 78.931968,28.0834004 C79.1636718,28.0358336 79.4012316,28.0175997 79.5308528,28" id="Fill-1"></path>
            </g>
        </g>
    </g>
</svg>