<?xml version="1.0" encoding="UTF-8"?>
<svg width="1461px" height="583px" viewBox="0 0 1461 583" version="1.1" xmlns="http://www.w3.org/2000/svg" xmlns:xlink="http://www.w3.org/1999/xlink">
    <!-- Generator: Sketch 52.2 (67145) - http://www.bohemiancoding.com/sketch -->
    <title>Ciudad</title>
    <desc>Created with Sketch.</desc>
    <g id="CIUDAD" stroke="none" stroke-width="1" fill="none" fill-rule="evenodd">
        <path d="M0,580.136393 L0,526.6398 L6.47438114,526.6398 L6.47438114,523.821879 L3.23719057,523.821879 L3.23719057,521.139778 L6.47438114,521.139778 L6.47438114,518.979006 L3.23719057,518.979006 L3.23719057,514.904408 L6.47438114,514.904408 L6.47438114,509.776177 L13.7169929,509.776177 L13.7169929,514.904408 L17.2666632,514.904408 L17.2666632,393.52254 L32.5114717,393.52254 L32.5114717,389.054201 L36.3822673,389.054201 L36.3822673,384.773815 L41.1818562,384.773815 L41.1818562,389.054201 L45.4503532,389.054201 L45.4503532,393.52254 L49.5508769,393.52254 L49.5508769,448.034353 L69.2926755,448.034353 L69.2926755,469.77789 L73.7637285,469.77789 L73.7637285,384.773815 L78.3755826,384.773815 L78.3755826,379.566012 L98.3483444,379.566012 L98.3483444,384.773815 L101.147075,384.773815 L101.147075,370.508606 L108.882491,370.508606 L108.882491,359.955808 L116.433877,359.955808 L116.433877,337.703289 L122.719288,337.703289 L122.719288,325.480866 L125.131434,325.480866 L125.131434,337.703289 L131.131538,337.703289 L131.131538,357.299774 L137.592333,357.299774 L137.592333,370.508606 L145.890953,370.508606 L145.890953,428.654631 L148.666217,428.654631 L148.666217,422.135274 L152.876664,422.135274 L152.876664,402.027063 L156.638771,402.027063 L156.638771,395.326613 L172.037136,395.326613 L172.037136,399.467757 L180.761045,399.467757 L180.761045,402.027063 L193.041554,402.027063 L193.041554,359.955808 L221.687331,359.955808 L221.687331,350.841944 L225.681231,350.841944 L225.681231,357.299774 L232.573678,357.299774 L232.573678,340.906842 L236.3615,340.906842 L236.3615,357.299774 L260.284584,357.299774 L260.284584,469.77789 L266.746952,469.77789 L266.746952,428.654631 L272.797163,428.654631 L272.797163,395.326613 L277.010582,395.326613 L277.010582,375.245519 L284.937904,375.245519 L284.937904,395.326613 L289.603801,395.326613 L289.603801,452.80863 C294.218179,424.190418 296.525368,406.410127 296.525368,399.467757 C296.525368,392.525386 296.525368,356.896101 296.525368,292.5799 L304.34517,287.334923 L308.961788,217.012915 L313.486566,217.012915 L317.677585,287.334923 L326.559142,292.5799 C326.559142,355.830389 326.559142,391.161974 326.559142,398.574654 C326.559142,405.987334 328.081588,424.065326 331.12648,452.80863 L345.209292,452.80863 L345.209292,457.279154 L340.494115,457.279154 L340.494115,486.790859 C344.26327,484.161736 347.169282,484.161736 349.212152,486.790859 C351.255023,489.419983 351.255023,485.166439 349.212152,474.030227 L356.785842,474.030227 L356.785842,464.551168 L364.904616,464.551168 L364.904616,474.030227 L368.204377,474.030227 L368.204377,464.551168 L376.204597,464.551168 L376.204597,474.030227 L379.800745,474.030227 L379.800745,490.876849 C382.696059,493.600842 384.143717,493.600842 384.143717,490.876849 C384.143717,488.152856 384.143717,485.105349 384.143717,481.734327 L406.123446,481.734327 C405.437767,477.247851 406.501692,473.262372 409.315222,469.77789 C412.128752,466.293409 412.128752,462.127164 409.315222,457.279154 L413.860636,457.279154 L413.860636,452.80863 L424.671281,452.80863 L424.671281,457.279154 L429.434308,457.279154 L429.434308,469.77789 C433.267995,471.534445 434.687883,477.205435 433.693973,486.790859 C433.325778,490.341792 435.502568,489.548984 437.694712,487.599248 C438.20403,487.14625 437.358603,485.657942 438.066834,485.356467 C438.673136,485.09838 440.380286,485.067977 441.531177,485.356467 C441.930376,485.456533 441.588732,486.745214 442.080525,486.790859 C443.082404,486.883848 444.991721,486.883848 447.808477,486.790859 L447.808477,505.796889 L541.235962,505.796889 L541.235962,460.52245 L610.903595,434.565234 L610.903595,464.551168 L642.363722,464.551168 L642.363722,325.480866 C638.501703,316.298089 636.570694,307.644737 636.570694,299.520812 C636.570694,291.396886 638.032793,290.837845 640.956991,297.843689 L640.956991,304.467416 C642.839459,307.012042 643.780694,306.241304 643.780694,302.155202 C643.780694,296.026049 643.780694,287.177261 643.780694,283.952551 C643.780694,281.802745 645.962517,278.48703 650.326163,274.005409 L650.326163,269.932257 C651.385563,269.138418 651.385563,268.024312 650.326163,266.589941 C648.737062,264.438385 643.780694,263.11742 643.780694,259.993515 C643.780694,256.86961 645.976697,252.258832 647.497733,250.605 C649.01877,248.951168 651.214773,248.083825 647.497733,244.53675 C643.780694,240.989674 631.436567,227.817085 629.797364,224.401634 C628.15816,220.986184 624.831542,215.914433 632.189995,221.388354 C639.548449,226.862275 640.94675,230.142637 642.363722,230.142637 C643.780694,230.142637 647.497733,232.351947 647.497733,234.939275 C647.497733,237.526603 650.326163,237.566505 650.326163,234.939275 C650.326163,232.312045 651.528623,231.580158 653.17917,231.580158 C654.829717,231.580158 662.687305,223.157691 663.923798,221.388354 C665.16029,219.619016 670.871032,217.22311 665.574345,224.401634 C660.277658,231.580158 654.15097,236.898672 655.648374,239.143683 C657.145777,241.388694 660.679423,242.952221 662.30161,244.53675 C663.923798,246.121278 663.231816,250.517846 659.440095,247.527298 C655.648374,244.53675 653.258578,244.449595 655.648374,247.527298 C658.038169,250.605 659.601746,252.363837 660.951678,256.178676 C662.30161,259.993515 662.463262,263.823055 660.951678,263.823055 C659.440095,263.823055 655.648374,262.255327 655.648374,265.105168 C655.648374,267.955009 654.392975,271.355077 655.648374,274.005409 C656.903773,276.65574 660.951678,280.570179 660.951678,283.952551 C660.951678,287.334923 657.928511,304.467416 659.440095,304.467416 C660.951678,304.467416 662.30161,306.466715 662.30161,302.155202 C662.30161,297.843689 665.508172,292.811169 666.878901,299.520812 C668.24963,306.230454 665.545985,317.364155 663.923798,322.3141 C662.30161,327.264045 660.951678,322.075061 660.951678,329.889175 C660.951678,335.098584 660.951678,385.713635 660.951678,481.734327 C662.933091,482.381356 663.923798,484.066866 663.923798,486.790859 C663.923798,490.876849 666.878901,487.060158 666.878901,490.876849 C666.878901,494.69354 666.878901,501.58339 666.878901,501.58339 C666.878901,501.58339 671.038274,504.940166 671.038274,499.277295 C671.038274,495.502047 671.038274,491.339902 671.038274,486.790859 C674.040226,478.466569 675.541203,478.466569 675.541203,486.790859 C675.541203,495.11515 675.541203,500.045993 675.541203,501.58339 C676.053543,503.389833 676.830729,504.794332 677.872762,505.796889 C679.435812,507.300724 680.532291,514.604757 680.532291,501.58339 C680.532291,492.902479 680.532291,456.047114 680.532291,391.017296 L686.736093,391.017296 L686.736093,382.618522 L692.087666,382.618522 L692.087666,370.508606 L695.349123,370.508606 L695.349123,363.089417 L698.948599,363.089417 L698.948599,347.3183 C705.235537,335.290502 709.811945,327.488218 712.677825,323.91145 C721.843513,312.472187 728.82667,311.31805 729.199894,308.30041 C729.44871,306.288651 729.57694,304.556445 729.584584,303.103792 L738.798431,303.103792 L738.798431,289.871982 L741.305853,289.871982 L741.305853,286.492613 L743.701105,286.492613 L743.701105,283.952551 L751.984223,283.952551 L751.984223,286.492613 L754.212278,286.492613 L754.212278,289.871982 L756.126046,289.871982 L756.126046,303.103792 L761.099091,303.103792 L761.099091,308.30041 C769.064025,312.350899 774.698761,315.975786 778.003299,319.175071 C787.797699,328.657513 794.423967,340.977506 794.423967,344.549062 C794.423967,349.928133 794.423967,356.108251 794.423967,363.089417 L800.317101,363.089417 L800.317101,370.508606 L803.80989,370.508606 L803.80989,382.618522 L807.796876,382.618522 L807.796876,389.054201 L813.336287,389.054201 L813.336287,322.3141 L927.117267,322.3141 L927.117267,490.876849 C929.39091,492.453206 930.829752,492.453206 931.433793,490.876849 C932.946915,486.928079 932.918965,475.80336 932.918965,474.030227 C932.918965,471.195336 934.766182,470.643257 938.460618,472.373991 L938.460618,399.467757 L935.175305,399.467757 C938.410925,396.794897 940.028735,393.978077 940.028735,391.017296 C940.028735,389.558672 940.720683,390.663969 941.054227,390.324891 C941.283226,390.092092 941.62854,389.668529 942.09017,389.054201 L942.09017,344.549062 L940.028735,344.549062 L940.028735,337.703289 L944.568508,337.703289 L944.568508,319.175071 L949.212393,319.175071 C949.212393,321.286379 949.212393,322.865172 949.212393,323.91145 C949.212393,325.480866 955.290354,323.248896 955.290354,319.175071 C955.290354,316.459188 956.087555,315.308808 957.681955,315.72393 L957.681955,308.30041 C956.087555,309.042818 955.290354,307.765153 955.290354,304.467416 C955.290354,299.520812 955.252761,292.409041 960.065817,289.871982 C964.878872,287.334923 963.41052,286.492613 966.862475,286.492613 C969.163778,286.492613 969.163778,284.809061 966.862475,281.441957 L964.045184,281.441957 L964.045184,277.342317 L966.862475,277.342317 L966.862475,266.589941 L970.987793,266.589941 L970.987793,275.686741 L975.096526,275.686741 L975.096526,281.441957 L970.987793,280.106933 C969.924122,283.802513 969.924122,285.931072 970.987793,286.492613 C972.583299,287.334923 973.577312,287.334923 975.096526,287.334923 C976.61574,287.334923 981.615656,293.532175 981.615656,297.843689 C981.615656,302.155202 983.186838,300.876891 981.615656,308.30041 C980.568202,313.249423 981.229772,315.72393 983.600364,315.72393 C985.263318,315.932005 986.094794,317.082386 986.094794,319.175071 C986.094794,322.3141 989.077938,327.144299 989.077938,322.3141 C989.077938,319.093967 990.317782,318.047624 992.797469,319.175071 L992.797469,337.703289 L998.290522,337.703289 L998.290522,342.526334 L992.797469,342.526334 L992.797469,384.773815 C994.14051,384.026687 995.391779,384.553303 996.551276,386.353662 C998.290522,389.054201 998.290522,391.017296 998.290522,391.017296 C998.290522,391.017296 1000.03308,395.326613 1001.67724,395.326613 C1002.77335,395.326613 1003.39732,396.409293 1003.54917,398.574654 L998.290522,398.574654 L998.290522,460.52245 C1003.75851,465.664997 1008.32426,465.664997 1011.98777,460.52245 C1015.65128,455.379903 1016.50082,452.80863 1014.53638,452.80863 L1018.28245,451.082027 L1018.28245,457.279154 L1022.58136,457.279154 C1022.58136,451.115953 1022.58136,448.034353 1022.58136,448.034353 C1022.58136,448.034353 1020.60886,448.32478 1020.60886,444.092498 C1020.60886,441.270977 1021.26636,439.888055 1022.58136,439.943732 L1024.00217,431.396881 L1027.06556,431.396881 C1027.06556,433.793455 1027.06556,435.817073 1027.06556,437.467737 C1027.06556,439.943732 1029.2178,443.538593 1029.2178,437.467737 C1029.2178,433.4205 1030.18487,431.396881 1032.11902,431.396881 L1055.03346,407.641573 L1055.03346,402.027063 L1059.34911,399.467757 L1059.34911,370.508606 L1064.65252,366.376212 L1064.65252,357.299774 L1069.66989,357.299774 L1070.11029,366.376212 L1074.34189,370.508606 L1074.34189,398.574654 L1078.71924,402.027063 L1079.38445,407.641573 L1103.98425,431.396881 L1103.98425,439.943732 L1106.6003,439.943732 L1106.6003,428.654631 L1112.0789,431.396881 L1112.0789,439.943732 L1114.56692,439.943732 L1114.56692,448.034353 L1112.0789,448.034353 L1112.0789,457.279154 L1115.38425,457.279154 L1115.38425,451.082027 L1120.68784,452.80863 L1120.68784,457.279154 L1135.94634,457.279154 L1135.94634,402.027063 L1130.37291,402.027063 L1130.37291,395.326613 L1134.36742,395.326613 L1134.36742,389.054201 L1137.53632,386.353662 L1137.53632,344.549062 L1134.36742,339.225007 L1140.67758,339.225007 L1140.67758,319.175071 L1144.92452,319.175071 L1144.92452,325.480866 C1146.83883,327.592174 1148.25301,327.069035 1149.16704,323.91145 C1150.08108,320.753864 1151.28259,317.471195 1152.77158,314.063441 C1152.77158,310.03192 1152.77158,306.062507 1152.77158,302.155202 C1152.77158,296.294244 1159.14291,285.558558 1162.18914,285.558558 C1164.21996,285.558558 1164.62606,285.558558 1163.40744,285.558558 L1163.40744,281.441957 L1161.57854,281.441957 L1161.57854,278.601392 L1163.40744,278.601392 L1163.40744,270.832484 L1167.83367,270.832484 L1167.83367,278.601392 L1170.30743,278.601392 L1170.30743,281.441957 L1168.67692,281.441957 L1168.67692,286.492613 C1175.16554,290.439893 1178.40984,295.660757 1178.40984,302.155202 C1178.40984,308.649647 1178.93791,314.322937 1179.99405,319.175071 C1181.93888,324.040471 1183.46479,325.086814 1184.57179,322.3141 C1185.67879,319.541386 1185.98204,318.495043 1185.48153,319.175071 L1189.63568,319.175071 L1189.63568,339.225007 L1194.86782,339.225007 L1190.40211,346.100771 L1190.40211,388.196289 L1194.03931,390.324891 L1194.03931,395.326613 L1196.93909,395.326613 L1196.93909,402.027063 L1192.49079,402.027063 L1193.22965,472.373991 L1200.27364,472.373991 L1200.27364,475.165076 L1198.56506,475.165076 L1198.56506,486.790859 L1203.43895,486.790859 L1203.43895,108.711197 L1216.34169,108.711197 L1216.34169,75.0871558 L1225.61064,64.0125005 L1239.66919,64.0125005 L1239.66919,77.8463784 L1253.60025,77.8463784 L1253.60025,60.2088331 L1282.77664,120.426682 L1282.77664,366.376212 L1331.50024,342.526334 L1331.50024,434.565234 L1355.05351,434.565234 L1355.05351,389.054201 L1379.71949,389.054201 L1379.71949,197.932894 L1375.53838,195.440245 C1378.32579,191.911976 1379.71949,188.246796 1379.71949,184.444706 C1379.71949,180.642616 1379.71949,175.357748 1379.71949,168.590103 C1384.19516,166.040304 1386.433,163.017598 1386.433,159.521986 C1386.433,156.026375 1386.433,152.456655 1386.433,148.812829 L1389.76771,148.812829 L1389.76771,136.931768 L1397.91281,134.162158 C1397.91281,134.149598 1397.91281,133.10016 1397.91281,131.013847 C1397.91281,128.927533 1398.74111,121.493316 1400.39772,108.711197 L1413.43972,94.2816615 L1415.78046,0 L1418.77257,8.05100976e-15 L1418.77257,91.9849579 C1429.39974,100.075561 1434.71332,105.650974 1434.71332,108.711197 C1434.71332,113.301533 1432.46417,131.392548 1434.71332,134.162158 C1436.21275,136.008565 1439.47452,136.931768 1444.49863,136.931768 L1444.49863,148.812829 L1448.4711,153.052027 C1448.4711,157.365333 1448.4711,159.521986 1448.4711,159.521986 C1448.4711,159.521986 1453.0542,163.544515 1453.0542,166.067309 C1453.0542,168.590103 1453.0542,175.73645 1453.0542,180.090578 C1453.0542,182.99333 1454.81994,186.095795 1458.3514,189.397974 C1461.88287,193.426155 1461.88287,195.440245 1458.3514,195.440245 C1454.81994,195.440245 1453.0542,324.62683 1453.0542,583 L0,580.136393 Z M719.346957,450.75 L719,450.75 L719,531 L778,531 L778,450.75 L777.653043,450.75 C775.470019,435.599335 763.249029,424 748.5,424 C733.750971,424 721.529981,435.599335 719.346957,450.75 Z M848,358 L848,533 L895,533 L895,358 L848,358 Z M964,374 L964,390 L971,390 L971,374 L964,374 Z M1162,374 L1162,390 L1169,390 L1169,374 L1162,374 Z M964,356 L964,369 L971,369 L971,356 L964,356 Z M1162,356 L1162,369 L1169,369 L1169,356 L1162,356 Z M486,548.848248 L486.97649,548.848248 L486.97649,552 L512.279826,552 C512.279826,549.130991 512.279826,547.696487 512.279826,547.696487 C512.279826,547.696487 513.270343,547.696487 515.251377,547.696487 L515.251377,537.311691 C517.017866,534.786391 518.934073,533.164931 521,532.447312 C521,532.447312 504.408567,528.049889 495.500373,534.585189 C492.998316,536.420768 490.988289,538.3269 489.470292,540.303587 C488.080246,542.113659 486.923482,544.961879 486,548.848248 Z M476,549.015656 C475.086351,545.335716 473.941904,542.638781 472.56666,540.924853 C471.064826,539.05316 469.076202,537.248273 466.600787,535.510193 C457.787446,529.322022 450.794497,531.301226 450,531.301226 C450,541.5 450,547.925072 450,547.925072 C450,547.925072 450,549.283381 450,552 L475.033908,552 L475.033908,549.015656 L476,549.015656 Z M474,520 C474,529.393444 474,534.090166 474,534.090166 C474,534.090166 475.666667,535.393444 479,538 L479,520 L474,520 Z M532,520 C532,529.393444 532,534.090166 532,534.090166 C532,534.090166 533.666667,535.393444 537,538 L537,520 L532,520 Z M490,520 L485,520 L485,538 C488.333333,535.393444 490,534.090166 490,534.090166 C490,534.090166 490,529.393444 490,520 Z M469,520 C469,526.784154 469,530.176231 469,530.176231 C469,530.176231 469.666667,531.117487 471,533 L471,520 L469,520 Z M528,518 C528,524.784154 528,528.176231 528,528.176231 C528,528.176231 528.666667,529.117487 530,531 L530,518 L528,518 Z M495,518 L493,518 L493,531 C494.333333,529.117487 495,528.176231 495,528.176231 C495,528.176231 495,524.784154 495,518 Z M462,520 C462,524.174864 462,526.262296 462,526.262296 C462,526.262296 462.666667,526.841531 464,528 L464,520 L462,520 Z M523,520 C523,524.174864 523,526.262296 523,526.262296 C523,526.262296 523.666667,526.841531 525,528 L525,520 L523,520 Z M499,520 L497,520 L497,528 C498.333333,526.841531 499,526.262296 499,526.262296 C499,526.262296 499,524.174864 499,520 Z M457,520 C457,522.60929 457,523.913935 457,523.913935 C457,523.913935 457.666667,524.275957 459,525 L459,520 L457,520 Z M516,520 C516,522.60929 516,523.913935 516,523.913935 C516,523.913935 516.666667,524.275957 518,525 L518,520 L516,520 Z M506,520 L504,520 L504,525 C505.333333,524.275957 506,523.913935 506,523.913935 C506,523.913935 506,522.60929 506,520 Z M450,510 L450,515 L452,515 L452,510 L450,510 Z M495,510 L495,515 L497,515 L497,510 L495,510 Z M474,510 L474,515 L476,515 L476,510 L474,510 Z M516,510 L516,515 L518,515 L518,510 L516,510 Z M457,510 L457,515 L459,515 L459,510 L457,510 Z M500,510 L500,515 L502,515 L502,510 L500,510 Z M479,510 L479,515 L481,515 L481,510 L479,510 Z M521,510 L521,515 L523,515 L523,510 L521,510 Z M462,510 L462,515 L464,515 L464,510 L462,510 Z M504,510 L504,515 L506,515 L506,510 L504,510 Z M483,510 L483,515 L485,515 L485,510 L483,510 Z M526,510 L526,515 L528,515 L528,510 L526,510 Z M464,510 L464,515 L466,515 L466,510 L464,510 Z M507,510 L507,515 L509,515 L509,510 L507,510 Z M486,510 L486,515 L488,515 L488,510 L486,510 Z M528,510 L528,515 L530,515 L530,510 L528,510 Z M469,510 L469,515 L471,515 L471,510 L469,510 Z M512,510 L512,515 L514,515 L514,510 L512,510 Z M490,510 L490,515 L492,515 L492,510 L490,510 Z M533,510 L533,515 L535,515 L535,510 L533,510 Z M537,510 L537,515 L539,515 L539,510 L537,510 Z" id="Ciudad" fill="#2F0131"></path>
    </g>
</svg>