<svg width="248" height="58" viewBox="0 0 248 58" xmlns="http://www.w3.org/2000/svg"><g transform="translate(1 1)" fill="none" fill-rule="evenodd"><rect stroke="#FBB420" stroke-width="2" width="246" height="56" rx="11"/><path d="M37.56 41.63c1.703 0 3.36-.35 4.97-1.05 1.61-.7 2.94-1.785 3.99-3.255l-4.55-3.395a5.921 5.921 0 01-2.135 1.96c-.863.467-1.855.7-2.975.7-.98 0-1.896-.198-2.748-.595a6.742 6.742 0 01-2.222-1.662 7.959 7.959 0 01-1.488-2.52c-.361-.969-.542-2.036-.542-3.203 0-1.143.18-2.205.543-3.185.361-.98.863-1.826 1.505-2.538a6.825 6.825 0 012.274-1.662 6.827 6.827 0 012.853-.595c1.027 0 1.93.175 2.713.525.781.35 1.44.852 1.977 1.505l4.2-3.43a8.422 8.422 0 00-1.82-1.715 9.982 9.982 0 00-2.117-1.12 11.82 11.82 0 00-2.24-.612 13.113 13.113 0 00-2.188-.193c-1.937 0-3.722.303-5.355.91-1.633.607-3.045 1.476-4.235 2.608-1.19 1.131-2.117 2.502-2.782 4.112-.665 1.61-.998 3.407-.998 5.39 0 1.983.332 3.78.997 5.39.665 1.61 1.593 2.98 2.783 4.112 1.19 1.132 2.602 2.001 4.235 2.608 1.633.607 3.418.91 5.355.91zm25.069 0c1.937 0 3.722-.303 5.355-.91 1.633-.607 3.045-1.476 4.235-2.608C73.409 36.981 74.336 35.61 75 34c.665-1.61.998-3.407.998-5.39 0-1.983-.333-3.78-.998-5.39-.665-1.61-1.592-2.98-2.782-4.112-1.19-1.132-2.602-2.001-4.235-2.608-1.633-.607-3.418-.91-5.355-.91-1.937 0-3.722.303-5.355.91-1.633.607-3.045 1.476-4.235 2.608-1.19 1.131-2.118 2.502-2.783 4.112-.665 1.61-.997 3.407-.997 5.39 0 1.983.332 3.78.997 5.39.665 1.61 1.593 2.98 2.783 4.112 1.19 1.132 2.602 2.001 4.235 2.608 1.633.607 3.418.91 5.355.91zm0-5.04c-1.167 0-2.223-.198-3.168-.595a7.109 7.109 0 01-2.432-1.662 7.335 7.335 0 01-1.558-2.52c-.361-.969-.542-2.036-.542-3.203 0-1.143.18-2.205.542-3.185.362-.98.881-1.826 1.558-2.538a7.109 7.109 0 012.432-1.662c.945-.397 2.001-.595 3.168-.595 1.167 0 2.222.198 3.167.595.945.397 1.756.95 2.433 1.662a7.303 7.303 0 011.557 2.538c.362.98.543 2.042.543 3.185 0 1.167-.18 2.234-.543 3.203a7.335 7.335 0 01-1.557 2.52 7.109 7.109 0 01-2.433 1.662c-.945.397-2 .595-3.167.595zM86.263 41V23.36h.07L97.148 41h7.14V16.22h-5.46v17.22h-.07L88.223 16.22h-7.42V41h5.46zm34.414 0V21.05h7.07v-4.83h-19.6v4.83h7.07V41h5.46zm11.174 0l2.065-5.25h9.625l2.135 5.25h6.16l-10.78-24.78h-4.515L125.83 41h6.02zm9.835-9.87h-6.055l3.01-7.7 3.045 7.7zm25.769 10.5c1.703 0 3.36-.35 4.97-1.05 1.61-.7 2.94-1.785 3.99-3.255l-4.55-3.395a5.921 5.921 0 01-2.135 1.96c-.864.467-1.855.7-2.975.7-.98 0-1.896-.198-2.748-.595a6.742 6.742 0 01-2.222-1.662 7.959 7.959 0 01-1.488-2.52c-.362-.969-.542-2.036-.542-3.203 0-1.143.18-2.205.542-3.185.362-.98.863-1.826 1.505-2.538a6.825 6.825 0 012.275-1.662 6.827 6.827 0 012.853-.595c1.026 0 1.93.175 2.712.525.782.35 1.44.852 1.978 1.505l4.2-3.43a8.422 8.422 0 00-1.82-1.715 9.982 9.982 0 00-2.118-1.12 11.82 11.82 0 00-2.24-.612 13.113 13.113 0 00-2.187-.193c-1.937 0-3.722.303-5.355.91-1.634.607-3.045 1.476-4.235 2.608-1.19 1.131-2.118 2.502-2.783 4.112-.665 1.61-.997 3.407-.997 5.39 0 1.983.332 3.78.997 5.39.665 1.61 1.593 2.98 2.783 4.112 1.19 1.132 2.601 2.001 4.235 2.608 1.633.607 3.418.91 5.355.91zm23.283-.63V21.05h7.07v-4.83h-19.6v4.83h7.07V41h5.46zm22.97.63c1.936 0 3.721-.303 5.354-.91 1.634-.607 3.045-1.476 4.235-2.608 1.19-1.131 2.118-2.502 2.783-4.112.665-1.61.997-3.407.997-5.39 0-1.983-.332-3.78-.997-5.39-.665-1.61-1.593-2.98-2.783-4.112-1.19-1.132-2.601-2.001-4.235-2.608-1.633-.607-3.418-.91-5.355-.91-1.936 0-3.721.303-5.355.91-1.633.607-3.045 1.476-4.235 2.608-1.19 1.131-2.117 2.502-2.782 4.112-.665 1.61-.998 3.407-.998 5.39 0 1.983.333 3.78.998 5.39.665 1.61 1.592 2.98 2.782 4.112 1.19 1.132 2.602 2.001 4.235 2.608 1.634.607 3.419.91 5.355.91zm0-5.04c-1.167 0-2.223-.198-3.168-.595a7.109 7.109 0 01-2.433-1.662 7.335 7.335 0 01-1.557-2.52c-.362-.969-.543-2.036-.543-3.203 0-1.143.181-2.205.543-3.185.362-.98.88-1.826 1.557-2.538a7.109 7.109 0 012.433-1.662c.945-.397 2-.595 3.167-.595 1.167 0 2.223.198 3.168.595.945.397 1.756.95 2.432 1.662a7.303 7.303 0 011.558 2.538c.362.98.542 2.042.542 3.185 0 1.167-.18 2.234-.542 3.203a7.335 7.335 0 01-1.558 2.52 7.109 7.109 0 01-2.432 1.662c-.945.397-2.001.595-3.168.595z" fill="#FFF" fill-rule="nonzero"/><circle fill="#FFF" cx="213" cy="29" r="10"/></g></svg>