<svg width="1440px" height="1024px" viewBox="0 0 1440 1024" version="1.1" 
    xmlns="http://www.w3.org/2000/svg" 
    xmlns:xlink="http://www.w3.org/1999/xlink">
    <defs>
        <linearGradient x1="50%" y1="0%" x2="50%" y2="75.4328547%" id="linearGradient-1">
            <stop stop-color="#600364" offset="0%"></stop>
            <stop stop-color="#B15F43" offset="41.0261824%"></stop>
            <stop stop-color="#FCB425" offset="100%"></stop>
        </linearGradient>
        <polygon id="path-2" points="0 0 1441 0 1441 506 0 506"></polygon>
        <polygon id="path-4" points="0 0 1476 0 1476 490 0 490"></polygon>
    </defs>
    <g id="Home-" stroke="none" stroke-width="1" fill="none" fill-rule="evenodd">
        <g id="Selección-">
            <g id="Fondo" transform="translate(-72.000000, 0.000000)">
                <rect id="Rectangle" stroke="#979797" fill-opacity="0.85" fill="url(#linearGradient-1)" opacity="0.583217076" x="72.5" y="0.5" width="1439" height="1023"></rect>
                <g id="Popocatepetl" opacity="0.994721912" transform="translate(72.000000, 310.000000)">
                    <mask id="mask-3" fill="white">
                        <use xlink:href="#path-2"></use>
                    </mask>
                    <g id="Clip-2"></g>
                    <path d="M0,187.911024 C0,187.911024 3.06128721,193.172647 8.27904767,195.277296 C13.4984837,197.37958 13.4984837,196.329621 20.2075116,195.277296 C26.9182151,194.224972 29.1551163,192.444296 35.1185105,196.490425 C41.0835802,200.536554 46.7638012,200.699724 56.9697674,192.200725 C67.1757337,183.701726 70.1582686,176.337819 76.8689721,176.337819 C83.578,176.337819 83.578,178.442468 101.471534,176.337819 C119.363392,174.23317 116.380857,178.442468 130.546222,181.597077 C144.711587,184.75405 145.457221,185.988463 159.622586,187.475906 C173.786276,188.963349 178.260078,180.72684 185.71474,187.475906 C193.171077,194.224972 193.91671,197.824158 205.845174,199.181538 C217.773638,200.536554 222.245765,206.850502 228.210835,210.007475 C234.174229,213.162084 234.919863,224.737654 245.357059,221.580681 C255.795931,218.423707 263.996227,218.423707 272.942156,214.214409 C281.888085,210.007475 290.090056,202.641203 296.05345,203.693528 C302.01852,204.745852 302.764153,210.007475 312.455716,210.007475 C322.147279,210.007475 336.312644,214.214409 341.530405,206.850502 C346.749841,199.48423 356.441403,205.772164 366.132966,198.945061 C375.824529,192.120322 404.900893,187.911024 412.355555,183.701726 C419.811892,179.494792 447.395313,174.23317 454.85165,166.866898 C462.306312,159.50299 491.382676,144.772811 504.802407,134.249565 C518.222138,123.728685 547.296827,111.103155 551.770629,103.736883 C556.242756,96.3706106 588.301655,75.3288488 599.484485,62.700954 C610.667315,50.0754239 618.86761,39.554543 628.559173,34.2929202 C638.250736,29.0312974 648.689608,27.9813376 658.381171,22.7197147 C668.072734,17.4580919 680.001198,18.5104165 692.675295,11.1465093 C705.349393,3.78023729 709.075886,-6.74064362 725.478152,5.88488642 C741.880419,18.5104165 749.33508,12.1964691 757.535376,23.7720393 C765.737347,35.3452448 774.683276,42.7115167 783.629205,46.9184502 C792.575134,51.1277485 803.757964,64.8056031 817.923329,66.9102523 C832.088694,69.0149014 820.905864,71.1195505 834.325595,81.6404314 L847.745327,92.1636771 C847.745327,92.1636771 856.691256,96.3706106 864.145917,103.736883 C871.602255,111.103155 918.570477,152.136718 954.355869,164.762248 C990.14126,177.390143 1018.47032,190.015673 1028.90919,186.8587 C1028.90919,186.8587 1050.52921,199.48423 1060.96641,200.536554 C1071.40361,201.588879 1078.85827,207.902826 1090.0411,210.007475 C1101.22393,212.112124 1107.189,222.661383 1127.31776,222.119849 L1147.44819,221.580681 C1147.44819,221.580681 1169.06822,221.649259 1180.99668,222.141132 C1192.92515,222.633005 1221.99984,234.206211 1237.65647,234.206211 C1253.3131,234.206211 1257.78523,240.520158 1266.73283,234.206211 C1275.67876,227.894628 1273.44186,242.624807 1289.84413,244.729456 L1306.24472,246.831741 C1306.24472,246.831741 1332.33855,259.459636 1340.53884,254.198013 L1348.74081,248.93639 C1348.74081,248.93639 1353.21294,259.268089 1370.36084,259.890025 C1387.50706,260.51196 1387.50706,252.954142 1400.9268,259.890025 C1414.34653,266.823543 1427.76626,269.980517 1430.74879,268.928192 C1433.72965,267.875867 1441,269.126833 1441,269.126833 L1441,714 L0,714 L0,187.911024 Z" id="Fill-1" fill="#5F0263" mask="url(#mask-3)"></path>
                </g>
                <g id="Itztlacihuatl" opacity="0.994721912" transform="translate(0.000000, 534.000000)">
                    <path d="M36,165.804617 C36,165.804617 51.3280884,169.937901 67.9639814,165.804617 L84.6015907,161.671332 C84.6015907,161.671332 104.565349,159.605755 113.714833,155.472471 C122.866033,151.341318 140.334321,149.27361 151.148595,147.208033 C161.96287,145.140325 190.245433,143.074748 203.555177,137.909741 C216.864921,132.742602 238.491753,131.71088 248.473633,129.643172 C258.455512,127.577595 293.393805,122.412588 295.056879,119.311026 C296.72167,116.211595 298.384744,112.080442 305.038758,113.112164 C311.694488,114.146019 316.685428,112.080442 329.162777,106.913303 C341.640126,101.748296 343.304916,95.5494348 350.791326,96.5832889 C358.277735,97.6150114 360.773205,82.4013687 381.569358,87.9415477 L402.365512,93.4838583 C402.365512,93.4838583 433.97594,82.1178582 448.948758,79.0184276 C463.921577,75.918997 483.885335,53.1891285 499.690549,39.757552 C515.495763,26.3259754 538.787386,11.8626764 544.610721,8.76324573 L550.43234,5.66381511 C550.43234,5.66381511 563.742084,2.56438448 577.884223,5.66381511 C592.024647,8.76324573 613.653195,9.10857431 620.307209,4.28676409 C626.96294,-0.535046139 639.440288,-2.25742574 658.573367,4.28676409 C677.70473,10.8288223 701.828749,0 701.828749,0 L705.987293,0 C705.987293,0 744.251735,4.62996101 765.880284,29.4275377 C787.508833,54.2229826 815.791395,63.5212745 815.791395,63.5212745 C815.791395,63.5212745 825.773274,71.7857123 829.10114,68.6862817 C832.427288,65.586851 840.746093,52.0444282 873.1872,45.3851289 C905.630023,38.7258295 925.593781,45.3851289 925.593781,45.3851289 C925.593781,45.3851289 925.593781,46.9902673 943.06207,59.3879898 C960.532074,71.7857123 965.523014,87.5898241 978.832758,83.8210529 C992.140786,80.0522817 1012.93694,77.9845735 1024.58361,79.0184276 C1036.22856,80.0522817 1041.2195,81.0840042 1057.02472,77.9845735 C1072.82993,74.8851429 1087.80275,82.1178582 1094.45848,79.0184276 C1101.11249,75.918997 1113.58984,83.4330912 1121.90865,87.9415477 C1130.22745,92.4500042 1146.03267,110.296244 1174.31523,87.9415477 C1202.59779,65.586851 1239.19916,110.012734 1259.99531,122.412588 C1280.79147,134.81031 1290.77334,148.239755 1306.57856,155.472471 L1322.38377,162.705186 C1322.38377,162.705186 1334.86112,184.4012 1354.82488,173.037332 L1374.78864,161.671332 C1374.78864,161.671332 1399.74505,167.870193 1406.39907,164.770763 C1413.05308,161.671332 1421.37188,159.605755 1428.85829,160.63961 C1436.3447,161.671332 1449.65445,165.804617 1457.97325,167.870193 C1466.29206,169.937901 1472.11539,164.770763 1481.26487,166.838471 C1490.41607,168.904047 1497.07009,175.102909 1499.56556,172.003478 C1502.06103,168.904047 1512,167.870193 1512,167.870193 L1512,608 L774,608 L36,608 L36,165.804617 Z" id="Fill-1" fill="#48024B"></path>
                    <mask id="mask-5" fill="white">
                        <use xlink:href="#path-4"></use>
                    </mask>
                    <g id="Clip-2" opacity="0.454427083"></g>
                </g>
            </g>
        </g>
    </g>
</svg>