<svg width="1440px" height="714px" viewBox="0 0 1440 714" preserveAspectRatio="xMidYMin slice" version="1.1" 
    xmlns="http://www.w3.org/2000/svg" 
    xmlns:xlink="http://www.w3.org/1999/xlink">
    <g id="Home-" stroke="none" stroke-width="1" fill="none" fill-rule="evenodd" opacity="0.994721912">
        <g id="Selección-" transform="translate(0.000000, -310.000000)">
            <g id="Volcanos" transform="translate(0.000000, 310.000000)">
                <g id="Popocatepetl" fill="#5F0263">
                    <path d="M0,161.329773 C0,161.329773 3.06128721,165.847104 8.27904767,167.654037 C13.4984837,169.45894 13.4984837,168.557503 20.2075116,167.654037 C26.9182151,166.750571 29.1551163,165.221784 35.1185105,168.695561 C41.0835802,172.169339 46.7638012,172.309427 56.9697674,165.012667 C67.1757337,157.715907 70.1582686,151.393673 76.8689721,151.393673 C83.578,151.393673 83.578,153.200606 101.471534,151.393673 C119.363392,149.586741 116.380857,153.200606 130.546222,155.908975 C144.711587,158.619374 145.457221,159.67917 159.622586,160.956205 C173.786276,162.233239 178.260078,155.161839 185.71474,160.956205 C193.171077,166.750571 193.91671,169.840629 205.845174,171.005999 C217.773638,172.169339 222.245765,177.590137 228.210835,180.300535 C234.174229,183.008904 234.919863,192.947034 245.357059,190.236635 C255.795931,187.526236 263.996227,187.526236 272.942156,183.912371 C281.888085,180.300535 290.090056,173.976271 296.05345,174.879738 C302.01852,175.783204 302.764153,180.300535 312.455716,180.300535 C322.147279,180.300535 336.312644,183.912371 341.530405,177.590137 C346.749841,171.265872 356.441403,176.664337 366.132966,170.802973 C375.824529,164.943638 404.900893,161.329773 412.355555,157.715907 C419.811892,154.104072 447.395313,149.586741 454.85165,143.262476 C462.306312,136.940242 491.382676,124.293744 504.802407,115.259081 C518.222138,106.226448 547.296827,95.386882 551.770629,89.0626177 C556.242756,82.7383534 588.301655,64.6730873 599.484485,53.8314913 C610.667315,42.9919256 618.86761,33.9592926 628.559173,29.4419609 C638.250736,24.9246293 648.689608,24.0231932 658.381171,19.5058615 C668.072734,14.9885299 680.001198,15.8919962 692.675295,9.56976215 C705.349393,3.24549784 709.075886,-5.7871352 725.478152,5.0524305 C741.880419,15.8919962 749.33508,10.4711982 757.535376,20.4093279 C765.737347,30.3454272 774.683276,36.6696915 783.629205,40.2815266 C792.575134,43.8953919 803.757964,55.638424 817.923329,57.4453566 C832.088694,59.2522893 820.905864,61.059222 834.325595,70.091855 L847.745327,79.1265183 C847.745327,79.1265183 856.691256,82.7383534 864.145917,89.0626177 C871.602255,95.386882 918.570477,130.615978 954.355869,141.455544 C990.14126,152.29714 1018.47032,163.136705 1028.90919,160.426306 C1028.90919,160.426306 1050.52921,171.265872 1060.96641,172.169339 C1071.40361,173.072805 1078.85827,178.493603 1090.0411,180.300535 C1101.22393,182.107468 1107.189,191.164464 1127.31776,190.699534 L1147.44819,190.236635 C1147.44819,190.236635 1169.06822,190.295512 1180.99668,190.717807 C1192.92515,191.140101 1221.99984,201.076201 1237.65647,201.076201 C1253.3131,201.076201 1257.78523,206.496999 1266.73283,201.076201 C1275.67876,195.657433 1273.44186,208.303931 1289.84413,210.110864 L1306.24472,211.915766 C1306.24472,211.915766 1332.33855,222.757362 1340.53884,218.240031 L1348.74081,213.722699 C1348.74081,213.722699 1353.21294,222.592911 1370.36084,223.12687 C1387.50706,223.660829 1387.50706,217.172113 1400.9268,223.12687 C1414.34653,229.079596 1427.76626,231.789995 1430.74879,230.886529 C1433.72965,229.983063 1441,231.057071 1441,231.057071 L1441,613 L0,613 L0,161.329773 Z" id="Fill-1"></path>
                </g>
                <g id="Itztlacihuatl" transform="translate(0.000000, 205.000000)" fill="#48024B">
                    <path d="M0,138.806826 C0,138.806826 14.9542326,142.267092 31.1843721,138.806826 L47.416186,135.346559 C47.416186,135.346559 66.8930233,133.617318 75.8193488,130.157052 C84.7473488,126.69857 101.789581,124.967545 112.340093,123.238304 C122.890605,121.507278 150.483349,119.778038 163.468465,115.454043 C176.453581,111.128264 197.55293,110.264536 207.291349,108.533511 C217.029767,106.80427 251.115907,102.480275 252.738419,99.883737 C254.362605,97.2889834 255.985116,93.8305016 262.476837,94.6942298 C268.970233,95.5597425 273.839442,93.8305016 286.012465,89.5047226 C298.185488,85.1807281 299.809674,79.9912209 307.113488,80.8567337 C314.417302,81.7204618 316.851907,68.9840406 337.140837,73.6221181 L357.429767,78.2619801 C357.429767,78.2619801 388.269209,68.7466938 402.876837,66.1519402 C417.484465,63.5571866 436.961302,44.5283987 452.381023,33.2838716 C467.800744,22.0393445 490.524279,9.93108925 496.205581,7.33633565 L501.885209,4.74158205 C501.885209,4.74158205 514.870326,2.14682846 528.667535,4.74158205 C542.46307,7.33633565 563.564093,7.62543475 570.055814,3.5887548 C576.549209,-0.44792514 588.722233,-1.88985149 607.388651,3.5887548 C626.053395,9.06557653 649.589023,0 649.589023,0 L653.64614,0 C653.64614,0 690.977302,3.87606933 712.078326,24.6358827 C733.179349,45.3939115 760.772093,53.1781722 760.772093,53.1781722 C760.772093,53.1781722 770.510512,60.0969203 773.757209,57.5021667 C777.002233,54.9074131 785.11814,43.5700888 816.768,37.9951161 C848.419535,32.4201435 867.896372,37.9951161 867.896372,37.9951161 C867.896372,37.9951161 867.896372,39.3388915 884.938605,49.7179059 C901.982512,60.0969203 906.851721,73.3276653 919.836837,70.1725591 C932.820279,67.0174529 953.109209,65.2864275 964.471814,66.1519402 C975.832744,67.0174529 980.701953,67.8811811 996.121674,65.2864275 C1011.5414,62.6916739 1026.14902,68.7466938 1032.64242,66.1519402 C1039.13414,63.5571866 1051.30716,69.8477688 1059.42307,73.6221181 C1067.53898,77.3964673 1082.9587,92.336823 1110.55144,73.6221181 C1138.14419,54.9074131 1173.85284,92.0994762 1194.14177,102.480275 C1214.4307,112.85929 1224.16912,124.102032 1239.58884,130.157052 L1255.00856,136.212072 C1255.00856,136.212072 1267.18158,154.375347 1286.65842,144.861845 L1306.13526,135.346559 C1306.13526,135.346559 1330.48298,140.536066 1336.9747,137.941313 C1343.46642,135.346559 1351.58233,133.617318 1358.88614,134.482831 C1366.18995,135.346559 1379.17507,138.806826 1387.29098,140.536066 C1395.40688,142.267092 1401.08819,137.941313 1410.01451,139.672338 C1418.94251,141.401579 1425.43423,146.591086 1427.86884,143.996333 C1430.30344,141.401579 1440,140.536066 1440,140.536066 L1440,509 L720,509 L0,509 L0,138.806826 Z" id="Fill-1"></path>
                </g>
            </g>
        </g>
    </g>
</svg>