<?xml version="1.0" encoding="UTF-8"?>
<svg width="288px" height="35px" viewBox="0 0 288 35" version="1.1" xmlns="http://www.w3.org/2000/svg" xmlns:xlink="http://www.w3.org/1999/xlink">
    <!-- Generator: Sketch 59 (86127) - https://sketch.com -->
    <title>Home title</title>
    <desc>Created with Sketch.</desc>
    <g id="Home-" stroke="none" stroke-width="1" fill="none" fill-rule="evenodd">
        <g id="Selección-" transform="translate(-560.000000, -438.000000)">
            <g id="Group-125" transform="translate(560.000000, 438.000000)">
                <polygon id="Fill-1" fill="#FFFFFF" points="7.5816 8.4566 7.6026 31.5296 2.0166 31.5246 1.9956 8.4506"></polygon>
                <polygon id="Fill-2" fill="#919191" points="0.0207 34.1987 5.6067 34.2047 7.6027 31.5297 2.0167 31.5247"></polygon>
                <polygon id="Fill-3" fill="#919191" points="0 11.1254 0.021 34.1984 2.017 31.5244 1.996 8.4504"></polygon>
                <polygon id="Fill-4" fill="#919191" points="20.8223 19.9303 18.8263 22.6053 18.8163 11.1443 20.8123 8.4703"></polygon>
                <polygon id="Fill-5" fill="#919191" points="18.837 34.2176 24.413 34.2236 26.409 31.5486 20.833 31.5426"></polygon>
                <polygon id="Fill-6" fill="#919191" points="13.4406 22.5995 18.8366 34.2175 20.8336 31.5425 15.4366 19.9245"></polygon>
                <polygon id="Fill-7" fill="#FFFFFF" points="26.3882 8.4754 26.4092 31.5484 20.8332 31.5434 15.4372 19.9254 15.4472 31.5374 9.8612 31.5324 9.8402 8.4584 15.4262 8.4644 20.8222 19.9304 20.8122 8.4694"></polygon>
                <polygon id="Fill-8" fill="#919191" points="7.866 34.2068 13.451 34.2118 15.448 31.5388 9.861 31.5318"></polygon>
                <polygon id="Fill-9" fill="#919191" points="7.8444 11.1335 7.8664 34.2065 9.8614 31.5315 9.8404 8.4585"></polygon>
                <polygon id="Fill-10" fill="#919191" points="39.3948 14.071 37.3988 16.746 36.1208 15.83 38.1168 13.155"></polygon>
                <polygon id="Fill-11" fill="#919191" points="38.1167 13.1552 36.1207 15.8302 33.2997 15.8272 35.2957 13.1522"></polygon>
                <polygon id="Fill-12" fill="#919191" points="44.9839 17.7539 42.9879 20.4289 37.4019 19.6039 39.3979 16.9289"></polygon>
                <polygon id="Fill-13" fill="#919191" points="39.3974 16.929 37.4014 19.604 37.3994 16.746 39.3944 14.071"></polygon>
                <polygon id="Fill-14" fill="#665A71" points="35.2952 13.1524 33.2992 15.8274 32.0132 16.7404 34.0092 14.0654"></polygon>
                <polygon id="Fill-15" fill="#919191" points="39.4057 26.1126 37.4097 28.7876 37.4077 26.2916 39.4037 23.6166"></polygon>
                <polygon id="Fill-16" fill="#919191" points="28.4366 18.0612 26.4406 20.7362 26.4356 14.6962 28.4316 12.0212"></polygon>
                <polygon id="Fill-17" fill="#919191" points="39.4034 23.6167 37.4074 26.2917 26.4404 20.7357 28.4364 18.0617"></polygon>
                <polygon id="Fill-18" fill="#919191" points="39.4488 31.5617 37.4528 34.2367 42.9978 30.6987 44.9928 28.0237"></polygon>
                <polygon id="Fill-19" fill="#919191" points="32.0004 34.2311 37.4524 34.2361 39.4484 31.5621 33.9964 31.5561"></polygon>
                <polygon id="Fill-20" fill="#919191" points="28.4456 28.007 26.4496 30.682 26.4446 25.032 28.4406 22.358"></polygon>
                <polygon id="Fill-21" fill="#919191" points="26.4501 30.6815 32.0001 34.2315 33.9961 31.5565 28.4451 28.0065"></polygon>
                <polygon id="Fill-22" fill="#FFFFFF" points="39.3898 8.5266 44.9788 12.0376 44.9838 17.7536 39.3978 16.9286 39.3948 14.0706 38.1168 13.1556 35.2948 13.1526 34.0088 14.0656 34.0118 16.5906 44.9878 22.0506 44.9928 28.0236 39.4488 31.5616 33.9968 31.5566 28.4458 28.0066 28.4408 22.3576 34.0178 23.2876 34.0198 26.1076 35.3358 26.9276 38.0908 26.9306 39.4058 26.1126 39.4038 23.6166 28.4368 18.0616 28.4308 12.0216 33.9758 8.4826"></polygon>
                <polygon id="Fill-23" fill="#FFFFFF" points="71.5316 8.5206 71.5526 31.5936 65.9766 31.5886 65.9556 8.5146"></polygon>
                <polygon id="Fill-24" fill="#919191" points="63.9801 34.2635 69.5561 34.2685 71.5531 31.5945 65.9761 31.5885"></polygon>
                <polygon id="Fill-25" fill="#919191" points="63.9594 11.1893 63.9804 34.2633 65.9764 31.5883 65.9554 8.5153"></polygon>
                <polygon id="Fill-26" fill="#919191" points="58.4683 14.0901 56.4723 16.7651 55.1943 15.8491 57.1903 13.1741"></polygon>
                <polygon id="Fill-27" fill="#919191" points="58.4708 16.9481 56.4748 19.6231 56.4728 16.7651 58.4678 14.0901"></polygon>
                <polygon id="Fill-28" fill="#919191" points="57.1902 13.1743 55.1942 15.8493 51.0952 15.8453 53.0912 13.1703"></polygon>
                <polygon id="Fill-29" fill="#919191" points="64.0581 18.5541 62.0621 21.2291 56.4801 25.0621 58.4761 22.3881"></polygon>
                <polygon id="Fill-30" fill="#919191" points="58.4758 22.3878 56.4798 25.0628 51.1038 25.0568 53.0998 22.3828"></polygon>
                <polygon id="Fill-31" fill="#919191" points="45.5058 11.1713 45.5268 34.2443 47.5228 31.5693 47.5008 8.4963"></polygon>
                <polygon id="Fill-32" fill="#919191" points="45.5265 34.2446 51.1115 34.2496 53.1085 31.5756 47.5225 31.5696"></polygon>
                <path d="M58.4708,16.9481 L58.4678,14.0901 L57.1898,13.1741 L53.0918,13.1701 L53.0958,17.7621 L57.1658,17.7661 L58.4708,16.9481 L58.4708,16.9481 Z M58.4628,8.5071 L64.0518,12.0571 L64.0578,18.5541 L58.4758,22.3881 L53.0998,22.3821 L53.1078,31.5751 L47.5218,31.5701 L47.5018,8.4961 L58.4628,8.5071 Z" id="Fill-33" fill="#FFFFFF"></path>
                <polygon id="Fill-34" fill="#919191" points="118.5578 14.1503 116.5618 16.8253 115.2748 15.9093 117.2698 13.2343"></polygon>
                <polygon id="Fill-35" fill="#919191" points="117.2702 13.2345 115.2742 15.9095 112.4532 15.9065 114.4492 13.2315"></polygon>
                <polygon id="Fill-36" fill="#919191" points="124.1373 17.795 122.1413 20.47 116.5653 20.464 118.5613 17.789"></polygon>
                <polygon id="Fill-37" fill="#919191" points="118.5611 17.7895 116.5651 20.4645 116.5621 16.8245 118.5581 14.1505"></polygon>
                <polygon id="Fill-38" fill="#919191" points="114.4487 13.2316 112.4527 15.9066 111.1767 16.8196 113.1727 14.1446"></polygon>
                <polygon id="Fill-39" fill="#919191" points="118.5687 26.1919 116.5727 28.8669 116.5697 25.1229 118.5657 22.4479"></polygon>
                <polygon id="Fill-40" fill="#919191" points="118.602 31.6409 116.607 34.3159 122.151 30.8059 124.147 28.1319"></polygon>
                <polygon id="Fill-41" fill="#919191" points="111.1923 34.3103 116.6063 34.3153 118.6023 31.6413 113.1883 31.6353"></polygon>
                <polygon id="Fill-42" fill="#919191" points="107.5992 28.1148 105.6032 30.7898 105.5892 14.7748 107.5852 12.1008"></polygon>
                <polygon id="Fill-43" fill="#919191" points="105.6033 30.7895 111.1923 34.3105 113.1883 31.6355 107.5993 28.1145"></polygon>
                <polygon id="Fill-44" fill="#FFFFFF" points="118.5528 8.5677 124.1318 12.1167 124.1378 17.7947 118.5608 17.7897 118.5578 14.1507 117.2698 13.2347 114.4488 13.2317 113.1718 14.1447 113.1828 26.1867 114.4988 26.9787 117.2538 26.9817 118.5688 26.1917 118.5658 22.4477 124.1418 22.4537 124.1468 28.1317 118.6018 31.6407 113.1878 31.6357 107.5988 28.1147 107.5848 12.1007 113.1288 8.5627"></polygon>
                <polygon id="Fill-45" fill="#919191" points="99.387 22.4954 97.391 25.1704 96.865 22.9784 98.861 20.3034"></polygon>
                <polygon id="Fill-46" fill="#919191" points="85.0339 14.1167 83.0379 16.7917 81.7599 15.8757 83.7559 13.2007"></polygon>
                <polygon id="Fill-47" fill="#919191" points="85.0365 16.9747 83.0405 19.6497 83.0385 16.7917 85.0335 14.1167"></polygon>
                <polygon id="Fill-48" fill="#919191" points="83.7558 13.2009 81.7598 15.8759 77.6518 15.8719 79.6478 13.1969"></polygon>
                <polygon id="Fill-49" fill="#919191" points="100.4779 27.1264 98.4819 29.8014 95.2319 29.7974 97.2279 27.1234"></polygon>
                <polygon id="Fill-50" fill="#919191" points="99.5634 34.2986 105.1484 34.3036 107.1454 31.6296 101.5584 31.6236"></polygon>
                <polygon id="Fill-51" fill="#919191" points="98.4816 29.8013 99.5636 34.2983 101.5586 31.6233 100.4776 27.1263"></polygon>
                <polygon id="Fill-52" fill="#665A71" points="90.6236 18.5807 88.6276 21.2557 84.6176 23.9757 86.6136 21.3017"></polygon>
                <polygon id="Fill-53" fill="#919191" points="90.9125 30.2814 88.9165 32.9564 94.0615 11.2194 96.0575 8.5454"></polygon>
                <polygon id="Fill-54" fill="#919191" points="81.4669 22.4108 79.4709 25.0858 77.6599 25.0838 79.6559 22.4088"></polygon>
                <polygon id="Fill-55" fill="#919191" points="89.5545 34.2887 94.1865 34.2937 96.1825 31.6187 91.5505 31.6137"></polygon>
                <path d="M98.3385,22.4944 L99.3875,22.4954 L98.8605,20.3034 L98.3385,22.4944 L98.3385,22.4944 Z M101.6435,8.5504 L107.1445,31.6294 L101.5595,31.6244 L100.4775,27.1264 L97.2275,27.1234 L96.1825,31.6184 L91.5505,31.6144 L90.5975,31.6134 L90.9125,30.2814 L96.0575,8.5454 L101.6435,8.5504 Z" id="Fill-56" fill="#FFFFFF"></path>
                <polygon id="Fill-57" fill="#665A71" points="88.9164 32.9558 88.6014 34.2878 90.5974 31.6128 90.9124 30.2808"></polygon>
                <polygon id="Fill-58" fill="#665A71" points="88.6014 34.2878 89.5544 34.2888 91.5504 31.6138 90.5974 31.6128"></polygon>
                <polygon id="Fill-59" fill="#919191" points="83.9691 34.2833 88.6011 34.2883 90.5971 31.6133 85.9641 31.6083"></polygon>
                <polygon id="Fill-60" fill="#919191" points="79.4709 25.0853 83.9689 34.2833 85.9639 31.6083 81.4669 22.4103"></polygon>
                <path d="M85.0365,16.9747 L85.0335,14.1167 L83.7555,13.2007 L79.6475,13.1967 L79.6515,17.7887 L83.7215,17.7927 L85.0365,16.9747 L85.0365,16.9747 Z M86.6135,21.3017 L90.9125,30.2817 L90.5975,31.6127 L85.9645,31.6087 L81.4665,22.4107 L79.6555,22.4087 L79.6645,31.6017 L74.0875,31.5967 L74.0675,8.5227 L85.0285,8.5337 L90.6175,12.0837 L90.6235,18.5807 L86.6135,21.3017 Z" id="Fill-61" fill="#FFFFFF"></path>
                <polygon id="Fill-62" fill="#919191" points="72.0711 11.1974 72.0921 34.2714 74.0881 31.5964 74.0671 8.5234"></polygon>
                <polygon id="Fill-63" fill="#919191" points="72.0918 34.2716 77.6678 34.2766 79.6648 31.6026 74.0878 31.5966"></polygon>
                <polygon id="Fill-64" fill="#FFFFFF" points="132.0405 8.5812 132.0615 31.6542 126.4855 31.6492 126.4645 8.5752"></polygon>
                <polygon id="Fill-65" fill="#919191" points="124.4889 34.3238 130.0649 34.3288 132.0619 31.6548 126.4849 31.6488"></polygon>
                <polygon id="Fill-66" fill="#919191" points="124.4682 11.2505 124.4892 34.3235 126.4852 31.6485 126.4642 8.5755"></polygon>
                <polygon id="Fill-67" fill="#919191" points="147.3061 3.4807 145.3101 6.1557 140.1581 11.3037 142.1541 8.6297"></polygon>
                <polygon id="Fill-68" fill="#919191" points="141.9633 8.6292 139.9673 11.3042 136.5803 7.9182 138.5763 5.2442"></polygon>
                <polygon id="Fill-69" fill="#919191" points="145.6095 14.1773 143.6135 16.8523 142.3265 15.9363 144.3215 13.2613"></polygon>
                <polygon id="Fill-70" fill="#919191" points="144.3219 13.2615 142.3259 15.9365 139.5049 15.9335 141.5009 13.2585"></polygon>
                <polygon id="Fill-71" fill="#919191" points="141.5005 13.2587 139.5045 15.9337 138.2285 16.8467 140.2245 14.1717"></polygon>
                <polygon id="Fill-72" fill="#919191" points="145.6204 26.219 143.6244 28.894 143.6134 16.852 145.6094 14.177"></polygon>
                <polygon id="Fill-73" fill="#919191" points="145.6542 31.6679 143.6582 34.3429 149.2032 30.8049 151.1982 28.1299"></polygon>
                <polygon id="Fill-74" fill="#919191" points="138.2436 34.3373 143.6576 34.3423 145.6546 31.6683 140.2396 31.6623"></polygon>
                <polygon id="Fill-75" fill="#919191" points="134.6509 28.1419 132.6549 30.8169 132.6409 14.8019 134.6369 12.1279"></polygon>
                <polygon id="Fill-76" fill="#919191" points="132.6546 30.8165 138.2436 34.3375 140.2396 31.6625 134.6506 28.1415"></polygon>
                <path d="M143.8236,-0.0004 L138.5766,5.2436 L141.9636,8.6286 L140.2196,8.6276 L134.6366,12.1276 L134.6506,28.1416 L140.2396,31.6626 L145.6546,31.6676 L151.1986,28.1296 L151.1836,12.1446 L145.6046,8.6336 L142.1546,8.6296 L147.3056,3.4806 L143.8236,-0.0004 Z M141.5516,27.0056 L140.2356,26.2136 L140.2236,14.1716 L141.5006,13.2586 L144.3226,13.2616 L145.6096,14.1776 L145.6196,26.2196 L144.3056,27.0086 L141.5516,27.0056 Z" id="Fill-77" fill="#FFFFFF"></path>
                <polygon id="Fill-78" fill="#919191" points="164.593 20.0743 162.597 22.7493 162.587 11.2883 164.583 8.6143"></polygon>
                <polygon id="Fill-79" fill="#919191" points="162.6075 34.3616 168.1835 34.3666 170.1805 31.6936 164.6035 31.6866"></polygon>
                <polygon id="Fill-80" fill="#919191" points="157.212 22.7435 162.608 34.3615 164.604 31.6865 159.207 20.0685"></polygon>
                <polygon id="Fill-81" fill="#FFFFFF" points="170.1589 8.6194 170.1799 31.6924 164.6039 31.6874 159.2079 20.0694 159.2179 31.6814 153.6319 31.6764 153.6109 8.6024 159.1969 8.6084 164.5929 20.0744 164.5829 8.6134"></polygon>
                <polygon id="Fill-82" fill="#919191" points="151.6365 34.3508 157.2215 34.3558 159.2185 31.6818 153.6315 31.6758"></polygon>
                <polygon id="Fill-83" fill="#919191" points="151.6158 11.2775 151.6368 34.3505 153.6318 31.6755 153.6108 8.6025"></polygon>
                <polygon id="Fill-84" fill="#919191" points="196.5675 14.2284 194.5715 16.9034 193.2845 15.9874 195.2795 13.3124"></polygon>
                <polygon id="Fill-85" fill="#919191" points="195.2798 13.3125 193.2838 15.9875 189.1848 15.9835 191.1808 13.3085"></polygon>
                <polygon id="Fill-86" fill="#919191" points="196.5784 26.27 194.5824 28.945 194.5714 16.903 196.5674 14.228"></polygon>
                <polygon id="Fill-87" fill="#919191" points="196.6122 31.7192 194.6162 34.3942 200.1602 30.8552 202.1562 28.1812"></polygon>
                <path d="M196.5784,26.27 L196.5674,14.228 L195.2794,13.313 L191.1814,13.308 L191.1934,27.055 L195.2634,27.059 L196.5784,26.27 L196.5784,26.27 Z M196.5624,8.684 L202.1414,12.195 L202.1564,28.181 L196.6124,31.719 L185.6124,31.708 L185.5914,8.635 L196.5624,8.684 Z" id="Fill-88" fill="#FFFFFF"></path>
                <polygon id="Fill-89" fill="#919191" points="183.6162 34.3832 194.6162 34.3942 196.6122 31.7192 185.6122 31.7082"></polygon>
                <polygon id="Fill-90" fill="#919191" points="183.5955 11.309 183.6165 34.383 185.6125 31.708 185.5905 8.635"></polygon>
                <polygon id="Fill-91" fill="#FFFFFF" points="209.9167 8.6592 209.9377 31.7322 204.3617 31.7272 204.3407 8.6532"></polygon>
                <polygon id="Fill-92" fill="#919191" points="202.3659 34.4012 207.9419 34.4072 209.9379 31.7322 204.3609 31.7272"></polygon>
                <polygon id="Fill-93" fill="#919191" points="202.3443 11.3279 202.3663 34.4009 204.3613 31.7269 204.3403 8.6539"></polygon>
                <polygon id="Fill-94" fill="#919191" points="228.7379 14.2892 226.7419 16.9642 221.1659 16.9582 223.1619 14.2832"></polygon>
                <polygon id="Fill-95" fill="#919191" points="223.1617 14.2836 221.1657 16.9586 219.8787 16.0426 221.8737 13.3676"></polygon>
                <polygon id="Fill-96" fill="#919191" points="221.8741 13.3678 219.8781 16.0428 217.0571 16.0398 219.0531 13.3648"></polygon>
                <polygon id="Fill-97" fill="#919191" points="219.0526 13.3649 217.0566 16.0399 215.7806 16.9529 217.7766 14.2779"></polygon>
                <polygon id="Fill-98" fill="#919191" points="220.5104 23.3121 218.5144 25.9871 218.5104 21.3281 220.5064 18.6541"></polygon>
                <polygon id="Fill-99" fill="#919191" points="223.1699 23.3148 221.1739 25.9898 218.5149 25.9868 220.5109 23.3118"></polygon>
                <polygon id="Fill-100" fill="#919191" points="223.1726 26.3347 221.1766 29.0097 221.1736 25.9897 223.1696 23.3147"></polygon>
                <polygon id="Fill-101" fill="#919191" points="223.2063 31.7741 221.2103 34.4491 226.7553 30.9491 228.7503 28.2741"></polygon>
                <polygon id="Fill-102" fill="#919191" points="215.7579 34.4435 221.2099 34.4485 223.2059 31.7745 217.7539 31.7685"></polygon>
                <polygon id="Fill-103" fill="#919191" points="212.203 28.2576 210.207 30.9326 210.193 14.7846 212.188 12.1096"></polygon>
                <polygon id="Fill-104" fill="#919191" points="210.2076 30.9326 215.7576 34.4436 217.7546 31.7686 212.2026 28.2576"></polygon>
                <polygon id="Fill-105" fill="#FFFFFF" points="223.1567 8.7391 228.7357 12.2601 228.7377 14.2891 223.1617 14.2831 221.8737 13.3681 219.0527 13.3651 217.7757 14.2781 217.7867 26.3291 219.0937 27.1121 221.8577 27.1141 223.1727 26.3351 223.1697 23.3151 220.5107 23.3121 220.5067 18.6541 228.7137 18.6621 228.7167 22.2631 228.7507 28.2741 223.2057 31.7741 217.7537 31.7691 212.2027 28.2581 212.1887 12.1101 217.7707 8.7341"></polygon>
                <polygon id="Fill-106" fill="#FFFFFF" points="272.0574 31.7948 287.5564 31.8098 287.5514 27.1518 277.6394 27.1418 277.6224 8.7268 272.0364 8.7218"></polygon>
                <polygon id="Fill-107" fill="#919191" points="270.0612 34.4696 285.5612 34.4846 287.5562 31.8096 272.0572 31.7946"></polygon>
                <polygon id="Fill-108" fill="#919191" points="270.0405 11.3963 270.0615 34.4693 272.0575 31.7953 272.0365 8.7213"></polygon>
                <polygon id="Fill-109" fill="#919191" points="263.6134 22.6598 261.6174 25.3348 261.0914 23.1428 263.0874 20.4678"></polygon>
                <polygon id="Fill-110" fill="#919191" points="254.9404 13.3723 252.9444 16.0473 247.4544 16.0413 249.4504 13.3673"></polygon>
                <polygon id="Fill-111" fill="#919191" points="264.7042 27.2908 262.7082 29.9658 259.4582 29.9618 261.4542 27.2878"></polygon>
                <polygon id="Fill-112" fill="#919191" points="263.7891 34.4633 269.3751 34.4683 271.3711 31.7943 265.7851 31.7883"></polygon>
                <polygon id="Fill-113" fill="#919191" points="262.7082 29.9651 263.7892 34.4631 265.7852 31.7881 264.7042 27.2911"></polygon>
                <polygon id="Fill-114" fill="#919191" points="243.8738 13.3612 241.8778 16.0362 236.3968 16.0302 238.3928 13.3562"></polygon>
                <polygon id="Fill-115" fill="#919191" points="238.3929 13.3557 236.3969 16.0307 236.3929 11.4007 238.3889 8.7257"></polygon>
                <path d="M262.5648,22.6588 L263.6138,22.6598 L263.0868,20.4678 L262.5648,22.6588 L262.5648,22.6588 Z M265.8698,8.7148 L271.3708,31.7938 L265.7858,31.7888 L264.7038,27.2908 L261.4538,27.2878 L260.3998,31.7828 L254.8238,31.7778 L260.2838,8.7098 L265.8698,8.7148 Z" id="Fill-116" fill="#FFFFFF"></path>
                <polygon id="Fill-117" fill="#919191" points="252.828 34.4525 258.404 34.4575 260.4 31.7835 254.823 31.7775"></polygon>
                <polygon id="Fill-118" fill="#919191" points="258.2874 11.3846 252.8284 34.4526 254.8234 31.7776 260.2834 8.7096"></polygon>
                <polygon id="Fill-119" fill="#919191" points="241.8948 34.4408 247.4708 34.4468 249.4668 31.7718 243.8898 31.7668"></polygon>
                <polygon id="Fill-120" fill="#FFFFFF" points="254.9363 8.7424 254.9403 13.3724 249.4503 13.3664 249.4663 31.7724 243.8903 31.7664 243.8743 13.3614 238.3933 13.3554 238.3883 8.7254"></polygon>
                <polygon id="Fill-121" fill="#919191" points="241.8777 16.0358 241.8947 34.4408 243.8897 31.7668 243.8737 13.3608"></polygon>
                <polygon id="Fill-122" fill="#FFFFFF" points="236.4442 8.6857 236.4652 31.7587 230.8892 31.7537 230.8682 8.6797"></polygon>
                <polygon id="Fill-123" fill="#919191" points="228.8934 34.4282 234.4694 34.4332 236.4654 31.7592 230.8884 31.7532"></polygon>
                <polygon id="Fill-124" fill="#919191" points="228.8718 11.3549 228.8938 34.4279 230.8888 31.7529 230.8678 8.6799"></polygon>
            </g>
        </g>
    </g>
</svg>