<?xml version="1.0" encoding="UTF-8"?>
<svg width="32px" height="38px" viewBox="0 0 32 38" version="1.1" xmlns="http://www.w3.org/2000/svg" xmlns:xlink="http://www.w3.org/1999/xlink">
    <!-- Generator: Sketch 59 (86127) - https://sketch.com -->
    <title>icono-inicio</title>
    <desc>Created with Sketch.</desc>
    <g id="Tab-bar" stroke="none" stroke-width="1" fill="none" fill-rule="evenodd">
        <g id="Propuesta-Tab-Bar_2" transform="translate(-190.000000, -851.000000)" fill="#FFFFFF">
            <g id="icono-inicio" transform="translate(190.000000, 851.000000)">
                <text id="inicio" font-family="Avenir-Medium, Avenir" font-size="11" font-weight="400" letter-spacing="1.298">
                    <tspan x="0.17" y="37">inicio</tspan>
                </text>
                <g id="home-(1)-copy" transform="translate(2.000000, 0.000000)">
                    <path d="M29.6809364,9.70577876 L15.4604938,0.138345164 C15.1862755,-0.0461150547 14.8137372,-0.0461150547 14.5396361,0.138345164 L0.319076265,9.70577876 C-0.0282668477,9.93950374 -0.103735459,10.3876785 0.150619543,10.7068496 C0.404974544,11.0260207 0.892766617,11.0952606 1.24005114,10.8616433 L15,1.60395859 L28.7599615,10.8615895 C28.8987113,10.9550041 29.059961,11 29.2198044,11 C29.459804,11 29.6966395,10.8984707 29.8493345,10.7067958 C30.1037481,10.3876785 30.0282795,9.93950374 29.6809364,9.70577876 Z" id="Path"></path>
                    <path d="M25.2332911,11 C24.8099414,11 24.4666398,11.3313359 24.4666398,11.740054 L24.4666398,23.5197807 L18.3335446,23.5197807 L18.3335446,17.0896607 C18.3335446,15.0491298 16.6137515,13.3891123 14.5,13.3891123 C12.3862485,13.3891123 10.6664554,15.049241 10.6664554,17.0896607 L10.6664554,23.5198363 L4.5333026,23.5198363 L4.5333026,11.7401097 C4.5333026,11.3313916 4.19000095,11 3.7666513,11 C3.34330165,11 3,11.3313916 3,11.7401097 L3,24.259946 C3,24.6686641 3.34330165,25 3.7666513,25 L11.4331067,25 C11.8362858,25 12.1662173,24.6993165 12.1967612,24.3175793 C12.1986054,24.3002782 12.199758,24.2813637 12.199758,24.259946 L12.199758,17.0897163 C12.199758,15.8653421 13.2316223,14.869276 14.5,14.869276 C15.7683777,14.869276 16.800242,15.8653978 16.800242,17.0897163 L16.800242,24.259946 C16.800242,24.2812525 16.8013946,24.2998331 16.8032388,24.3169117 C16.8334369,24.6989271 17.1634837,25 17.5668933,25 L25.2333487,25 C25.656756,25 26,24.6686641 26,24.259946 L26,11.7401097 C26,11.3313359 25.6566984,11 25.2332911,11 Z" id="Path"></path>
                </g>
            </g>
        </g>
    </g>
</svg>