<?xml version="1.0" encoding="UTF-8"?>
<svg width="52px" height="34px" viewBox="0 0 52 34" version="1.1" xmlns="http://www.w3.org/2000/svg" xmlns:xlink="http://www.w3.org/1999/xlink">
    <!-- Generator: Sketch 59 (86127) - https://sketch.com -->
    <title>icono-nosotros</title>
    <desc>Created with Sketch.</desc>
    <g id="Tab-bar" stroke="none" stroke-width="1" fill="none" fill-rule="evenodd">
        <g id="Propuesta-Tab-Bar_2" transform="translate(-265.000000, -853.000000)" fill="#FFFFFF">
            <g id="icono-nosotros" transform="translate(265.000000, 853.000000)">
                <g id="user-copy" transform="translate(17.000000, 0.000000)" fill-rule="nonzero">
                    <path d="M17.9246484,13.5753516 C16.7810098,12.4317539 15.4197832,11.5851504 13.9346074,11.0726602 C15.5252754,9.9770918 16.5703125,8.14357031 16.5703125,6.0703125 C16.5703125,2.72315039 13.8471621,0 10.5,0 C7.15283789,0 4.4296875,2.72315039 4.4296875,6.0703125 C4.4296875,8.14357031 5.47472461,9.9770918 7.06543359,11.0726602 C5.58025781,11.5851504 4.21903125,12.4317539 3.07539258,13.5753516 C1.09220508,15.5585801 0,18.1953516 0,21 L1.640625,21 C1.640625,16.114916 5.61491602,12.140625 10.5,12.140625 C15.385084,12.140625 19.359375,16.114916 19.359375,21 L21,21 C21,18.1953516 19.9077949,15.5585801 17.9246484,13.5753516 Z M10.5,11 C8.01870833,11 6,8.98133333 6,6.5 C6,4.01866667 8.01870833,2 10.5,2 C12.9812917,2 15,4.01866667 15,6.5 C15,8.98133333 12.9812917,11 10.5,11 Z" id="Shape"></path>
                </g>
                <text id="nosotros" font-family="Avenir-Medium, Avenir" font-size="11" font-weight="400" letter-spacing="1.298">
                    <tspan x="0.094" y="33">nosotros</tspan>
                </text>
            </g>
        </g>
    </g>
</svg>