<?xml version="1.0" encoding="UTF-8"?>
<svg width="36px" height="35px" viewBox="0 0 36 35" version="1.1" xmlns="http://www.w3.org/2000/svg" xmlns:xlink="http://www.w3.org/1999/xlink">
    <!-- Generator: Sketch 59 (86127) - https://sketch.com -->
    <title>1524232</title>
    <desc>Created with Sketch.</desc>
    <g id="Symbols" stroke="none" stroke-width="1" fill="none" fill-rule="evenodd">
        <g id="Redes-sociales-Copy" transform="translate(-3.000000, -110.000000)">
            <g id="Redes-sociales">
                <g id="1524232" transform="translate(3.000000, 110.000000)">
                    <path d="M29.5,6 C28.6721992,6 28,6.67219917 28,7.5 C28,8.32780083 28.6721992,9 29.5,9 C30.3278008,9 31,8.32780083 31,7.5 C31,6.67219917 30.3278008,6 29.5,6 Z" id="Path"></path>
                    <circle id="Oval" cx="18.5" cy="17.5" r="8.5"></circle>
                    <path d="M28.7625,0 L7.2375,0 C3.24,0 0,3.19661734 0,7.14059197 L0,27.859408 C0,31.8033827 3.24,35 7.2375,35 L28.7625,35 C32.76,35 36,31.8033827 36,27.859408 L36,7.14059197 C36,3.19661734 32.76,0 28.7625,0 Z M18,25.8615222 C13.32,25.8615222 9.525,22.1173362 9.525,17.5 C9.525,12.8826638 13.32,9.1384778 18,9.1384778 C22.68,9.1384778 26.475,12.8826638 26.475,17.5 C26.475,22.1173362 22.68,25.8615222 18,25.8615222 Z M28.9275,8.92389006 C27.93,8.92389006 27.12,8.12473573 27.12,7.14059197 C27.12,6.1564482 27.93,5.35729387 28.9275,5.35729387 C29.925,5.35729387 30.735,6.1564482 30.735,7.14059197 C30.735,8.12473573 29.925,8.92389006 28.9275,8.92389006 Z" id="Shape" fill="#FFFFFF" fill-rule="nonzero"></path>
                </g>
            </g>
        </g>
    </g>
</svg>