<?xml version="1.0" encoding="UTF-8"?>
<svg width="53px" height="40px" viewBox="0 0 53 40" version="1.1" xmlns="http://www.w3.org/2000/svg" xmlns:xlink="http://www.w3.org/1999/xlink">
    <!-- Generator: Sketch 59 (86127) - https://sketch.com -->
    <title>icono-servicios</title>
    <desc>Created with Sketch.</desc>
    <g id="Tab-bar" stroke="none" stroke-width="1" fill="none" fill-rule="evenodd">
        <g id="Propuesta-Tab-Bar_2" transform="translate(-19.000000, -847.000000)" fill="#FFFFFF">
            <g id="icono-servicios" transform="translate(19.000000, 847.000000)">
                <g id="light-bulb-copy" transform="translate(14.000000, 0.000000)">
                    <path d="M12.9674819,4 C8.66724497,4 5.56087434,7.11206264 5.0682596,10.4548569 C4.76109981,12.6833863 5.50291967,14.8556398 7.04451404,16.4988989 C8.40065346,17.9057989 9.14247331,19.7854172 9.14247331,21.7213115 L9.13667784,24.7714705 C9.13667784,26.0039149 10.1856575,27 11.4838422,27 L14.5090763,27 C15.807261,27 16.8562407,26.0039149 16.8562407,24.7714705 L16.8620361,21.7213115 C16.8620361,19.7291412 17.5401058,17.9057989 18.8382906,16.6170785 C20.2581801,15.2101786 21,13.3924639 21,11.5128456 C20.9942045,7.34279423 17.3488554,4 12.9674819,4 L12.9674819,4 Z M15.6797608,24.7714705 C15.6797608,25.3567409 15.187146,25.8294593 14.567031,25.8294593 L11.5417969,25.8294593 C10.9216819,25.8294593 10.4290671,25.3623685 10.4290671,24.7714705 L10.4290671,23.4208466 L15.6739653,23.4208466 L15.6739653,24.7714705 L15.6797608,24.7714705 Z M17.9747659,15.795449 C16.4331715,17.3205285 15.6276015,19.4308784 15.6276015,21.7213115 L15.6276015,22.2503058 L10.3827034,22.2503058 L10.3827034,21.7213115 C10.3827034,19.549058 9.45542856,17.3824321 7.91383418,15.739173 C6.55769477,14.3322731 6.00132988,12.5145584 6.24473952,10.6349401 C6.67939959,7.8211402 9.37429202,5.17616834 12.9732774,5.17616834 C16.7403313,5.17616834 19.7655654,8.05187179 19.7655654,11.5128456 C19.7655654,13.0942011 19.1454504,14.6192806 17.9747659,15.795449 Z" id="Shape" fill-rule="nonzero"></path>
                    <rect id="Rectangle" x="13" y="0" width="1" height="3"></rect>
                    <polygon id="Path" points="21 6.106 21.8696498 7 24 4.894 23.1245136 4"></polygon>
                    <rect id="Rectangle" x="24" y="13" width="3" height="1"></rect>
                    <rect id="Rectangle" x="0" y="13" width="3" height="1"></rect>
                    <polygon id="Path" points="4.87548638 4 4 4.894 6.13035019 7 7 6.106"></polygon>
                </g>
                <text id="servicios" font-family="Avenir-Medium, Avenir" font-size="11" font-weight="400" letter-spacing="1.298">
                    <tspan x="0.374" y="39">servicios</tspan>
                </text>
            </g>
        </g>
    </g>
</svg>