<?xml version="1.0" encoding="UTF-8"?>
<svg width="59px" height="41px" viewBox="0 0 59 41" version="1.1" xmlns="http://www.w3.org/2000/svg" xmlns:xlink="http://www.w3.org/1999/xlink">
    <!-- Generator: Sketch 59 (86127) - https://sketch.com -->
    <title>icono-proyectos</title>
    <desc>Created with Sketch.</desc>
    <g id="Tab-bar" stroke="none" stroke-width="1" fill="none" fill-rule="evenodd">
        <g id="Propuesta-Tab-Bar_2" transform="translate(-95.000000, -852.000000)" fill="#FFFFFF">
            <g id="icono-proyectos" transform="translate(94.000000, 852.000000)">
                <g id="web-copy" transform="translate(17.000000, 0.000000)">
                    <path d="M24.1875,0 L2.8125,0 C1.26,0.00184659091 0.001828125,1.27272727 0,2.84090909 L0,18.1818182 C0.001828125,19.75 1.26,21.0208807 2.8125,21.0227273 L10.504125,21.0227273 L9.700875,23.8636364 L7.875,23.8636364 L7.875,25 L19.125,25 L19.125,23.8636364 L17.299125,23.8636364 L16.495875,21.0227273 L24.1875,21.0227273 C25.74,21.0208807 26.9981719,19.75 27,18.1818182 L27,2.84090909 C26.9981719,1.27272727 25.74,0.00184659091 24.1875,0 Z M10.870875,23.8636364 L11.674125,21.0227273 L15.325875,21.0227273 L16.129125,23.8636364 L10.870875,23.8636364 Z M25.875,18.1818182 C25.875,19.1232244 25.1194922,19.8863636 24.1875,19.8863636 L2.8125,19.8863636 C1.88050781,19.8863636 1.125,19.1232244 1.125,18.1818182 L1.125,17.0454545 L25.875,17.0454545 L25.875,18.1818182 Z M25.875,15.9090909 L1.125,15.9090909 L1.125,2.84090909 C1.125,1.89950284 1.88050781,1.13636364 2.8125,1.13636364 L24.1875,1.13636364 C25.1194922,1.13636364 25.875,1.89950284 25.875,2.84090909 L25.875,15.9090909 Z" id="Shape" fill-rule="nonzero"></path>
                    <polygon id="Rectangle" transform="translate(13.496201, 9.009571) rotate(-74.031780) translate(-13.496201, -9.009571) " points="9.40301993 8.4473257 17.5893814 8.4473257 17.5893814 9.57181663 9.40301993 9.57181663"></polygon>
                    <path d="M10,6.79889043 L9.32980364,6 L6.18825822,8.60055479 C5.96619023,8.78454404 5.9362801,9.11247399 6.12150038,9.33313107 C6.14172408,9.3571862 6.16404214,9.37942094 6.18825822,9.39944521 L9.32980364,12 L10,11.2011096 L7.34120539,9 L10,6.79889043 Z" id="Path"></path>
                    <path d="M20.8784996,8.66686893 C20.8582759,8.6428138 20.8359579,8.62057906 20.8117418,8.60055479 L17.6701964,6 L17,6.79889043 L19.6587946,9 L17,11.2011096 L17.6701964,12 L20.8117418,9.39944521 C21.0338098,9.21545596 21.0637199,8.88752601 20.8784996,8.66686893 Z" id="Path"></path>
                </g>
                <text id="proyectos" font-family="Avenir-Medium, Avenir" font-size="11" font-weight="400" letter-spacing="1.298">
                    <tspan x="0.3925" y="37">proyectos</tspan>
                </text>
            </g>
        </g>
    </g>
</svg>