<?xml version="1.0" encoding="UTF-8"?>
<svg width="42px" height="35px" viewBox="0 0 42 35" version="1.1" xmlns="http://www.w3.org/2000/svg" xmlns:xlink="http://www.w3.org/1999/xlink">
    <!-- Generator: Sketch 59 (86127) - https://sketch.com -->
    <title>1239448</title>
    <desc>Created with Sketch.</desc>
    <g id="Symbols" stroke="none" stroke-width="1" fill="none" fill-rule="evenodd">
        <g id="Redes-sociales-Copy" transform="translate(0.000000, -55.000000)" fill="#FFFFFF" fill-rule="nonzero">
            <g id="Redes-sociales">
                <g id="1239448" transform="translate(0.000000, 55.000000)">
                    <path d="M42,4.19351249 C40.421508,4.89451705 38.7521984,5.35792405 37.044,5.56931787 C38.8461631,4.46721354 40.1966705,2.73340156 40.845,0.689508174 C39.1514594,1.72149796 37.2976004,2.44859763 35.364,2.83920407 C32.705773,-0.1117204 28.4355123,-0.85126895 24.9769586,1.04031589 C21.5184048,2.93190072 19.7452861,6.9767513 20.664,10.8790667 C13.7389572,10.5205126 7.28850923,7.16817154 2.919,1.65687133 C2.16118862,3.0115421 1.76299049,4.54568074 1.764,6.10674184 C1.75854221,9.05120493 3.19328632,11.8029942 5.586,13.4372049 C4.21675257,13.399068 2.87675987,13.0229559 1.68,12.34086 L1.68,12.4483447 C1.70115725,16.6359102 4.5978052,20.2300875 8.61,21.0471283 C7.8608365,21.2805133 7.08303749,21.4035633 6.3,21.4125766 C5.75796946,21.4060943 5.21728672,21.3557781 4.683,21.2620979 C5.81904909,24.8437991 9.04797067,27.294751 12.726,27.3672343 C9.69612545,29.8077123 5.95535533,31.1396408 2.1,31.1506991 C1.39804403,31.1530553 0.696644798,31.1099754 0,31.0217173 C3.93629955,33.6234017 8.52350697,35.0045083 13.209,34.9986547 C19.7405524,35.0680893 26.0252538,32.4471399 30.649928,27.7251525 C35.2746022,23.0031651 37.8510745,16.5764824 37.8,9.89020662 C37.8,9.52475832 37.8,9.13781306 37.8,8.7508678 C39.4478602,7.49288899 40.8690965,5.95072739 42,4.19351249 L42,4.19351249 Z" id="Path"></path>
                </g>
            </g>
        </g>
    </g>
</svg>