<?xml version="1.0" encoding="UTF-8"?>
<svg width="53px" height="31px" viewBox="0 0 53 31" version="1.1" xmlns="http://www.w3.org/2000/svg" xmlns:xlink="http://www.w3.org/1999/xlink">
    <!-- Generator: Sketch 59 (86127) - https://sketch.com -->
    <title>icono-contacto</title>
    <desc>Created with Sketch.</desc>
    <defs>
        <polygon id="path-1" points="1.52341421e-06 0.188167638 36.2195137 0.188167638 36.2195137 26.6972585 1.52341421e-06 26.6972585"></polygon>
    </defs>
    <g id="Tab-bar" stroke="none" stroke-width="1" fill="none" fill-rule="evenodd">
        <g id="Propuesta-Tab-Bar_2" transform="translate(-341.000000, -856.000000)">
            <g id="icono-contacto" transform="translate(341.000000, 856.000000)">
                <g id="Call-to-action-Amarillo" transform="translate(14.000000, 0.000000)">
                    <g id="Call-to-action" transform="translate(0.000000, -8.836364)">
                        <mask id="mask-2" fill="white">
                            <use xlink:href="#path-1"></use>
                        </mask>
                        <g id="Clip-2"></g>
                        <path d="M10.2073171,25.2 C11.4520087,24.3825327 12.6277211,23.6103665 13.8292683,22.8212059 C13.014046,22.2983749 12.2276213,21.7940227 11.4147381,21.2727273 C11.0138065,22.5767335 10.6225435,23.8494129 10.2073171,25.2 M9.4879869,24.2181818 C9.50691153,24.2153516 9.52583616,24.2125214 9.5448135,24.2096388 C9.93263665,22.961631 10.3147139,21.7118412 10.7153467,20.4679214 C10.7673236,20.3065483 10.8858266,20.1366322 11.022358,20.0362654 C13.8735461,17.940302 16.7319034,15.8538773 19.5885738,13.7653038 C20.1936348,13.3229036 20.7978524,12.8793503 21.402439,12.4363636 C21.2969566,12.4356922 21.2108205,12.470231 21.1285327,12.5121597 C17.0077075,14.6108485 12.8883055,16.7121578 8.76368486,18.8033519 C8.55999469,18.9066013 8.53922504,19.0151967 8.57554557,19.2095362 C8.80443344,20.4351646 9.02362179,21.662575 9.2462366,22.8893564 C9.32657403,23.3323856 9.40738589,23.7752575 9.4879869,24.2181818 M1.97560976,14.7779787 C2.12430326,14.8578309 2.20277031,14.9009624 2.28211843,14.9424528 C4.19564677,15.9425803 6.11026349,16.9406564 8.02088948,17.9462716 C8.17134512,18.0254571 8.28116789,18.0121228 8.42530056,17.9388864 C13.1347228,15.547063 17.8463219,13.159445 22.5575581,10.7710577 C22.7217481,10.6877693 22.885057,10.6026859 23.0487805,10.5184744 C23.0426648,10.5032424 23.036601,10.4879592 23.0305372,10.4727273 C16.0389365,11.9023748 9.04733591,13.331971 1.97560976,14.7779787 M11.8536585,20.4710145 C14.514987,22.1616121 17.153685,23.8378582 19.8130662,25.5272727 C21.6673861,20.6078426 23.510496,15.7180413 25.3536585,10.8282915 C25.3400277,10.8188267 25.3264495,10.8094134 25.3128713,10.8 C20.8347999,14.0176703 16.3566759,17.235392 11.8536585,20.4710145 M26.1869881,9.16363636 C26.5908601,9.16737252 26.7636652,9.45692428 26.6217107,9.84107333 C26.2086669,10.9586497 25.7930175,12.0752402 25.3795046,13.1926609 C23.7646941,17.55659 22.1503525,21.9206228 20.5359067,26.2846556 C20.5119349,26.3494675 20.4913505,26.4156804 20.4640435,26.4790393 C20.3043186,26.8497486 20.0342716,26.9369254 19.6931952,26.7175303 C18.7749726,26.1266994 17.8598768,25.5311465 16.9431655,24.9379805 C16.2229705,24.4719474 15.5000656,24.0099619 14.7838312,23.5378576 C14.6625654,23.4579455 14.5831459,23.4607476 14.4633913,23.5407116 C12.8779722,24.5993398 11.2880714,25.6512222 9.70056776,26.7067889 C9.30076052,26.9726265 8.98402064,26.8131654 8.91095889,26.347807 C8.76504384,25.4182835 8.58874719,24.4934822 8.4214139,23.5673836 C8.16965832,22.173799 7.91076334,20.7815116 7.66672041,19.3866297 C7.6371205,19.2174132 7.55874328,19.1347508 7.41840427,19.0612213 C5.07037055,17.830782 2.7238481,16.5974887 0.378993256,15.3611338 C0.267211905,15.3021856 0.145685514,15.2282928 0.0767406526,15.1284546 C-0.104819359,14.8653153 0.0493815807,14.5409447 0.396138274,14.4651319 C1.2088851,14.2874572 2.02475868,14.1237411 2.83964212,13.955718 C6.7699161,13.1452844 10.7000337,12.33428 14.6306204,11.5254032 C17.8565416,10.8615617 21.083036,10.2005223 24.3092178,9.53792612 C24.8695315,9.42283189 25.4293763,9.30555824 25.9897943,9.19093103 C26.0660871,9.17536373 26.144308,9.16939626 26.1869881,9.16363636" id="Fill-1" fill="#FFFFFF" mask="url(#mask-2)"></path>
                    </g>
                </g>
                <text id="contacto" font-family="Avenir-Medium, Avenir" font-size="11" font-weight="400" letter-spacing="1.298" fill="#FFFFFF">
                    <tspan x="0.4895" y="30">contacto</tspan>
                </text>
            </g>
        </g>
    </g>
</svg>