<svg class="home-img" width="1470" height="360" viewBox="39 0 1470 360" preserveAspectRatio="xMidYMin slice" version="1.1" 
    xmlns="http://www.w3.org/2000/svg" 
    xmlns:xlink="http://www.w3.org/1999/xlink">
    <path d="M36,165.804617 C36,165.804617 51.3280884,169.937901 67.9639814,165.804617 L84.6015907,161.671332 C84.6015907,161.671332 104.565349,159.605755 113.714833,155.472471 C122.866033,151.341318 140.334321,149.27361 151.148595,147.208033 C161.96287,145.140325 190.245433,143.074748 203.555177,137.909741 C216.864921,132.742602 238.491753,131.71088 248.473633,129.643172 C258.455512,127.577595 293.393805,122.412588 295.056879,119.311026 C296.72167,116.211595 298.384744,112.080442 305.038758,113.112164 C311.694488,114.146019 316.685428,112.080442 329.162777,106.913303 C341.640126,101.748296 343.304916,95.5494348 350.791326,96.5832889 C358.277735,97.6150114 360.773205,82.4013687 381.569358,87.9415477 L402.365512,93.4838583 C402.365512,93.4838583 433.97594,82.1178582 448.948758,79.0184276 C463.921577,75.918997 483.885335,53.1891285 499.690549,39.757552 C515.495763,26.3259754 538.787386,11.8626764 544.610721,8.76324573 L550.43234,5.66381511 C550.43234,5.66381511 563.742084,2.56438448 577.884223,5.66381511 C592.024647,8.76324573 613.653195,9.10857431 620.307209,4.28676409 C626.96294,-0.535046139 639.440288,-2.25742574 658.573367,4.28676409 C677.70473,10.8288223 701.828749,0 701.828749,0 L705.987293,0 C705.987293,0 744.251735,4.62996101 765.880284,29.4275377 C787.508833,54.2229826 815.791395,63.5212745 815.791395,63.5212745 C815.791395,63.5212745 825.773274,71.7857123 829.10114,68.6862817 C832.427288,65.586851 840.746093,52.0444282 873.1872,45.3851289 C905.630023,38.7258295 925.593781,45.3851289 925.593781,45.3851289 C925.593781,45.3851289 925.593781,46.9902673 943.06207,59.3879898 C960.532074,71.7857123 965.523014,87.5898241 978.832758,83.8210529 C992.140786,80.0522817 1012.93694,77.9845735 1024.58361,79.0184276 C1036.22856,80.0522817 1041.2195,81.0840042 1057.02472,77.9845735 C1072.82993,74.8851429 1087.80275,82.1178582 1094.45848,79.0184276 C1101.11249,75.918997 1113.58984,83.4330912 1121.90865,87.9415477 C1130.22745,92.4500042 1146.03267,110.296244 1174.31523,87.9415477 C1202.59779,65.586851 1239.19916,110.012734 1259.99531,122.412588 C1280.79147,134.81031 1290.77334,148.239755 1306.57856,155.472471 L1322.38377,162.705186 C1322.38377,162.705186 1334.86112,184.4012 1354.82488,173.037332 L1374.78864,161.671332 C1374.78864,161.671332 1399.74505,167.870193 1406.39907,164.770763 C1413.05308,161.671332 1421.37188,159.605755 1428.85829,160.63961 C1436.3447,161.671332 1449.65445,165.804617 1457.97325,167.870193 C1466.29206,169.937901 1472.11539,164.770763 1481.26487,166.838471 C1490.41607,168.904047 1497.07009,175.102909 1499.56556,172.003478 C1502.06103,168.904047 1512,167.870193 1512,167.870193 L1512,608 L774,608 L36,608 L36,165.804617 Z" id="Fill-1" fill="#48024B"></path>
</svg>