<svg width="372px" height="108px" viewBox="0 0 372 108" version="1.1" 
    xmlns="http://www.w3.org/2000/svg" 
    xmlns:xlink="http://www.w3.org/1999/xlink">
    <defs>
        <filter x="-4.9%" y="-17.3%" width="109.8%" height="134.7%" filterUnits="objectBoundingBox" id="filter-1">
            <feOffset dx="0" dy="2" in="SourceAlpha" result="shadowOffsetOuter1"></feOffset>
            <feGaussianBlur stdDeviation="3.5" in="shadowOffsetOuter1" result="shadowBlurOuter1"></feGaussianBlur>
            <feColorMatrix values="0 0 0 0 0   0 0 0 0 0   0 0 0 0 0  0 0 0 0.5 0" type="matrix" in="shadowBlurOuter1" result="shadowMatrixOuter1"></feColorMatrix>
            <feMerge>
                <feMergeNode in="shadowMatrixOuter1"></feMergeNode>
                <feMergeNode in="SourceGraphic"></feMergeNode>
            </feMerge>
        </filter>
    </defs>
    <g id="Symbols" stroke="none" stroke-width="1" fill="none" fill-rule="evenodd">
        <g id="Menu-Orden-Correcto" transform="translate(-444.000000, 5.000000)">
            <g id="Tacode-logo" filter="url(#filter-1)" transform="translate(451.000000, 0.000000)">
                <g id="tacodecolor-copy-2" fill-rule="nonzero">
                    <g id="XMLID_15_" transform="translate(0.000000, 2.000000)" fill="#732878">
                        <polygon id="XMLID_16_" points="22.8571429 5.70212766 0 5.70212766 0 0 51.8571429 0 51.8571429 5.70212766 29 5.70212766 29 66.7148936 22.8571429 66.7148936"></polygon>
                        <path d="M75.1428571,0.142553191 L81.5714286,0.142553191 L109.714286,66.7148936 L102.714286,66.7148936 L95.4285714,49.0382979 L60,49.0382979 L52.4285714,66.7148936 L45.8571429,66.7148936 L75.1428571,0.142553191 Z M78.1428571,6.84255319 L62.5714286,43.3361702 L93.2857143,43.3361702 L78.1428571,6.84255319 Z" id="XMLID_18_"></path>
                    </g>
                    <circle id="XMLID_169_" fill="#FBB420" cx="203.5" cy="35.5" r="34.5"></circle>
                    <g id="XMLID_9_" transform="translate(244.000000, 1.000000)" fill="#010101">
                        <path d="M0,0.435420696 L26.3983673,0.435420696 C30.8459184,0.435420696 35.0065306,1.16112186 39.1671429,2.46738395 C43.3277551,3.77364603 46.9144898,5.95074952 50.0708163,8.70841393 C53.2271429,11.4660783 55.8095918,15.0945841 57.6746939,19.3036509 C59.5397959,23.5127176 60.5440816,28.5926257 60.5440816,34.2530948 C60.5440816,40.0587041 59.3963265,45.1386122 57.2442857,49.3476789 C55.0922449,53.5567456 52.2228571,57.0401112 48.7795918,59.9429159 C45.3363265,62.8457205 41.4626531,64.7325435 37.3020408,66.1839458 C33.1414286,67.4902079 28.9808163,68.2159091 24.9636735,68.2159091 L0,68.2159091 L0,0.435420696 Z M20.8030612,57.3303917 C24.5332653,57.3303917 27.9765306,56.894971 31.4197959,56.0241296 C34.7195918,55.1532882 37.5889796,53.8470261 40.0279592,51.9602031 C42.4669388,50.0733801 44.4755102,47.7511364 45.9102041,44.8483317 C47.344898,41.9455271 48.0622449,38.4621615 48.0622449,34.2530948 C48.0622449,30.1891683 47.4883673,26.7058027 46.1971429,23.6578578 C44.9059184,20.7550532 43.1842857,18.2876692 40.8887755,16.5459865 C38.5932653,14.8043037 36.0108163,13.3529014 32.9979592,12.48206 C29.985102,11.6112186 26.5418367,11.1757979 22.955102,11.1757979 L12.0514286,11.1757979 L12.0514286,57.1852515 L20.8030612,57.1852515 L20.8030612,57.3303917 Z" id="XMLID_10_"></path>
                        <polygon id="XMLID_13_" points="67.2871429 0.435420696 111.762653 0.435420696 111.762653 11.3209381 79.3385714 11.3209381 79.3385714 28.0120648 110.18449 28.0120648 110.18449 38.8975822 79.3385714 38.8975822 79.3385714 57.3303917 113.484286 57.3303917 113.484286 68.2159091 67.4306122 68.2159091 67.4306122 0.435420696"></polygon>
                    </g>
                    <g id="XMLID_6_" transform="translate(109.000000, 0.000000)" fill="#010101">
                        <path d="M48.9128015,17.3333333 C46.4526902,14.7333333 44.1372913,13 41.9666048,12.1333333 C39.6512059,11.2666667 37.4805195,10.8333333 35.1651206,10.8333333 C31.6920223,10.8333333 28.6530612,11.4111111 25.903525,12.7111111 C23.1539889,13.8666667 20.83859,15.6 18.812616,17.7666667 C16.7866419,19.9333333 15.3395176,22.3888889 14.1818182,25.2777778 C13.1688312,28.1666667 12.5899814,31.2 12.5899814,34.5222222 C12.5899814,37.9888889 13.1688312,41.3111111 14.1818182,44.2 C15.1948052,47.2333333 16.7866419,49.6888889 18.812616,51.8555556 C20.83859,54.0222222 23.1539889,55.7555556 25.903525,56.9111111 C28.6530612,58.2111111 31.6920223,58.7888889 35.1651206,58.7888889 C37.7699443,58.7888889 40.3747681,58.2111111 42.9795918,56.9111111 C45.4397032,55.6111111 47.755102,53.5888889 49.9257885,50.8444444 L59.6215213,57.7777778 C56.5825603,61.8222222 52.9647495,64.8555556 48.7680891,66.7333333 C44.4267161,68.6111111 39.9406308,69.4777778 35.1651206,69.4777778 C30.1001855,69.4777778 25.4693878,68.6111111 21.1280148,67.0222222 C16.9313544,65.4333333 13.1688312,63.1222222 10.1298701,60.0888889 C7.09090909,57.0555556 4.63079777,53.4444444 2.89424861,49.2555556 C1.15769944,45.0666667 0.289424861,40.4444444 0.289424861,35.2444444 C0.289424861,30.0444444 1.15769944,25.2777778 2.89424861,20.9444444 C4.63079777,16.6111111 7.09090909,13 10.1298701,9.96666667 C13.1688312,6.93333333 16.7866419,4.62222222 21.1280148,3.03333333 C25.3246753,1.44444444 30.1001855,0.577777778 35.1651206,0.577777778 C39.6512059,0.577777778 43.703154,1.3 47.6103896,2.88888889 C51.3729128,4.47777778 54.9907236,7.07777778 58.3191095,10.9777778 L48.9128015,17.3333333 Z" id="XMLID_7_"></path>
                    </g>
                </g>
                <text id="estudio-web" font-family="Avenir-Light, Avenir" font-size="20" font-weight="300" letter-spacing="16.8148148" fill="#000000">
                    <tspan x="48.0385185" y="94">estudio web</tspan>
                </text>
            </g>
        </g>
    </g>
</svg>