<?xml version="1.0" encoding="UTF-8"?>
<svg width="289px" height="483px" viewBox="0 0 289 483" version="1.1" xmlns="http://www.w3.org/2000/svg" xmlns:xlink="http://www.w3.org/1999/xlink">
    <!-- Generator: Sketch 59 (86127) - https://sketch.com -->
    <title>Group 2</title>
    <desc>Created with Sketch.</desc>
    <defs>
        <filter x="-5.7%" y="-11.5%" width="111.6%" height="123.1%" filterUnits="objectBoundingBox" id="filter-1">
            <feOffset dx="0" dy="1" in="SourceAlpha" result="shadowOffsetOuter1"></feOffset>
            <feGaussianBlur stdDeviation="2" in="shadowOffsetOuter1" result="shadowBlurOuter1"></feGaussianBlur>
            <feColorMatrix values="0 0 0 0 0   0 0 0 0 0   0 0 0 0 0  0 0 0 0.5 0" type="matrix" in="shadowBlurOuter1" result="shadowMatrixOuter1"></feColorMatrix>
            <feMerge>
                <feMergeNode in="shadowMatrixOuter1"></feMergeNode>
                <feMergeNode in="SourceGraphic"></feMergeNode>
            </feMerge>
        </filter>
        <radialGradient cx="86.83964%" cy="213.543127%" fx="86.83964%" fy="213.543127%" r="388.020477%" gradientTransform="translate(0.868396,2.135431),scale(1.000000,0.928358),rotate(90.000000),scale(1.000000,15.233181),translate(-0.868396,-2.135431)" id="radialGradient-2">
            <stop stop-color="#B4610D" offset="0%"></stop>
            <stop stop-color="#F5A656" offset="56.9817684%"></stop>
            <stop stop-color="#C16B14" offset="93.0319725%"></stop>
            <stop stop-color="#000000" offset="100%"></stop>
        </radialGradient>
        <path d="M0,298.402468 C56.7054591,301.158227 101.659587,302.549885 134.862385,302.577442 L135.864933,302.57786 C169.163314,302.57786 218.68933,301.429357 284.442982,299.132352 L284.442982,302.57786 C219.068641,305.096346 169.874449,306.368182 136.860406,306.393367 L135.864933,306.393748 C102.847589,306.393748 57.559278,305.076332 0,302.441498 L0,298.402468 Z M5.68434189e-14,-7.90478794e-14 C57.2782415,2.78359445 102.566553,4.17539168 135.864933,4.17539168 C169.163314,4.17539168 218.68933,3.02688891 284.442982,0.729883369 L284.442982,4.17539168 C218.408294,6.71931724 168.882277,7.99128001 135.864933,7.99128001 C102.847589,7.99128001 57.559278,6.67386338 5.68434189e-14,4.0390301 L5.68434189e-14,-7.90478794e-14 Z" id="path-3"></path>
        <filter x="-1.2%" y="-0.8%" width="102.5%" height="102.3%" filterUnits="objectBoundingBox" id="filter-4">
            <feOffset dx="0" dy="1" in="SourceAlpha" result="shadowOffsetOuter1"></feOffset>
            <feGaussianBlur stdDeviation="1" in="shadowOffsetOuter1" result="shadowBlurOuter1"></feGaussianBlur>
            <feColorMatrix values="0 0 0 0 0   0 0 0 0 0   0 0 0 0 0  0 0 0 0.5 0" type="matrix" in="shadowBlurOuter1"></feColorMatrix>
        </filter>
        <linearGradient x1="47.6280892%" y1="32.9109182%" x2="112.519392%" y2="177.983723%" id="linearGradient-5">
            <stop stop-color="#DDD7DD" offset="0%"></stop>
            <stop stop-color="#D8FAF2" offset="99.9796785%"></stop>
        </linearGradient>
        <path d="M271.579406,3.37438049 C270.007529,8.73976514 269.61456,13.1806381 270.400498,16.6969994 C271.579406,21.9715413 275.040072,33.0599602 275.040072,40.296659 C275.040072,47.5333579 272.798879,70.7597361 272.798879,74.9986351 C272.798879,79.2375341 270.557686,105.63991 272.798879,111.07001 C275.040072,116.500109 277.600711,136.655239 277.600711,141.993264 C277.600711,147.331289 270.557686,169.403296 272.798879,176.806669 C274.293008,181.742252 274.293008,194.16158 272.798879,214.064656 C272.060829,235.045004 272.060829,247.543555 272.798879,251.560309 C273.905954,257.585441 270.557686,284.63926 272.798879,287.213896 C274.293008,288.93032 275.893618,293.432384 277.600711,300.720088 C266.747996,300.042573 257.901538,300.364834 251.061336,301.686872 C244.221134,303.00891 234.432676,303.375673 221.695962,302.787163 C217.724013,302.053636 211.472843,301.686872 202.94245,301.686872 C194.412057,301.686872 187.745382,302.580954 182.942423,304.36912 C173.251433,303.314482 165.958259,302.787163 161.062904,302.787163 C156.167548,302.787163 149.696371,303.314482 141.649373,304.36912 C131.150471,303.314482 124.602954,302.787163 122.006821,302.787163 L114.637589,302.787163 L114.637589,302.787163 C109.707303,302.787163 105.297877,303.314482 101.409311,304.36912 C91.8101545,303.314482 84.5065585,302.787163 79.4985233,302.787163 C74.4904881,302.787163 65.8507964,303.314482 53.5794481,304.36912 C48.5347921,301.936432 42.5853207,300.720088 35.7310338,300.720088 C28.8767469,300.720088 22.0799265,301.04235 15.3405725,301.686872 C12.7861309,296.997589 12.1475205,292.807428 13.4247413,289.116387 C15.3405725,283.579827 16.9318871,273.403857 16.9318871,267.459866 C16.9318871,263.497206 15.7628385,255.342643 13.4247413,242.996177 C12.1475205,228.763404 12.1475205,218.790013 13.4247413,213.076005 C15.3405725,204.504992 18.3896766,181.94213 18.3896766,178.286193 C18.3896766,174.630256 16.9318871,155.130768 16.9318871,153.87175 C16.9318871,152.612733 13.4247413,123.447713 13.4247413,118.294413 C13.4247413,113.141113 14.7920097,99.560226 15.3405725,94.9799739 C15.8326055,90.8717204 15.8326055,82.3647758 15.6192434,80.5904452 C15.0610689,75.9486377 12.6869956,69.3121195 10.6950832,60.9124164 C8.85953608,53.1720904 9.7694221,41.1611362 13.4247413,24.8795539 L13.4247413,3.37438049 C21.5544948,4.22780055 26.9257126,4.65451058 29.5383949,4.65451058 C32.1510771,4.65451058 37.4357731,4.22780055 45.3924829,3.37438049 C52.4267616,5.5918668 58.1318391,6.70060996 62.5077153,6.70060996 C66.8835916,6.70060996 75.5379706,6.29892299 88.4708524,5.49554905 C97.7590319,6.93881838 104.8762,7.66045304 109.822357,7.66045304 C114.768515,7.66045304 121.957753,6.93881838 131.390074,5.49554905 C138.588736,6.29892299 144.575638,6.70060996 149.350781,6.70060996 C154.125923,6.70060996 164.877847,6.01857683 181.606552,4.65451058 C188.861776,5.88247416 195.638661,6.56450729 201.937206,6.70060996 C211.385022,6.90476396 216.373551,6.79610275 220.52804,5.49554905 C224.682529,4.19499534 225.7989,7.90567087 244.840589,6.70060996 C257.535048,5.89723602 266.447987,4.78849286 271.579406,3.37438049 Z M54.6266299,300.393996 C55.8651825,300.393996 56.8692277,301.077699 56.8692277,301.921089 C56.8692277,302.764479 55.8651825,303.448182 54.6266299,303.448182 C53.3880773,303.448182 52.384032,302.764479 52.384032,301.921089 C52.384032,301.077699 53.3880773,300.393996 54.6266299,300.393996 Z M98.3572879,300.393996 C99.5958405,300.393996 100.599886,301.077699 100.599886,301.921089 C100.599886,302.764479 99.5958405,303.448182 98.3572879,303.448182 C97.1187353,303.448182 96.1146901,302.764479 96.1146901,301.921089 C96.1146901,301.077699 97.1187353,300.393996 98.3572879,300.393996 Z M142.087946,300.393996 C143.326499,300.393996 144.330544,301.077699 144.330544,301.921089 C144.330544,302.764479 143.326499,303.448182 142.087946,303.448182 C140.849393,303.448182 139.845348,302.764479 139.845348,301.921089 C139.845348,301.077699 140.849393,300.393996 142.087946,300.393996 Z M182.454707,300.393996 C183.69326,300.393996 184.697305,301.077699 184.697305,301.921089 C184.697305,302.764479 183.69326,303.448182 182.454707,303.448182 C181.216155,303.448182 180.212109,302.764479 180.212109,301.921089 C180.212109,301.077699 181.216155,300.393996 182.454707,300.393996 Z M235.155757,298.866903 C236.394309,298.866903 237.398355,299.550606 237.398355,300.393996 C237.398355,301.237386 236.394309,301.921089 235.155757,301.921089 C233.917204,301.921089 232.913159,301.237386 232.913159,300.393996 C232.913159,299.550606 233.917204,298.866903 235.155757,298.866903 Z M18.7450643,297.33981 C19.9836169,297.33981 20.9876622,298.023513 20.9876622,298.866903 C20.9876622,299.710293 19.9836169,300.393996 18.7450643,300.393996 C17.5065117,300.393996 16.5024665,299.710293 16.5024665,298.866903 C16.5024665,298.023513 17.5065117,297.33981 18.7450643,297.33981 Z M271.037322,295.812717 C272.275875,295.812717 273.27992,296.496419 273.27992,297.33981 C273.27992,298.1832 272.275875,298.866903 271.037322,298.866903 C269.79877,298.866903 268.794724,298.1832 268.794724,297.33981 C268.794724,296.496419 269.79877,295.812717 271.037322,295.812717 Z M89.3868965,6.42856676 C90.6254491,6.42856676 91.6294944,7.11226965 91.6294944,7.9556599 C91.6294944,8.79905016 90.6254491,9.48275304 89.3868965,9.48275304 C88.148344,9.48275304 87.1442987,8.79905016 87.1442987,7.9556599 C87.1442987,7.11226965 88.148344,6.42856676 89.3868965,6.42856676 Z M130.874957,6.42856676 C132.113509,6.42856676 133.117555,7.11226965 133.117555,7.9556599 C133.117555,8.79905016 132.113509,9.48275304 130.874957,9.48275304 C129.636404,9.48275304 128.632359,8.79905016 128.632359,7.9556599 C128.632359,7.11226965 129.636404,6.42856676 130.874957,6.42856676 Z M222.821469,6.42856676 C224.060021,6.42856676 225.064066,7.11226965 225.064066,7.9556599 C225.064066,8.79905016 224.060021,9.48275304 222.821469,9.48275304 C221.582916,9.48275304 220.578871,8.79905016 220.578871,7.9556599 C220.578871,7.11226965 221.582916,6.42856676 222.821469,6.42856676 Z M181.333408,5.66502019 C182.571961,5.66502019 183.576006,6.34872308 183.576006,7.19211333 C183.576006,8.03550359 182.571961,8.71920647 181.333408,8.71920647 C180.094856,8.71920647 179.09081,8.03550359 179.09081,7.19211333 C179.09081,6.34872308 180.094856,5.66502019 181.333408,5.66502019 Z M44.5349396,4.90147363 C45.7734922,4.90147363 46.7775374,5.58517651 46.7775374,6.42856676 C46.7775374,7.27195702 45.7734922,7.9556599 44.5349396,7.9556599 C43.296387,7.9556599 42.2923417,7.27195702 42.2923417,6.42856676 C42.2923417,5.58517651 43.296387,4.90147363 44.5349396,4.90147363 Z M267.673426,4.90147363 C268.911978,4.90147363 269.916023,5.58517651 269.916023,6.42856676 C269.916023,7.27195702 268.911978,7.9556599 267.673426,7.9556599 C266.434873,7.9556599 265.430828,7.27195702 265.430828,6.42856676 C265.430828,5.58517651 266.434873,4.90147363 267.673426,4.90147363 Z M16.5024665,4.90147363 C17.7410191,4.90147363 18.7450643,5.58517651 18.7450643,6.42856676 C18.7450643,7.27195702 17.7410191,7.9556599 16.5024665,7.9556599 C15.2639139,7.9556599 14.2598686,7.27195702 14.2598686,6.42856676 C14.2598686,5.58517651 15.2639139,4.90147363 16.5024665,4.90147363 Z" id="path-6"></path>
        <filter x="-1.5%" y="-0.7%" width="103.0%" height="102.7%" filterUnits="objectBoundingBox" id="filter-7">
            <feOffset dx="0" dy="2" in="SourceAlpha" result="shadowOffsetOuter1"></feOffset>
            <feGaussianBlur stdDeviation="1" in="shadowOffsetOuter1" result="shadowBlurOuter1"></feGaussianBlur>
            <feColorMatrix values="0 0 0 0 0   0 0 0 0 0   0 0 0 0 0  0 0 0 0.5 0" type="matrix" in="shadowBlurOuter1"></feColorMatrix>
        </filter>
    </defs>
    <g id="nosotros" stroke="none" stroke-width="1" fill="none" fill-rule="evenodd">
        <g id="Iphone11Pro_375x812_001" transform="translate(-43.000000, -229.000000)">
            <g id="Group-2" transform="translate(45.000000, 232.000000)">
                <g id="PAQUETE_WEB" transform="translate(20.000000, 0.000000)">
                    <g id="Zepelin-1" transform="translate(0.350000, 0.000000)">
                        <g id="zeppelin-copy-6" transform="translate(15.797015, 0.000000)">
                            <line x1="44.6053347" y1="129.278199" x2="58.4940885" y2="74.5342879" id="Path-4" stroke="#FFFFFF" stroke-width="2.8" stroke-dasharray="0.7" transform="translate(51.549712, 101.906243) rotate(11.000000) translate(-51.549712, -101.906243) "></line>
                            <line x1="151.212193" y1="129.805673" x2="162.909326" y2="75.7920203" id="Path-4" stroke="#FFFFFF" stroke-width="2.8" stroke-dasharray="0.7" transform="translate(157.060760, 102.798847) scale(1, -1) rotate(11.000000) translate(-157.060760, -102.798847) "></line>
                            <g id="zeppelin-copy-2" filter="url(#filter-1)">
                                <path d="M150.1428,77.0885818 L150.1428,82.0431823 C150.1428,86.9118197 146.003316,90.8544 140.900686,90.8544 L90.8006454,90.8544 L90.8006454,81.1640142 C92.4318477,81.2109032 94.0630499,81.2343477 95.6901537,81.2343477 C115.153921,81.2343477 134.490635,80.6482356 150.1428,77.0885818 Z" id="Path" fill="#EDB53E"></path>
                                <polygon id="Path" fill="#FBC34C" points="11.9365778 56.5758517 12.5249131 55.0632727 50.7625656 55.0632727 47.2449833 60.2922419 39.3024565 72.1041825 29.0065884 87.4129455 0 87.4129455"></polygon>
                                <polygon id="Path" fill="#FBB420" points="11.768457 30.1809854 0 0 28.5980449 0 38.7448159 14.979065 46.4980169 26.2148429 47.3281631 27.3622512 50.2755023 31.6613818 12.3485059 31.6613818"></polygon>
                                <path d="M96.4089686,5.50632727 C141.123582,5.50632727 185.167946,12.3445784 185.176119,44.0506182 C185.167946,26.2320895 141.123582,22.3909462 96.4089686,22.3909462 C79.1909204,22.3909462 61.588705,23.8289327 46.4467946,26.282888 L38.6081484,14.9313911 C55.3071622,9.05831029 76.1257564,5.50632727 96.4089686,5.50632727 Z" id="Path" fill="#FCCA62"></path>
                                <path d="M4.28979427,43.3623273 L185.176119,43.3623273 C185.17203,63.6114658 141.098495,65.3876364 96.3584189,65.3876364 C79.1305657,65.3876364 61.5142372,63.9253752 46.3677933,61.4299947 L49.8395349,56.3200276 L12.1001906,56.3200276 L11.5195224,57.7981829 C6.91915806,53.3319287 4.28979427,48.4603737 4.28979427,43.3623273 Z" id="Path" fill="#FBBB36"></path>
                                <path d="M150.706367,77.7606842 C135.098116,81.3204824 115.815653,81.9066182 96.4064934,81.9066182 C94.7839546,81.9066182 93.1573289,81.8831727 91.5307031,81.8362819 C72.8204201,81.3243899 53.967092,77.8857265 38.6122354,72.4815543 L38.6081484,72.4815543 L46.4429262,61.1300575 C61.5811718,63.5840127 79.1879651,65.0219993 96.4064934,65.0219993 C141.122353,65.0219993 185.172032,63.2753145 185.176119,43.3623273 C185.176119,63.4198947 171.063711,73.1184886 150.706367,77.7606842 Z" id="Path" fill="#FBB420"></path>
                                <path d="M185.176119,44.0506182 L4.28979427,44.0506182 C4.28979427,38.9504384 6.91915806,34.0846127 11.5195224,29.6159972 L12.1001906,31.0936194 L49.8395349,31.0936194 L46.3677933,25.9815233 C61.5183264,23.4870429 79.1305657,22.0253091 96.3584189,22.0253091 C141.098495,22.0253091 185.167941,25.929886 185.176119,44.042674 L185.176119,44.0506182 Z" id="Path" fill="#FBC34C"></path>
                            </g>
                        </g>
                        <text id="MISIÓN-Y" transform="translate(122.426866, 38.812038) rotate(1.000000) translate(-122.426866, -38.812038) " font-family="Avenir-Black, Avenir" font-size="16.2792" font-weight="700" line-spacing="15.12" letter-spacing="0.519791979" fill="#5F0263">
                            <tspan x="73.7088759" y="40.7555725">MISIÓN</tspan>
                            <tspan x="137.988582" y="40.7555725" letter-spacing="0.494287014"> Y</tspan>
                        </text>
                        <text id="VISIÓN" transform="translate(122.428481, 55.866676) rotate(-1.000000) translate(-122.428481, -55.866676) " font-family="Avenir-Black, Avenir" font-size="16.2792" font-weight="700" letter-spacing="0.519791979" fill="#5F0263">
                            <tspan x="92.2421315" y="60.8666759">VISIÓN</tspan>
                        </text>
                    </g>
                </g>
                <g id="Cartel" transform="translate(0.000000, 120.000000)">
                    <g id="Group">
                        <g id="Rectangle-2">
                            <use fill="black" fill-opacity="1" filter="url(#filter-4)" xlink:href="#path-3"></use>
                            <use fill="url(#radialGradient-2)" fill-rule="evenodd" xlink:href="#path-3"></use>
                        </g>
                        <g id="Combined-Shape">
                            <use fill="black" fill-opacity="1" filter="url(#filter-7)" xlink:href="#path-6"></use>
                            <use fill="url(#linearGradient-5)" fill-rule="evenodd" xlink:href="#path-6"></use>
                        </g>
                        <text id="Nuestra-MISIÓN-se-di" font-family="Avenir-Black, Avenir" font-size="16.2792" font-weight="700" letter-spacing="0.519791979" fill="#5F0263">
                            <tspan x="25" y="89">Nuestra MISIÓN se divide en </tspan>
                            <tspan x="25" y="115.02696">dos:</tspan>
                            <tspan x="25" y="141.05392"></tspan>
                            <tspan x="25" y="167.08088" font-family="Avenir-Heavy, Avenir" font-weight="600">1. I</tspan>
                            <tspan x="50.8793583" y="167.08088" font-family="Avenir-Medium, Avenir" font-weight="400">mpulsar el talento </tspan>
                            <tspan x="25" y="193.10784" font-family="Avenir-Medium, Avenir" font-weight="400">emergente mexicano a los más</tspan>
                            <tspan x="25" y="219.134801" font-family="Avenir-Medium, Avenir" font-weight="400">altos estándares del mundo </tspan>
                            <tspan x="25" y="245.161761" font-family="Avenir-Medium, Avenir" font-weight="400">tech a nivel internacional. </tspan>
                            <tspan x="231.046405" y="245.161761"></tspan>
                        </text>
                    </g>
                    <line x1="17.5" y1="5" x2="17.5" y2="1" id="Path-14" stroke="#8D6939" stroke-width="1.463616" stroke-linecap="round"></line>
                    <line x1="45.5" y1="5" x2="45.5" y2="1" id="Path-14-Copy" stroke="#8D6939" stroke-width="1.463616" stroke-linecap="round"></line>
                    <line x1="89.5" y1="8" x2="89.5" y2="4" id="Path-14-Copy-2" stroke="#8D6939" stroke-width="1.463616" stroke-linecap="round"></line>
                    <line x1="130.5" y1="8" x2="130.5" y2="4" id="Path-14-Copy-3" stroke="#8D6939" stroke-width="1.463616" stroke-linecap="round"></line>
                    <line x1="182.5" y1="6" x2="182.5" y2="4" id="Path-14-Copy-4" stroke="#8D6939" stroke-width="1.463616" stroke-linecap="round"></line>
                    <line x1="224.5" y1="5" x2="224.5" y2="3" id="Path-14-Copy-5" stroke="#8D6939" stroke-width="1.463616" stroke-linecap="round"></line>
                    <line x1="266.5" y1="5" x2="266.5" y2="3" id="Path-14-Copy-6" stroke="#8D6939" stroke-width="1.463616" stroke-linecap="round"></line>
                    <line x1="183.5" y1="305" x2="183.5" y2="303" id="Path-14-Copy-6" stroke="#8D6939" stroke-width="1.463616" stroke-linecap="round"></line>
                    <line x1="141.5" y1="305" x2="141.5" y2="303" id="Path-14-Copy-6" stroke="#8D6939" stroke-width="1.463616" stroke-linecap="round"></line>
                    <line x1="235.5" y1="304" x2="235.5" y2="302" id="Path-14-Copy-6" stroke="#8D6939" stroke-width="1.463616" stroke-linecap="round"></line>
                    <line x1="270.5" y1="302" x2="270.5" y2="300" id="Path-14-Copy-6" stroke="#8D6939" stroke-width="1.463616" stroke-linecap="round"></line>
                    <line x1="98.5" y1="305" x2="98.5" y2="303" id="Path-14-Copy-6" stroke="#8D6939" stroke-width="1.463616" stroke-linecap="round"></line>
                    <line x1="55.5" y1="304" x2="55.5" y2="302" id="Path-14-Copy-6" stroke="#8D6939" stroke-width="1.463616" stroke-linecap="round"></line>
                    <line x1="20.5" y1="303" x2="20.5" y2="301" id="Path-14-Copy-6" stroke="#8D6939" stroke-width="1.463616" stroke-linecap="round"></line>
                </g>
                <g id="Group-5" transform="translate(28.000000, 423.000000)" stroke="#FFFFFF" stroke-dasharray="0.7" stroke-width="2.8">
                    <line x1="7" y1="55.7439107" x2="20.8887538" y2="1" id="Path-4" transform="translate(13.944377, 28.371955) rotate(165.764187) translate(-13.944377, -28.371955) "></line>
                    <line x1="7" y1="55.7439107" x2="20.8887538" y2="1" id="Path-4" transform="translate(13.944377, 28.371955) rotate(165.764187) translate(-13.944377, -28.371955) "></line>
                </g>
                <g id="Group-5" transform="translate(219.000000, 422.000000)" stroke="#FFFFFF" stroke-dasharray="0.7" stroke-width="2.8">
                    <line x1="7" y1="55.7439107" x2="20.8887538" y2="1" id="Path-4" transform="translate(13.944377, 28.371955) rotate(165.764187) translate(-13.944377, -28.371955) "></line>
                    <line x1="7" y1="55.7439107" x2="20.8887538" y2="1" id="Path-4" transform="translate(13.944377, 28.371955) rotate(165.764187) translate(-13.944377, -28.371955) "></line>
                </g>
            </g>
        </g>
    </g>
</svg>