<?xml version="1.0" encoding="UTF-8"?>
<svg width="294px" height="537px" viewBox="0 0 294 537" version="1.1" xmlns="http://www.w3.org/2000/svg" xmlns:xlink="http://www.w3.org/1999/xlink">
    <!-- Generator: Sketch 59 (86127) - https://sketch.com -->
    <title>Group 3</title>
    <desc>Created with Sketch.</desc>
    <defs>
        <radialGradient cx="86.83964%" cy="213.543127%" fx="86.83964%" fy="213.543127%" r="360.22178%" gradientTransform="translate(0.868396,2.135431),scale(0.506127,1.000000),rotate(90.000000),scale(1.000000,15.233181),translate(-0.868396,-2.135431)" id="radialGradient-1">
            <stop stop-color="#B4610D" offset="0%"></stop>
            <stop stop-color="#F5A656" offset="56.9817684%"></stop>
            <stop stop-color="#C16B14" offset="93.0319725%"></stop>
            <stop stop-color="#000000" offset="100%"></stop>
        </radialGradient>
        <path d="M0,133.428302 C57.2782415,137.098328 102.566553,138.933341 135.864933,138.933341 C169.163314,138.933341 218.68933,137.419099 284.442982,134.390615 L284.442982,138.933341 C218.408294,142.287376 168.882277,143.964393 135.864933,143.964393 C103.651936,143.964393 59.7585637,142.311045 4.18481664,139.004349 C3.25971239,138.949304 1.86477351,138.865706 0,138.753555 L0,133.428302 Z M5.68434189e-14,-5.195235e-13 C57.2782415,3.67002607 102.566553,5.5050391 135.864933,5.5050391 C169.163314,5.5050391 218.68933,3.99079729 284.442982,0.96231367 L284.442982,5.5050391 C218.408294,8.85907407 168.882277,10.5360916 135.864933,10.5360916 C102.847589,10.5360916 57.559278,8.7991455 5.68434189e-14,5.32525338 L5.68434189e-14,-5.195235e-13 Z" id="path-2"></path>
        <filter x="-1.2%" y="-1.7%" width="102.5%" height="104.9%" filterUnits="objectBoundingBox" id="filter-3">
            <feOffset dx="0" dy="1" in="SourceAlpha" result="shadowOffsetOuter1"></feOffset>
            <feGaussianBlur stdDeviation="1" in="shadowOffsetOuter1" result="shadowBlurOuter1"></feGaussianBlur>
            <feColorMatrix values="0 0 0 0 0   0 0 0 0 0   0 0 0 0 0  0 0 0 0.5 0" type="matrix" in="shadowBlurOuter1"></feColorMatrix>
        </filter>
        <linearGradient x1="47.0042155%" y1="45.4871474%" x2="128.963604%" y2="83.7977012%" id="linearGradient-4">
            <stop stop-color="#DDD7DD" offset="0%"></stop>
            <stop stop-color="#D8FAF2" offset="99.9796785%"></stop>
        </linearGradient>
        <path d="M271.579406,4.44894706 C270.007529,11.5229307 269.61456,17.3779932 270.400498,22.0141347 C271.579406,28.9683468 275.040072,43.5878566 275.040072,53.1290717 C275.040072,59.4898818 275.893618,87.2748461 277.600711,136.483965 C266.747996,135.590695 257.901538,136.01558 251.061336,137.758619 C244.221134,139.501658 234.432676,139.985217 221.695962,139.209297 C217.724013,138.242178 211.472843,137.758619 202.94245,137.758619 C194.412057,137.758619 187.745382,138.937421 182.942423,141.295025 C173.251433,139.904539 165.958259,139.209297 161.062904,139.209297 C156.167548,139.209297 149.696371,139.904539 141.649373,141.295025 C131.150471,139.904539 124.602954,139.209297 122.006821,139.209297 L114.637589,139.209297 L114.637589,139.209297 C109.707303,139.209297 105.297877,139.904539 101.409311,141.295025 C91.8101545,139.904539 84.5065585,139.209297 79.4985233,139.209297 C74.4904881,139.209297 65.8507964,139.904539 53.5794481,141.295025 C48.5347921,138.087652 42.5853207,136.483965 35.7310338,136.483965 C28.8767469,136.483965 22.0799265,136.90885 15.3405725,137.758619 C13.5715212,106.842515 12.0230248,87.692938 10.6950832,80.3098871 C8.85953608,70.1046655 9.7694221,54.2688404 13.4247413,32.8024117 L13.4247413,4.44894706 C21.5544948,5.5741375 26.9257126,6.13673273 29.5383949,6.13673273 C32.1510771,6.13673273 37.4357731,5.5741375 45.3924829,4.44894706 C52.4267616,7.37258868 58.1318391,8.83440949 62.5077153,8.83440949 C66.8835916,8.83440949 75.5379706,8.30480588 88.4708524,7.24559868 C97.7590319,9.14847503 104.8762,10.0999132 109.822357,10.0999132 C114.768515,10.0999132 121.957753,9.14847503 131.390074,7.24559868 C138.588736,8.30480588 144.575638,8.83440949 149.350781,8.83440949 C154.125923,8.83440949 164.877847,7.9351839 181.606552,6.13673273 C188.861776,7.75573954 195.638661,8.65496512 201.937206,8.83440949 C211.385022,9.10357604 216.373551,8.96031182 220.52804,7.24559868 C224.682529,5.53088553 225.7989,10.4232203 244.840589,8.83440949 C257.535048,7.77520228 266.447987,6.31338147 271.579406,4.44894706 Z M54.6266299,138.054029 C55.8651825,138.054029 56.8692277,138.955456 56.8692277,140.067422 C56.8692277,141.179389 55.8651825,142.080816 54.6266299,142.080816 C53.3880773,142.080816 52.384032,141.179389 52.384032,140.067422 C52.384032,138.955456 53.3880773,138.054029 54.6266299,138.054029 Z M98.3572879,138.054029 C99.5958405,138.054029 100.599886,138.955456 100.599886,140.067422 C100.599886,141.179389 99.5958405,142.080816 98.3572879,142.080816 C97.1187353,142.080816 96.1146901,141.179389 96.1146901,140.067422 C96.1146901,138.955456 97.1187353,138.054029 98.3572879,138.054029 Z M142.087946,138.054029 C143.326499,138.054029 144.330544,138.955456 144.330544,140.067422 C144.330544,141.179389 143.326499,142.080816 142.087946,142.080816 C140.849393,142.080816 139.845348,141.179389 139.845348,140.067422 C139.845348,138.955456 140.849393,138.054029 142.087946,138.054029 Z M182.454707,138.054029 C183.69326,138.054029 184.697305,138.955456 184.697305,140.067422 C184.697305,141.179389 183.69326,142.080816 182.454707,142.080816 C181.216155,142.080816 180.212109,141.179389 180.212109,140.067422 C180.212109,138.955456 181.216155,138.054029 182.454707,138.054029 Z M235.155757,136.040635 C236.394309,136.040635 237.398355,136.942062 237.398355,138.054029 C237.398355,139.165995 236.394309,140.067422 235.155757,140.067422 C233.917204,140.067422 232.913159,139.165995 232.913159,138.054029 C232.913159,136.942062 233.917204,136.040635 235.155757,136.040635 Z M18.7450643,134.027241 C19.9836169,134.027241 20.9876622,134.928668 20.9876622,136.040635 C20.9876622,137.152602 19.9836169,138.054029 18.7450643,138.054029 C17.5065117,138.054029 16.5024665,137.152602 16.5024665,136.040635 C16.5024665,134.928668 17.5065117,134.027241 18.7450643,134.027241 Z M271.037322,132.013847 C272.275875,132.013847 273.27992,132.915275 273.27992,134.027241 C273.27992,135.139208 272.275875,136.040635 271.037322,136.040635 C269.79877,136.040635 268.794724,135.139208 268.794724,134.027241 C268.794724,132.915275 269.79877,132.013847 271.037322,132.013847 Z M89.3868965,8.47573453 C90.6254491,8.47573453 91.6294944,9.37716161 91.6294944,10.4891283 C91.6294944,11.6010949 90.6254491,12.502522 89.3868965,12.502522 C88.148344,12.502522 87.1442987,11.6010949 87.1442987,10.4891283 C87.1442987,9.37716161 88.148344,8.47573453 89.3868965,8.47573453 Z M130.874957,8.47573453 C132.113509,8.47573453 133.117555,9.37716161 133.117555,10.4891283 C133.117555,11.6010949 132.113509,12.502522 130.874957,12.502522 C129.636404,12.502522 128.632359,11.6010949 128.632359,10.4891283 C128.632359,9.37716161 129.636404,8.47573453 130.874957,8.47573453 Z M222.821469,8.47573453 C224.060021,8.47573453 225.064066,9.37716161 225.064066,10.4891283 C225.064066,11.6010949 224.060021,12.502522 222.821469,12.502522 C221.582916,12.502522 220.578871,11.6010949 220.578871,10.4891283 C220.578871,9.37716161 221.582916,8.47573453 222.821469,8.47573453 Z M181.333408,7.46903767 C182.571961,7.46903767 183.576006,8.37046475 183.576006,9.4824314 C183.576006,10.5943981 182.571961,11.4958251 181.333408,11.4958251 C180.094856,11.4958251 179.09081,10.5943981 179.09081,9.4824314 C179.09081,8.37046475 180.094856,7.46903767 181.333408,7.46903767 Z M44.5349396,6.4623408 C45.7734922,6.4623408 46.7775374,7.36376788 46.7775374,8.47573453 C46.7775374,9.58770119 45.7734922,10.4891283 44.5349396,10.4891283 C43.296387,10.4891283 42.2923417,9.58770119 42.2923417,8.47573453 C42.2923417,7.36376788 43.296387,6.4623408 44.5349396,6.4623408 Z M267.673426,6.4623408 C268.911978,6.4623408 269.916023,7.36376788 269.916023,8.47573453 C269.916023,9.58770119 268.911978,10.4891283 267.673426,10.4891283 C266.434873,10.4891283 265.430828,9.58770119 265.430828,8.47573453 C265.430828,7.36376788 266.434873,6.4623408 267.673426,6.4623408 Z M16.5024665,6.4623408 C17.7410191,6.4623408 18.7450643,7.36376788 18.7450643,8.47573453 C18.7450643,9.58770119 17.7410191,10.4891283 16.5024665,10.4891283 C15.2639139,10.4891283 14.2598686,9.58770119 14.2598686,8.47573453 C14.2598686,7.36376788 15.2639139,6.4623408 16.5024665,6.4623408 Z" id="path-5"></path>
        <filter x="-1.5%" y="-1.5%" width="103.0%" height="105.8%" filterUnits="objectBoundingBox" id="filter-6">
            <feOffset dx="0" dy="2" in="SourceAlpha" result="shadowOffsetOuter1"></feOffset>
            <feGaussianBlur stdDeviation="1" in="shadowOffsetOuter1" result="shadowBlurOuter1"></feGaussianBlur>
            <feColorMatrix values="0 0 0 0 0   0 0 0 0 0   0 0 0 0 0  0 0 0 0.5 0" type="matrix" in="shadowBlurOuter1"></feColorMatrix>
        </filter>
        <radialGradient cx="86.83964%" cy="213.543127%" fx="86.83964%" fy="213.543127%" r="388.020477%" gradientTransform="translate(0.868396,2.135431),scale(1.000000,0.928358),rotate(90.000000),scale(1.000000,15.233181),translate(-0.868396,-2.135431)" id="radialGradient-7">
            <stop stop-color="#B4610D" offset="0%"></stop>
            <stop stop-color="#F5A656" offset="56.9817684%"></stop>
            <stop stop-color="#C16B14" offset="93.0319725%"></stop>
            <stop stop-color="#000000" offset="100%"></stop>
        </radialGradient>
        <path d="M0,298.402468 C56.7054591,301.158227 101.659587,302.549885 134.862385,302.577442 L135.864933,302.57786 C169.163314,302.57786 218.68933,301.429357 284.442982,299.132352 L284.442982,302.57786 C219.068641,305.096346 169.874449,306.368182 136.860406,306.393367 L135.864933,306.393748 C102.847589,306.393748 57.559278,305.076332 0,302.441498 L0,298.402468 Z M5.68434189e-14,-7.90478794e-14 C57.2782415,2.78359445 102.566553,4.17539168 135.864933,4.17539168 C169.163314,4.17539168 218.68933,3.02688891 284.442982,0.729883369 L284.442982,4.17539168 C218.408294,6.71931724 168.882277,7.99128001 135.864933,7.99128001 C102.847589,7.99128001 57.559278,6.67386338 5.68434189e-14,4.0390301 L5.68434189e-14,-7.90478794e-14 Z" id="path-8"></path>
        <filter x="-1.2%" y="-0.8%" width="102.5%" height="102.3%" filterUnits="objectBoundingBox" id="filter-9">
            <feOffset dx="0" dy="1" in="SourceAlpha" result="shadowOffsetOuter1"></feOffset>
            <feGaussianBlur stdDeviation="1" in="shadowOffsetOuter1" result="shadowBlurOuter1"></feGaussianBlur>
            <feColorMatrix values="0 0 0 0 0   0 0 0 0 0   0 0 0 0 0  0 0 0 0.5 0" type="matrix" in="shadowBlurOuter1"></feColorMatrix>
        </filter>
        <linearGradient x1="47.6280892%" y1="32.9109182%" x2="112.519392%" y2="177.983723%" id="linearGradient-10">
            <stop stop-color="#DDD7DD" offset="0%"></stop>
            <stop stop-color="#D8FAF2" offset="99.9796785%"></stop>
        </linearGradient>
        <path d="M271.579406,3.37438049 C270.007529,8.73976514 269.61456,13.1806381 270.400498,16.6969994 C271.579406,21.9715413 275.040072,33.0599602 275.040072,40.296659 C275.040072,47.5333579 272.798879,70.7597361 272.798879,74.9986351 C272.798879,79.2375341 270.557686,105.63991 272.798879,111.07001 C275.040072,116.500109 277.600711,136.655239 277.600711,141.993264 C277.600711,147.331289 270.557686,169.403296 272.798879,176.806669 C274.293008,181.742252 274.293008,194.16158 272.798879,214.064656 C272.060829,235.045004 272.060829,247.543555 272.798879,251.560309 C273.905954,257.585441 270.557686,284.63926 272.798879,287.213896 C274.293008,288.93032 275.893618,293.432384 277.600711,300.720088 C266.747996,300.042573 257.901538,300.364834 251.061336,301.686872 C244.221134,303.00891 234.432676,303.375673 221.695962,302.787163 C217.724013,302.053636 211.472843,301.686872 202.94245,301.686872 C194.412057,301.686872 187.745382,302.580954 182.942423,304.36912 C173.251433,303.314482 165.958259,302.787163 161.062904,302.787163 C156.167548,302.787163 149.696371,303.314482 141.649373,304.36912 C131.150471,303.314482 124.602954,302.787163 122.006821,302.787163 L114.637589,302.787163 L114.637589,302.787163 C109.707303,302.787163 105.297877,303.314482 101.409311,304.36912 C91.8101545,303.314482 84.5065585,302.787163 79.4985233,302.787163 C74.4904881,302.787163 65.8507964,303.314482 53.5794481,304.36912 C48.5347921,301.936432 42.5853207,300.720088 35.7310338,300.720088 C28.8767469,300.720088 22.0799265,301.04235 15.3405725,301.686872 C12.7861309,296.997589 12.1475205,292.807428 13.4247413,289.116387 C15.3405725,283.579827 16.9318871,273.403857 16.9318871,267.459866 C16.9318871,263.497206 15.7628385,255.342643 13.4247413,242.996177 C12.1475205,228.763404 12.1475205,218.790013 13.4247413,213.076005 C15.3405725,204.504992 18.3896766,181.94213 18.3896766,178.286193 C18.3896766,174.630256 16.9318871,155.130768 16.9318871,153.87175 C16.9318871,152.612733 13.4247413,123.447713 13.4247413,118.294413 C13.4247413,113.141113 14.7920097,99.560226 15.3405725,94.9799739 C15.8326055,90.8717204 15.8326055,82.3647758 15.6192434,80.5904452 C15.0610689,75.9486377 12.6869956,69.3121195 10.6950832,60.9124164 C8.85953608,53.1720904 9.7694221,41.1611362 13.4247413,24.8795539 L13.4247413,3.37438049 C21.5544948,4.22780055 26.9257126,4.65451058 29.5383949,4.65451058 C32.1510771,4.65451058 37.4357731,4.22780055 45.3924829,3.37438049 C52.4267616,5.5918668 58.1318391,6.70060996 62.5077153,6.70060996 C66.8835916,6.70060996 75.5379706,6.29892299 88.4708524,5.49554905 C97.7590319,6.93881838 104.8762,7.66045304 109.822357,7.66045304 C114.768515,7.66045304 121.957753,6.93881838 131.390074,5.49554905 C138.588736,6.29892299 144.575638,6.70060996 149.350781,6.70060996 C154.125923,6.70060996 164.877847,6.01857683 181.606552,4.65451058 C188.861776,5.88247416 195.638661,6.56450729 201.937206,6.70060996 C211.385022,6.90476396 216.373551,6.79610275 220.52804,5.49554905 C224.682529,4.19499534 225.7989,7.90567087 244.840589,6.70060996 C257.535048,5.89723602 266.447987,4.78849286 271.579406,3.37438049 Z M54.6266299,300.393996 C55.8651825,300.393996 56.8692277,301.077699 56.8692277,301.921089 C56.8692277,302.764479 55.8651825,303.448182 54.6266299,303.448182 C53.3880773,303.448182 52.384032,302.764479 52.384032,301.921089 C52.384032,301.077699 53.3880773,300.393996 54.6266299,300.393996 Z M98.3572879,300.393996 C99.5958405,300.393996 100.599886,301.077699 100.599886,301.921089 C100.599886,302.764479 99.5958405,303.448182 98.3572879,303.448182 C97.1187353,303.448182 96.1146901,302.764479 96.1146901,301.921089 C96.1146901,301.077699 97.1187353,300.393996 98.3572879,300.393996 Z M142.087946,300.393996 C143.326499,300.393996 144.330544,301.077699 144.330544,301.921089 C144.330544,302.764479 143.326499,303.448182 142.087946,303.448182 C140.849393,303.448182 139.845348,302.764479 139.845348,301.921089 C139.845348,301.077699 140.849393,300.393996 142.087946,300.393996 Z M182.454707,300.393996 C183.69326,300.393996 184.697305,301.077699 184.697305,301.921089 C184.697305,302.764479 183.69326,303.448182 182.454707,303.448182 C181.216155,303.448182 180.212109,302.764479 180.212109,301.921089 C180.212109,301.077699 181.216155,300.393996 182.454707,300.393996 Z M235.155757,298.866903 C236.394309,298.866903 237.398355,299.550606 237.398355,300.393996 C237.398355,301.237386 236.394309,301.921089 235.155757,301.921089 C233.917204,301.921089 232.913159,301.237386 232.913159,300.393996 C232.913159,299.550606 233.917204,298.866903 235.155757,298.866903 Z M18.7450643,297.33981 C19.9836169,297.33981 20.9876622,298.023513 20.9876622,298.866903 C20.9876622,299.710293 19.9836169,300.393996 18.7450643,300.393996 C17.5065117,300.393996 16.5024665,299.710293 16.5024665,298.866903 C16.5024665,298.023513 17.5065117,297.33981 18.7450643,297.33981 Z M271.037322,295.812717 C272.275875,295.812717 273.27992,296.496419 273.27992,297.33981 C273.27992,298.1832 272.275875,298.866903 271.037322,298.866903 C269.79877,298.866903 268.794724,298.1832 268.794724,297.33981 C268.794724,296.496419 269.79877,295.812717 271.037322,295.812717 Z M89.3868965,6.42856676 C90.6254491,6.42856676 91.6294944,7.11226965 91.6294944,7.9556599 C91.6294944,8.79905016 90.6254491,9.48275304 89.3868965,9.48275304 C88.148344,9.48275304 87.1442987,8.79905016 87.1442987,7.9556599 C87.1442987,7.11226965 88.148344,6.42856676 89.3868965,6.42856676 Z M130.874957,6.42856676 C132.113509,6.42856676 133.117555,7.11226965 133.117555,7.9556599 C133.117555,8.79905016 132.113509,9.48275304 130.874957,9.48275304 C129.636404,9.48275304 128.632359,8.79905016 128.632359,7.9556599 C128.632359,7.11226965 129.636404,6.42856676 130.874957,6.42856676 Z M222.821469,6.42856676 C224.060021,6.42856676 225.064066,7.11226965 225.064066,7.9556599 C225.064066,8.79905016 224.060021,9.48275304 222.821469,9.48275304 C221.582916,9.48275304 220.578871,8.79905016 220.578871,7.9556599 C220.578871,7.11226965 221.582916,6.42856676 222.821469,6.42856676 Z M181.333408,5.66502019 C182.571961,5.66502019 183.576006,6.34872308 183.576006,7.19211333 C183.576006,8.03550359 182.571961,8.71920647 181.333408,8.71920647 C180.094856,8.71920647 179.09081,8.03550359 179.09081,7.19211333 C179.09081,6.34872308 180.094856,5.66502019 181.333408,5.66502019 Z M44.5349396,4.90147363 C45.7734922,4.90147363 46.7775374,5.58517651 46.7775374,6.42856676 C46.7775374,7.27195702 45.7734922,7.9556599 44.5349396,7.9556599 C43.296387,7.9556599 42.2923417,7.27195702 42.2923417,6.42856676 C42.2923417,5.58517651 43.296387,4.90147363 44.5349396,4.90147363 Z M267.673426,4.90147363 C268.911978,4.90147363 269.916023,5.58517651 269.916023,6.42856676 C269.916023,7.27195702 268.911978,7.9556599 267.673426,7.9556599 C266.434873,7.9556599 265.430828,7.27195702 265.430828,6.42856676 C265.430828,5.58517651 266.434873,4.90147363 267.673426,4.90147363 Z M16.5024665,4.90147363 C17.7410191,4.90147363 18.7450643,5.58517651 18.7450643,6.42856676 C18.7450643,7.27195702 17.7410191,7.9556599 16.5024665,7.9556599 C15.2639139,7.9556599 14.2598686,7.27195702 14.2598686,6.42856676 C14.2598686,5.58517651 15.2639139,4.90147363 16.5024665,4.90147363 Z" id="path-11"></path>
        <filter x="-1.5%" y="-0.7%" width="103.0%" height="102.7%" filterUnits="objectBoundingBox" id="filter-12">
            <feOffset dx="0" dy="2" in="SourceAlpha" result="shadowOffsetOuter1"></feOffset>
            <feGaussianBlur stdDeviation="1" in="shadowOffsetOuter1" result="shadowBlurOuter1"></feGaussianBlur>
            <feColorMatrix values="0 0 0 0 0   0 0 0 0 0   0 0 0 0 0  0 0 0 0.5 0" type="matrix" in="shadowBlurOuter1"></feColorMatrix>
        </filter>
    </defs>
    <g id="nosotros" stroke="none" stroke-width="1" fill="none" fill-rule="evenodd">
        <g id="Modal001_Iphone11Pro_375x812" transform="translate(-33.000000, -120.000000)">
            <g id="Group-3" transform="translate(35.000000, 120.000000)">
                <g id="Group-2">
                    <g id="Cartel" transform="translate(5.000000, 36.000000)">
                        <g id="Group">
                            <g id="Rectangle-2">
                                <use fill="black" fill-opacity="1" filter="url(#filter-3)" xlink:href="#path-2"></use>
                                <use fill="url(#radialGradient-1)" fill-rule="evenodd" xlink:href="#path-2"></use>
                            </g>
                            <g id="Combined-Shape">
                                <use fill="black" fill-opacity="1" filter="url(#filter-6)" xlink:href="#path-5"></use>
                                <use fill="url(#linearGradient-4)" fill-rule="evenodd" xlink:href="#path-5"></use>
                            </g>
                        </g>
                        <text id="2.-Mejorar-el-panora" font-family="Avenir-Black, Avenir" font-size="16.2792" font-weight="700" letter-spacing="0.519791979" fill="#5F0263">
                            <tspan x="26" y="68.8229017">2. </tspan>
                            <tspan x="46.8339487" y="68.8229017" font-family="Avenir-Medium, Avenir" font-weight="400">Mejorar el panorama digital </tspan>
                            <tspan x="26" y="90.8229017" font-family="Avenir-Medium, Avenir" font-weight="400">mexicano.</tspan>
                        </text>
                        <line x1="17.5" y1="7" x2="17.5" y2="2" id="Path-14" stroke="#8D6939" stroke-width="1.463616" stroke-linecap="round"></line>
                        <line x1="45.5" y1="7" x2="45.5" y2="2" id="Path-14-Copy" stroke="#8D6939" stroke-width="1.463616" stroke-linecap="round"></line>
                        <line x1="89.5" y1="11" x2="89.5" y2="6" id="Path-14-Copy-2" stroke="#8D6939" stroke-width="1.463616" stroke-linecap="round"></line>
                        <line x1="130.5" y1="11" x2="130.5" y2="6" id="Path-14-Copy-3" stroke="#8D6939" stroke-width="1.463616" stroke-linecap="round"></line>
                        <line x1="182.5" y1="7" x2="182.5" y2="5" id="Path-14-Copy-4" stroke="#8D6939" stroke-width="1.463616" stroke-linecap="round"></line>
                        <line x1="224.5" y1="6" x2="224.5" y2="4" id="Path-14-Copy-5" stroke="#8D6939" stroke-width="1.463616" stroke-linecap="round"></line>
                        <line x1="266.5" y1="6" x2="266.5" y2="4" id="Path-14-Copy-6" stroke="#8D6939" stroke-width="1.463616" stroke-linecap="round"></line>
                        <line x1="183.5" y1="142" x2="183.5" y2="140" id="Path-14-Copy-6" stroke="#8D6939" stroke-width="1.463616" stroke-linecap="round"></line>
                        <line x1="141.5" y1="142" x2="141.5" y2="140" id="Path-14-Copy-6" stroke="#8D6939" stroke-width="1.463616" stroke-linecap="round"></line>
                        <line x1="235.5" y1="141" x2="235.5" y2="139" id="Path-14-Copy-6" stroke="#8D6939" stroke-width="1.463616" stroke-linecap="round"></line>
                        <line x1="270.5" y1="138" x2="270.5" y2="136" id="Path-14-Copy-6" stroke="#8D6939" stroke-width="1.463616" stroke-linecap="round"></line>
                        <line x1="98.5" y1="142" x2="98.5" y2="140" id="Path-14-Copy-6" stroke="#8D6939" stroke-width="1.463616" stroke-linecap="round"></line>
                        <line x1="55.5" y1="141" x2="55.5" y2="139" id="Path-14-Copy-6" stroke="#8D6939" stroke-width="1.463616" stroke-linecap="round"></line>
                        <line x1="20.5" y1="139" x2="20.5" y2="137" id="Path-14-Copy-6" stroke="#8D6939" stroke-width="1.463616" stroke-linecap="round"></line>
                    </g>
                    <g id="Cartel" transform="translate(0.000000, 227.000000)">
                        <g id="Group">
                            <g id="Rectangle-2">
                                <use fill="black" fill-opacity="1" filter="url(#filter-9)" xlink:href="#path-8"></use>
                                <use fill="url(#radialGradient-7)" fill-rule="evenodd" xlink:href="#path-8"></use>
                            </g>
                            <g id="Combined-Shape">
                                <use fill="black" fill-opacity="1" filter="url(#filter-12)" xlink:href="#path-11"></use>
                                <use fill="url(#linearGradient-10)" fill-rule="evenodd" xlink:href="#path-11"></use>
                            </g>
                        </g>
                        <line x1="17.5" y1="5" x2="17.5" y2="1" id="Path-14" stroke="#8D6939" stroke-width="1.463616" stroke-linecap="round"></line>
                        <line x1="45.5" y1="5" x2="45.5" y2="1" id="Path-14-Copy" stroke="#8D6939" stroke-width="1.463616" stroke-linecap="round"></line>
                        <line x1="89.5" y1="8" x2="89.5" y2="4" id="Path-14-Copy-2" stroke="#8D6939" stroke-width="1.463616" stroke-linecap="round"></line>
                        <line x1="130.5" y1="8" x2="130.5" y2="4" id="Path-14-Copy-3" stroke="#8D6939" stroke-width="1.463616" stroke-linecap="round"></line>
                        <line x1="182.5" y1="6" x2="182.5" y2="4" id="Path-14-Copy-4" stroke="#8D6939" stroke-width="1.463616" stroke-linecap="round"></line>
                        <line x1="224.5" y1="5" x2="224.5" y2="3" id="Path-14-Copy-5" stroke="#8D6939" stroke-width="1.463616" stroke-linecap="round"></line>
                        <line x1="266.5" y1="5" x2="266.5" y2="3" id="Path-14-Copy-6" stroke="#8D6939" stroke-width="1.463616" stroke-linecap="round"></line>
                        <line x1="183.5" y1="305" x2="183.5" y2="303" id="Path-14-Copy-6" stroke="#8D6939" stroke-width="1.463616" stroke-linecap="round"></line>
                        <line x1="141.5" y1="305" x2="141.5" y2="303" id="Path-14-Copy-6" stroke="#8D6939" stroke-width="1.463616" stroke-linecap="round"></line>
                        <line x1="235.5" y1="304" x2="235.5" y2="302" id="Path-14-Copy-6" stroke="#8D6939" stroke-width="1.463616" stroke-linecap="round"></line>
                        <line x1="270.5" y1="302" x2="270.5" y2="300" id="Path-14-Copy-6" stroke="#8D6939" stroke-width="1.463616" stroke-linecap="round"></line>
                        <line x1="98.5" y1="305" x2="98.5" y2="303" id="Path-14-Copy-6" stroke="#8D6939" stroke-width="1.463616" stroke-linecap="round"></line>
                        <line x1="55.5" y1="304" x2="55.5" y2="302" id="Path-14-Copy-6" stroke="#8D6939" stroke-width="1.463616" stroke-linecap="round"></line>
                        <line x1="20.5" y1="303" x2="20.5" y2="301" id="Path-14-Copy-6" stroke="#8D6939" stroke-width="1.463616" stroke-linecap="round"></line>
                    </g>
                    <g id="Group-5" transform="translate(39.000000, 174.000000)" stroke="#FFFFFF" stroke-dasharray="0.7" stroke-width="2.8">
                        <line x1="7" y1="55.7439107" x2="20.8887538" y2="1" id="Path-4" transform="translate(13.944377, 28.371955) rotate(165.764187) translate(-13.944377, -28.371955) "></line>
                        <line x1="7" y1="55.7439107" x2="20.8887538" y2="1" id="Path-4" transform="translate(13.944377, 28.371955) rotate(165.764187) translate(-13.944377, -28.371955) "></line>
                    </g>
                    <g id="Group-4" transform="translate(230.000000, 174.000000)" stroke="#FFFFFF" stroke-dasharray="0.7" stroke-width="2.8">
                        <line x1="7" y1="55.7439107" x2="20.8887538" y2="1" id="Path-4" transform="translate(13.944377, 28.371955) rotate(165.764187) translate(-13.944377, -28.371955) "></line>
                        <line x1="7" y1="55.7439107" x2="20.8887538" y2="1" id="Path-4" transform="translate(13.944377, 28.371955) rotate(165.764187) translate(-13.944377, -28.371955) "></line>
                    </g>
                    <g id="Group-5" transform="translate(39.000000, 1.000000)" stroke="#FFFFFF" stroke-dasharray="0.7" stroke-width="2.8">
                        <line x1="9.19296113" y1="38.1405704" x2="18.6957927" y2="0.684210526" id="Path-4" transform="translate(13.944377, 19.412390) rotate(165.764187) translate(-13.944377, -19.412390) "></line>
                        <line x1="9.19296113" y1="38.1405704" x2="18.6957927" y2="0.684210526" id="Path-4" transform="translate(13.944377, 19.412390) rotate(165.764187) translate(-13.944377, -19.412390) "></line>
                    </g>
                    <g id="Group-5" transform="translate(230.000000, 0.000000)" stroke="#FFFFFF" stroke-dasharray="0.7" stroke-width="2.8">
                        <line x1="9.19296113" y1="38.1405704" x2="18.6957927" y2="0.684210526" id="Path-4" transform="translate(13.944377, 19.412390) rotate(165.764187) translate(-13.944377, -19.412390) "></line>
                        <line x1="9.19296113" y1="38.1405704" x2="18.6957927" y2="0.684210526" id="Path-4" transform="translate(13.944377, 19.412390) rotate(165.764187) translate(-13.944377, -19.412390) "></line>
                    </g>
                </g>
                <text id="Diseñar-los-roles,-f" font-family="Avenir-Medium, Avenir" font-size="16.2792" font-weight="400" letter-spacing="0.519791979" fill="#5F0263">
                    <tspan x="36" y="322.234405">Diseñar los roles, flujos de </tspan>
                    <tspan x="36" y="344.234405">trabajo y herramientas </tspan>
                    <tspan x="36" y="366.234405">necesarios para consolidar</tspan>
                    <tspan x="36" y="392.261365">un equipo web que </tspan>
                    <tspan x="36" y="414.261365">proporcione continuamente</tspan>
                    <tspan x="36" y="440.288325">soluciones digitales.</tspan>
                </text>
                <text id="VISION:" font-family="Avenir-Black, Avenir" font-size="16.2792" font-weight="700" letter-spacing="0.519791979" fill="#5F0263">
                    <tspan x="34" y="295.196597">VISION:</tspan>
                </text>
            </g>
        </g>
    </g>
</svg>