<svg width="1476" height="608" viewBox="0 0 1476 608" preserveAspectRatio="xMidYMin slice" 
    xmlns="http://www.w3.org/2000/svg">
    <path d="M0 165.805s15.328 4.133 31.964 0l16.638-4.134s19.963-2.065 29.113-6.199c9.151-4.13 26.62-6.198 37.434-8.264 10.814-2.068 39.096-4.133 52.406-9.298 13.31-5.167 34.937-6.2 44.919-8.267 9.982-2.065 44.92-7.23 46.583-10.332 1.665-3.1 3.328-7.23 9.982-6.199 6.655 1.034 11.646-1.032 24.124-6.199 12.477-5.165 14.142-11.364 21.628-10.33 7.487 1.032 9.982-14.182 30.778-8.641l20.797 5.542s31.61-11.366 46.583-14.466c14.973-3.099 34.936-25.829 50.742-39.26 15.805-13.432 39.096-27.895 44.92-30.995l5.821-3.1s13.31-3.099 27.452 0c14.14 3.1 35.77 3.446 42.423-1.376 6.656-4.822 19.133-6.544 38.266 0C641.705 10.829 665.83 0 665.83 0h4.158s38.265 4.63 59.893 29.428c21.629 24.795 49.911 34.093 49.911 34.093s9.982 8.265 13.31 5.165c3.326-3.1 11.645-16.642 44.086-23.3 32.443-6.66 52.407 0 52.407 0s0 1.604 17.468 14.002c17.47 12.398 22.461 28.202 35.77 24.433 13.309-3.769 34.105-5.836 45.752-4.803 11.645 1.034 16.636 2.066 32.44-1.033 15.806-3.1 30.779 4.133 37.434 1.033 6.654-3.099 19.132 4.415 27.45 8.924 8.32 4.508 24.125 22.354 52.407 0 28.283-22.355 64.884 22.07 85.68 34.47 20.796 12.398 30.778 25.828 46.584 33.06l15.805 7.233s12.477 21.696 32.44 10.332l19.965-11.366s24.956 6.2 31.61 3.1 14.973-5.165 22.46-4.131c7.486 1.031 20.795 5.165 29.114 7.23 8.32 2.068 14.142-3.1 23.292-1.032 9.151 2.066 15.805 8.265 18.3 5.165 2.496-3.099 12.435-4.133 12.435-4.133V608H0V165.805z" fill="#48024B" fill-rule="evenodd"/>
</svg>