<svg width="1441" height="714" viewBox="0 0 1441 714" preserveAspectRatio="xMidYMin slice" 
    xmlns="http://www.w3.org/2000/svg">
    <path d="M0 187.911s3.061 5.262 8.279 7.366c5.22 2.103 5.22 1.053 11.929 0 6.71-1.052 8.947-2.833 14.91 1.213 5.966 4.047 11.646 4.21 21.852-4.29 10.206-8.498 13.188-15.862 19.899-15.862 6.709 0 6.709 2.104 24.603 0 17.891-2.105 14.909 2.104 29.074 5.26 14.166 3.156 14.911 4.39 29.077 5.878 14.163 1.487 18.637-6.75 26.092 0 7.456 6.749 8.202 10.348 20.13 11.706 11.929 1.355 16.4 7.669 22.366 10.825 5.963 3.155 6.709 14.73 17.146 11.574 10.439-3.157 18.64-3.157 27.585-7.367 8.946-4.207 17.148-11.573 23.111-10.52 5.966 1.052 6.711 6.313 16.403 6.313 9.691 0 23.857 4.207 29.074-3.156 5.22-7.367 14.911-1.079 24.603-7.906 9.692-6.825 38.768-11.034 46.223-15.243 7.456-4.207 35.04-9.469 42.496-16.835 7.454-7.364 36.53-22.094 49.95-32.617 13.42-10.521 42.495-23.147 46.969-30.513 4.472-7.366 36.53-28.408 47.713-41.036 11.183-12.626 19.384-23.146 29.075-28.408 9.692-5.262 20.13-6.312 29.822-11.573 9.692-5.262 21.62-4.21 34.294-11.573 12.674-7.367 16.4-17.888 32.803-5.262 16.402 12.625 23.857 6.311 32.057 17.887 8.202 11.573 17.148 18.94 26.094 23.146 8.946 4.21 20.129 17.888 34.294 19.992 14.166 2.105 2.983 4.21 16.403 14.73l13.42 10.524s8.945 4.207 16.4 11.573c7.456 7.366 54.424 48.4 90.21 61.025 35.785 12.628 64.114 25.254 74.553 22.097 0 0 21.62 12.625 32.057 13.678 10.438 1.052 17.892 7.366 29.075 9.47 11.183 2.105 17.148 12.654 37.277 12.113l20.13-.54s21.62.07 33.549.561c11.928.492 41.003 12.065 56.66 12.065 15.656 0 20.128 6.314 29.076 0 8.946-6.311 6.709 8.419 23.111 10.523l16.4 2.103s26.095 12.628 34.295 7.366l8.202-5.262s4.472 10.332 21.62 10.954c17.146.622 17.146-6.936 30.566 0 13.42 6.934 26.84 10.09 29.822 9.038 2.98-1.052 10.251.199 10.251.199V714H0V187.911z" fill="#5F0263" fill-rule="evenodd"/>
</svg>