<svg width="250" height="60" viewBox="0 0 250 60" 
    xmlns="http://www.w3.org/2000/svg">
    <g transform="translate(2 2)" fill="none" fill-rule="evenodd">
        <rect stroke="#FBB420" stroke-width="3" width="246" height="56" rx="11"/>
        <path d="M15.892 41V21.344h.078L28.021 41h7.956V13.388h-6.084v19.188h-.078L18.076 13.388H9.808V41h6.084zm40.336.702c2.158 0 4.147-.338 5.967-1.014 1.82-.676 3.393-1.645 4.719-2.906 1.326-1.26 2.36-2.788 3.1-4.582.741-1.794 1.112-3.796 1.112-6.006 0-2.21-.37-4.212-1.112-6.006-.74-1.794-1.774-3.322-3.1-4.582-1.326-1.262-2.9-2.23-4.72-2.906-1.82-.676-3.808-1.014-5.966-1.014-2.158 0-4.147.338-5.967 1.014-1.82.676-3.393 1.645-4.72 2.905-1.325 1.261-2.359 2.789-3.1 4.583-.74 1.794-1.111 3.796-1.111 6.006 0 2.21.37 4.212 1.111 6.006.741 1.794 1.775 3.322 3.1 4.582 1.327 1.262 2.9 2.23 4.72 2.906 1.82.676 3.809 1.014 5.967 1.014zm0-5.616c-1.3 0-2.477-.221-3.53-.663a7.921 7.921 0 01-2.71-1.852 8.174 8.174 0 01-1.736-2.808c-.403-1.08-.604-2.269-.604-3.569 0-1.274.201-2.457.604-3.549a8.137 8.137 0 011.736-2.828 7.921 7.921 0 012.71-1.852c1.053-.442 2.23-.663 3.53-.663 1.3 0 2.476.221 3.53.663a7.921 7.921 0 012.71 1.852 8.137 8.137 0 011.735 2.828c.403 1.092.605 2.275.605 3.549 0 1.3-.202 2.49-.605 3.569a8.174 8.174 0 01-1.735 2.808 7.921 7.921 0 01-2.71 1.852c-1.054.442-2.23.663-3.53.663zm27.466 5.616c1.43 0 2.788-.182 4.075-.546 1.287-.364 2.418-.923 3.393-1.677a8.151 8.151 0 002.32-2.847c.573-1.144.859-2.483.859-4.017 0-1.612-.312-2.899-.936-3.861a7.248 7.248 0 00-2.36-2.301 12.615 12.615 0 00-3.061-1.326 81.635 81.635 0 01-3.062-.936c-.949-.312-1.735-.689-2.36-1.131-.623-.442-.935-1.079-.935-1.911 0-.52.13-.962.39-1.326a2.89 2.89 0 011.014-.878 5.231 5.231 0 011.326-.487 6.285 6.285 0 011.365-.156c.754 0 1.553.15 2.398.448.845.3 1.515.761 2.009 1.385l4.173-4.563a10.434 10.434 0 00-3.94-2.223 15.488 15.488 0 00-4.523-.663c-1.352 0-2.665.188-3.94.566-1.273.377-2.398.942-3.373 1.696a8.46 8.46 0 00-2.34 2.808c-.585 1.118-.877 2.418-.877 3.9 0 1.534.318 2.769.955 3.705a7.519 7.519 0 002.399 2.262 14.011 14.011 0 003.12 1.365c1.118.338 2.158.676 3.12 1.014.962.338 1.761.748 2.398 1.229.637.48.956 1.137.956 1.969 0 .494-.124.923-.37 1.287a2.944 2.944 0 01-.976.897 4.89 4.89 0 01-1.365.526 6.662 6.662 0 01-1.501.176 6.735 6.735 0 01-2.945-.682 6.32 6.32 0 01-2.36-1.931l-4.328 4.758c1.326 1.222 2.756 2.106 4.29 2.652 1.534.546 3.198.819 4.992.819zm29.806 0c2.158 0 4.147-.338 5.967-1.014 1.82-.676 3.393-1.645 4.719-2.906 1.326-1.26 2.36-2.788 3.1-4.582.741-1.794 1.112-3.796 1.112-6.006 0-2.21-.37-4.212-1.112-6.006-.74-1.794-1.774-3.322-3.1-4.582-1.326-1.262-2.9-2.23-4.72-2.906-1.82-.676-3.808-1.014-5.966-1.014-2.158 0-4.147.338-5.967 1.014-1.82.676-3.393 1.645-4.72 2.905-1.325 1.261-2.359 2.789-3.1 4.583-.74 1.794-1.111 3.796-1.111 6.006 0 2.21.37 4.212 1.111 6.006.741 1.794 1.775 3.322 3.1 4.582 1.327 1.262 2.9 2.23 4.72 2.906 1.82.676 3.809 1.014 5.967 1.014zm0-5.616c-1.3 0-2.477-.221-3.53-.663a7.921 7.921 0 01-2.71-1.852 8.174 8.174 0 01-1.736-2.808c-.403-1.08-.604-2.269-.604-3.569 0-1.274.201-2.457.604-3.549a8.137 8.137 0 011.736-2.828 7.921 7.921 0 012.71-1.852c1.053-.442 2.23-.663 3.53-.663 1.3 0 2.476.221 3.53.663a7.921 7.921 0 012.71 1.852 8.137 8.137 0 011.735 2.828c.403 1.092.605 2.275.605 3.549 0 1.3-.202 2.49-.605 3.569a8.174 8.174 0 01-1.735 2.808 7.921 7.921 0 01-2.71 1.852c-1.054.442-2.23.663-3.53.663zM145.178 41V18.77h7.878v-5.382h-21.84v5.382h7.878V41h6.084zm18.262 0V29.963h3.003L172.215 41h7.293l-7.02-11.661c1.95-.364 3.432-1.229 4.446-2.593 1.014-1.365 1.52-3.023 1.52-4.973 0-1.612-.279-2.957-.838-4.037-.559-1.079-1.313-1.937-2.262-2.574-.949-.637-2.054-1.092-3.315-1.365a18.855 18.855 0 00-3.997-.409h-10.686V41h6.084zm3.588-16.185h-3.588v-6.279h3.978c.546 0 1.105.039 1.677.117a4.844 4.844 0 011.52.449c.443.22.807.539 1.093.955.286.416.429.975.429 1.677 0 .754-.163 1.339-.488 1.755a2.867 2.867 0 01-1.228.916 5.436 5.436 0 01-1.658.351c-.61.04-1.19.059-1.735.059zm30.235 16.887c2.158 0 4.147-.338 5.967-1.014 1.82-.676 3.393-1.645 4.719-2.906 1.326-1.26 2.36-2.788 3.1-4.582.741-1.794 1.112-3.796 1.112-6.006 0-2.21-.37-4.212-1.112-6.006-.74-1.794-1.774-3.322-3.1-4.582-1.326-1.262-2.9-2.23-4.72-2.906-1.82-.676-3.808-1.014-5.966-1.014-2.158 0-4.147.338-5.967 1.014-1.82.676-3.393 1.645-4.72 2.905-1.325 1.261-2.359 2.789-3.1 4.583-.74 1.794-1.111 3.796-1.111 6.006 0 2.21.37 4.212 1.111 6.006.741 1.794 1.775 3.322 3.1 4.582 1.327 1.262 2.9 2.23 4.72 2.906 1.82.676 3.809 1.014 5.967 1.014zm0-5.616c-1.3 0-2.477-.221-3.53-.663a7.921 7.921 0 01-2.71-1.852 8.174 8.174 0 01-1.736-2.808c-.403-1.08-.604-2.269-.604-3.569 0-1.274.201-2.457.604-3.549a8.137 8.137 0 011.736-2.828 7.921 7.921 0 012.71-1.852c1.053-.442 2.23-.663 3.53-.663 1.3 0 2.476.221 3.53.663a7.921 7.921 0 012.71 1.852 8.137 8.137 0 011.735 2.828c.403 1.092.605 2.275.605 3.549 0 1.3-.202 2.49-.605 3.569a8.174 8.174 0 01-1.735 2.808 7.921 7.921 0 01-2.71 1.852c-1.054.442-2.23.663-3.53.663zm27.465 5.616c1.43 0 2.789-.182 4.076-.546 1.287-.364 2.418-.923 3.393-1.677a8.151 8.151 0 002.32-2.847c.572-1.144.858-2.483.858-4.017 0-1.612-.312-2.899-.936-3.861a7.248 7.248 0 00-2.359-2.301 12.615 12.615 0 00-3.062-1.326 81.635 81.635 0 01-3.061-.936c-.949-.312-1.736-.689-2.36-1.131-.624-.442-.936-1.079-.936-1.911 0-.52.13-.962.39-1.326a2.89 2.89 0 011.014-.878 5.231 5.231 0 011.326-.487 6.285 6.285 0 011.365-.156c.754 0 1.554.15 2.399.448.845.3 1.514.761 2.008 1.385l4.173-4.563a10.434 10.434 0 00-3.939-2.223 15.488 15.488 0 00-4.524-.663c-1.352 0-2.665.188-3.939.566-1.274.377-2.398.942-3.373 1.696a8.46 8.46 0 00-2.34 2.808c-.585 1.118-.878 2.418-.878 3.9 0 1.534.319 2.769.956 3.705a7.519 7.519 0 002.398 2.262 14.011 14.011 0 003.12 1.365c1.118.338 2.158.676 3.12 1.014.962.338 1.762.748 2.399 1.229.637.48.955 1.137.955 1.969 0 .494-.123.923-.37 1.287a2.944 2.944 0 01-.975.897 4.89 4.89 0 01-1.365.526 6.662 6.662 0 01-1.502.176 6.735 6.735 0 01-2.944-.682 6.32 6.32 0 01-2.36-1.931l-4.329 4.758c1.326 1.222 2.756 2.106 4.29 2.652 1.534.546 3.198.819 4.992.819z" fill="#FFF" fill-rule="nonzero"/>
        <ellipse fill="#FFF" cx="114.5" cy="27" rx="13.5" ry="13"/>
    </g>
</svg>