<svg viewBox="0 0 1440 506" version="1.1" 
    xmlns="http://www.w3.org/2000/svg" 
    xmlns:xlink="http://www.w3.org/1999/xlink">
    <defs>
        <polygon id="path-1" points="0 0 1441 0 1441 506 0 506"></polygon>
    </defs>
    <g id="Home-" stroke="none" stroke-width="1" fill="none" fill-rule="evenodd" opacity="0.994721912">
        <g id="Selección-" transform="translate(0.000000, -310.000000)">
            <g id="Fondo" transform="translate(-72.000000, 0.000000)">
                <g id="Popocatepetl" transform="translate(72.000000, 310.000000)">
                    <mask id="mask-2" fill="white">
                        <use xlink:href="#path-1"></use>
                    </mask>
                    <g id="Clip-2"></g>
                    <path d="M0,187.911024 C0,187.911024 3.06128721,193.172647 8.27904767,195.277296 C13.4984837,197.37958 13.4984837,196.329621 20.2075116,195.277296 C26.9182151,194.224972 29.1551163,192.444296 35.1185105,196.490425 C41.0835802,200.536554 46.7638012,200.699724 56.9697674,192.200725 C67.1757337,183.701726 70.1582686,176.337819 76.8689721,176.337819 C83.578,176.337819 83.578,178.442468 101.471534,176.337819 C119.363392,174.23317 116.380857,178.442468 130.546222,181.597077 C144.711587,184.75405 145.457221,185.988463 159.622586,187.475906 C173.786276,188.963349 178.260078,180.72684 185.71474,187.475906 C193.171077,194.224972 193.91671,197.824158 205.845174,199.181538 C217.773638,200.536554 222.245765,206.850502 228.210835,210.007475 C234.174229,213.162084 234.919863,224.737654 245.357059,221.580681 C255.795931,218.423707 263.996227,218.423707 272.942156,214.214409 C281.888085,210.007475 290.090056,202.641203 296.05345,203.693528 C302.01852,204.745852 302.764153,210.007475 312.455716,210.007475 C322.147279,210.007475 336.312644,214.214409 341.530405,206.850502 C346.749841,199.48423 356.441403,205.772164 366.132966,198.945061 C375.824529,192.120322 404.900893,187.911024 412.355555,183.701726 C419.811892,179.494792 447.395313,174.23317 454.85165,166.866898 C462.306312,159.50299 491.382676,144.772811 504.802407,134.249565 C518.222138,123.728685 547.296827,111.103155 551.770629,103.736883 C556.242756,96.3706106 588.301655,75.3288488 599.484485,62.700954 C610.667315,50.0754239 618.86761,39.554543 628.559173,34.2929202 C638.250736,29.0312974 648.689608,27.9813376 658.381171,22.7197147 C668.072734,17.4580919 680.001198,18.5104165 692.675295,11.1465093 C705.349393,3.78023729 709.075886,-6.74064362 725.478152,5.88488642 C741.880419,18.5104165 749.33508,12.1964691 757.535376,23.7720393 C765.737347,35.3452448 774.683276,42.7115167 783.629205,46.9184502 C792.575134,51.1277485 803.757964,64.8056031 817.923329,66.9102523 C832.088694,69.0149014 820.905864,71.1195505 834.325595,81.6404314 L847.745327,92.1636771 C847.745327,92.1636771 856.691256,96.3706106 864.145917,103.736883 C871.602255,111.103155 918.570477,152.136718 954.355869,164.762248 C990.14126,177.390143 1018.47032,190.015673 1028.90919,186.8587 C1028.90919,186.8587 1050.52921,199.48423 1060.96641,200.536554 C1071.40361,201.588879 1078.85827,207.902826 1090.0411,210.007475 C1101.22393,212.112124 1107.189,222.661383 1127.31776,222.119849 L1147.44819,221.580681 C1147.44819,221.580681 1169.06822,221.649259 1180.99668,222.141132 C1192.92515,222.633005 1221.99984,234.206211 1237.65647,234.206211 C1253.3131,234.206211 1257.78523,240.520158 1266.73283,234.206211 C1275.67876,227.894628 1273.44186,242.624807 1289.84413,244.729456 L1306.24472,246.831741 C1306.24472,246.831741 1332.33855,259.459636 1340.53884,254.198013 L1348.74081,248.93639 C1348.74081,248.93639 1353.21294,259.268089 1370.36084,259.890025 C1387.50706,260.51196 1387.50706,252.954142 1400.9268,259.890025 C1414.34653,266.823543 1427.76626,269.980517 1430.74879,268.928192 C1433.72965,267.875867 1441,269.126833 1441,269.126833 L1441,714 L0,714 L0,187.911024 Z" id="Fill-1" fill="#5F0263" mask="url(#mask-2)"></path>
                </g>
            </g>
        </g>
    </g>
</svg>