<svg width="248" height="58" viewBox="0 0 248 58" xmlns="http://www.w3.org/2000/svg"><g transform="translate(1 1)" fill="none" fill-rule="evenodd"><rect stroke="#FBB420" stroke-width="2" width="246" height="56" rx="11"/><path d="M20.98 41v-9.66h3.99c1.307 0 2.52-.122 3.64-.367s2.088-.66 2.905-1.243c.817-.583 1.458-1.365 1.925-2.345.467-.98.7-2.193.7-3.64 0-1.47-.25-2.69-.752-3.658s-1.179-1.738-2.03-2.31c-.852-.571-1.85-.974-2.993-1.207a18.18 18.18 0 00-3.64-.35H15.52V41h5.46zm3.64-14.28h-3.64v-5.88h2.8c.513 0 1.05.03 1.61.087.56.059 1.067.193 1.523.403.454.21.828.508 1.12.893.291.385.437.892.437 1.522 0 .583-.11 1.067-.332 1.453a2.52 2.52 0 01-.876.91c-.361.221-.77.379-1.224.472-.456.093-.928.14-1.418.14zM44.124 41v-9.905h2.695L51.999 41h6.545l-6.3-10.465c1.75-.327 3.08-1.102 3.99-2.328.91-1.224 1.365-2.712 1.365-4.462 0-1.447-.25-2.654-.753-3.623-.501-.968-1.178-1.738-2.03-2.31-.851-.571-1.843-.98-2.975-1.225a16.921 16.921 0 00-3.587-.367h-9.59V41h5.46zm3.22-14.525h-3.22V20.84h3.57c.49 0 .992.035 1.505.105.513.07.968.204 1.365.402.397.199.723.485.98.858s.385.875.385 1.505c0 .677-.146 1.202-.438 1.575-.291.373-.659.648-1.102.823-.443.174-.94.28-1.488.314-.548.035-1.067.053-1.557.053zM74.478 41.63c1.936 0 3.721-.303 5.355-.91 1.633-.607 3.045-1.476 4.235-2.608 1.19-1.131 2.117-2.502 2.782-4.112.665-1.61.998-3.407.998-5.39 0-1.983-.333-3.78-.998-5.39-.665-1.61-1.592-2.98-2.782-4.112-1.19-1.132-2.602-2.001-4.235-2.608-1.634-.607-3.419-.91-5.355-.91-1.937 0-3.722.303-5.355.91-1.634.607-3.045 1.476-4.235 2.608-1.19 1.131-2.118 2.502-2.783 4.112-.665 1.61-.997 3.407-.997 5.39 0 1.983.332 3.78.997 5.39.665 1.61 1.593 2.98 2.783 4.112 1.19 1.132 2.601 2.001 4.235 2.608 1.633.607 3.418.91 5.355.91zm0-5.04c-1.167 0-2.223-.198-3.168-.595a7.109 7.109 0 01-2.432-1.662 7.335 7.335 0 01-1.558-2.52c-.361-.969-.542-2.036-.542-3.203 0-1.143.18-2.205.542-3.185.362-.98.881-1.826 1.558-2.538a7.109 7.109 0 012.432-1.662c.945-.397 2.001-.595 3.168-.595 1.166 0 2.222.198 3.167.595.945.397 1.756.95 2.433 1.662a7.303 7.303 0 011.557 2.538c.362.98.543 2.042.543 3.185 0 1.167-.181 2.234-.543 3.203a7.335 7.335 0 01-1.557 2.52 7.109 7.109 0 01-2.433 1.662c-.945.397-2 .595-3.167.595zM104.202 41V30.43l9.31-14.21h-6.475l-5.565 9.275-5.25-9.275h-6.79l9.31 14.21V41h5.46zm29.899 0v-5.04h-12.005v-5.04h10.745v-5.04h-10.745v-4.62h11.375v-5.04h-16.835V41H134.1zm17.509.63c1.703 0 3.36-.35 4.97-1.05 1.61-.7 2.94-1.785 3.99-3.255l-4.55-3.395a5.921 5.921 0 01-2.135 1.96c-.864.467-1.855.7-2.975.7-.98 0-1.896-.198-2.748-.595a6.742 6.742 0 01-2.222-1.662 7.959 7.959 0 01-1.488-2.52c-.362-.969-.542-2.036-.542-3.203 0-1.143.18-2.205.542-3.185.362-.98.863-1.826 1.505-2.538a6.825 6.825 0 012.275-1.662 6.827 6.827 0 012.853-.595c1.026 0 1.93.175 2.712.525.782.35 1.44.852 1.978 1.505l4.2-3.43a8.422 8.422 0 00-1.82-1.715 9.982 9.982 0 00-2.118-1.12 11.82 11.82 0 00-2.24-.612 13.113 13.113 0 00-2.187-.193c-1.937 0-3.722.303-5.355.91-1.634.607-3.045 1.476-4.235 2.608-1.19 1.131-2.118 2.502-2.783 4.112-.665 1.61-.997 3.407-.997 5.39 0 1.983.332 3.78.997 5.39.665 1.61 1.593 2.98 2.783 4.112 1.19 1.132 2.601 2.001 4.235 2.608 1.633.607 3.418.91 5.355.91zm23.283-.63V21.05h7.07v-4.83h-19.6v4.83h7.07V41h5.46zm22.97.63c1.936 0 3.721-.303 5.354-.91 1.634-.607 3.045-1.476 4.235-2.608 1.19-1.131 2.118-2.502 2.783-4.112.665-1.61.997-3.407.997-5.39 0-1.983-.332-3.78-.997-5.39-.665-1.61-1.593-2.98-2.783-4.112-1.19-1.132-2.601-2.001-4.235-2.608-1.633-.607-3.418-.91-5.355-.91-1.936 0-3.721.303-5.355.91-1.633.607-3.045 1.476-4.235 2.608-1.19 1.131-2.117 2.502-2.782 4.112-.665 1.61-.998 3.407-.998 5.39 0 1.983.333 3.78.998 5.39.665 1.61 1.592 2.98 2.782 4.112 1.19 1.132 2.602 2.001 4.235 2.608 1.634.607 3.419.91 5.355.91zm0-5.04c-1.167 0-2.223-.198-3.168-.595a7.109 7.109 0 01-2.433-1.662 7.335 7.335 0 01-1.557-2.52c-.362-.969-.543-2.036-.543-3.203 0-1.143.181-2.205.543-3.185.362-.98.88-1.826 1.557-2.538a7.109 7.109 0 012.433-1.662c.945-.397 2-.595 3.167-.595 1.167 0 2.223.198 3.168.595.945.397 1.756.95 2.432 1.662a7.303 7.303 0 011.558 2.538c.362.98.542 2.042.542 3.185 0 1.167-.18 2.234-.542 3.203a7.335 7.335 0 01-1.558 2.52 7.109 7.109 0 01-2.432 1.662c-.945.397-2.001.595-3.168.595zm24.648 5.04c1.284 0 2.503-.163 3.658-.49 1.155-.327 2.17-.828 3.045-1.505a7.315 7.315 0 002.082-2.555c.514-1.027.77-2.228.77-3.605 0-1.447-.28-2.602-.84-3.465a6.505 6.505 0 00-2.117-2.065 11.32 11.32 0 00-2.748-1.19c-.98-.28-1.896-.56-2.747-.84-.852-.28-1.558-.618-2.118-1.015-.56-.397-.84-.968-.84-1.715 0-.467.117-.863.35-1.19.234-.327.537-.59.91-.788.374-.198.77-.344 1.19-.437a5.64 5.64 0 011.225-.14c.677 0 1.394.134 2.153.402.758.269 1.359.683 1.802 1.243l3.745-4.095a9.364 9.364 0 00-3.535-1.995 13.9 13.9 0 00-4.06-.595c-1.213 0-2.391.17-3.535.508-1.143.338-2.152.845-3.027 1.522a7.593 7.593 0 00-2.1 2.52c-.525 1.003-.788 2.17-.788 3.5 0 1.377.286 2.485.858 3.325a6.748 6.748 0 002.152 2.03c.864.513 1.797.922 2.8 1.225 1.004.303 1.937.607 2.8.91.864.303 1.581.67 2.153 1.103.571.431.857 1.02.857 1.767 0 .443-.11.828-.332 1.155a2.642 2.642 0 01-.875.805 4.39 4.39 0 01-1.225.472 5.979 5.979 0 01-1.348.158c-.91 0-1.79-.204-2.642-.613a5.671 5.671 0 01-2.118-1.732l-3.885 4.27c1.19 1.097 2.474 1.89 3.85 2.38 1.377.49 2.87.735 4.48.735z" fill="#FFF" fill-rule="nonzero"/><circle fill="#FFF" cx="199" cy="29" r="10"/></g></svg>