<?xml version="1.0" encoding="UTF-8"?>
<svg width="192px" height="74px" viewBox="0 0 192 74" version="1.1" xmlns="http://www.w3.org/2000/svg" xmlns:xlink="http://www.w3.org/1999/xlink">
    <!-- Generator: Sketch 59 (86127) - https://sketch.com -->
    <title>RedesSociales Copy 2</title>
    <desc>Created with Sketch.</desc>
    <g id="contacto" stroke="none" stroke-width="1" fill="none" fill-rule="evenodd">
        <g id="Iphone11Pro_375x812_001" transform="translate(-103.000000, -391.000000)" fill="#49034C" fill-rule="nonzero">
            <g id="RedesSociales-Copy-2" transform="translate(103.000000, 391.000000)">
                <g id="dribble-big-logo" transform="translate(52.000000, 50.000000)">
                    <path d="M12.0119746,24.024 C5.3883397,24.024 0,18.6346166 0,12.0113655 C0,5.38933261 5.3883397,0 12.0119746,0 C18.6356095,0 24.024,5.38933261 24.024,12.0113655 C24.024,18.6346166 18.6356095,24.024 12.0119746,24.024 Z M21.6118803,13.5700582 C21.2795819,13.4664533 18.6024152,12.6665484 15.5558985,13.1539635 C16.8275856,16.6483063 17.3453458,19.4962987 17.4446242,20.0865572 C19.6257541,18.6116723 21.1790854,16.2756637 21.6118803,13.5700582 Z M15.8105404,20.9774781 C15.6650235,20.1245271 15.100568,17.1507468 13.7354394,13.6041194 C13.7148832,13.6112768 13.693515,13.6175713 13.6713347,13.6254901 C8.18808166,15.5350994 6.21941555,19.3404599 6.04420645,19.6980769 C7.69209576,20.9830111 9.76445602,21.7500731 12.0119746,21.7500731 C13.3584759,21.7500731 14.642852,21.473878 15.8105404,20.9774781 Z M4.7887104,18.5278645 C5.00858463,18.1504503 7.67742732,13.7322422 12.6915951,12.1111125 C12.8185354,12.0699446 12.9462878,12.0319748 13.0744463,11.99634 C12.8307676,11.4429345 12.5654161,10.8914072 12.2862083,10.3455145 C7.43105856,11.798978 2.71954776,11.7388252 2.29345263,11.7293835 C2.29066106,11.8282676 2.28913838,11.9275577 2.28913838,12.0264417 C2.28913838,14.5242791 3.23568373,16.8041958 4.7887104,18.5278645 Z M2.49439493,10.0353598 C2.92957536,10.040842 6.9350219,10.0574919 11.4832005,8.85088325 C9.87246441,5.98629172 8.13473729,3.57820132 7.87801434,3.22774165 C5.15811129,4.51023926 3.12452847,7.01802589 2.49439493,10.0353598 Z M9.73359648,2.5745892 C10.0025516,2.934186 11.7682959,5.33872307 13.3616227,8.26656384 C16.8195662,6.96904073 18.282349,5.00323814 18.4568475,4.75475899 C16.7401333,3.23012746 14.4822098,2.30479008 12.0119239,2.30479008 C11.2272388,2.30479008 10.4645818,2.39814108 9.73359648,2.5745892 Z M19.5378958,5.87791522 C19.3334006,6.15568394 17.7033266,8.24443168 14.1087992,9.71094092 C14.3351194,10.1754116 14.551796,10.6469383 14.7543625,11.12014 C14.8252176,11.2886693 14.8951592,11.455625 14.9632227,11.6217684 C18.1985004,11.2150647 21.4128667,11.8666435 21.7344556,11.9354765 C21.7126813,9.64053426 20.892721,7.53310617 19.5378958,5.87791522 Z" id="Shape"></path>
                </g>
                <g id="facebook-logo">
                    <path d="M12.4488682,0.00490246871 L9.34611003,0 C5.86026762,0 3.60756312,2.2759711 3.60756312,5.79863999 L3.60756312,8.4722013 L0.487878543,8.4722013 C0.218300756,8.4722013 0,8.68741968 0,8.95288836 L0,12.826574 C0,13.0920427 0.218549674,13.3070159 0.487878543,13.3070159 L3.60756312,13.3070159 L3.60756312,23.0815581 C3.60756312,23.3470267 3.82586388,23.562 4.09544167,23.562 L8.16574265,23.562 C8.43532044,23.562 8.6536212,23.3467816 8.6536212,23.0815581 L8.6536212,13.3070159 L12.3012601,13.3070159 C12.5708378,13.3070159 12.7891386,13.0920427 12.7891386,12.826574 L12.7906321,8.95288836 C12.7906321,8.82542418 12.7391062,8.7033527 12.6477534,8.61314728 C12.5564006,8.52294186 12.4319418,8.4722013 12.3025046,8.4722013 L8.6536212,8.4722013 L8.6536212,6.20579002 C8.6536212,5.11646147 8.91722496,4.563463 10.3582091,4.563463 L12.4483704,4.56272763 C12.7176992,4.56272763 12.936,4.34750925 12.936,4.0822857 L12.936,0.485344402 C12.936,0.220365969 12.7179482,0.00539271558 12.4488682,0.00490246871 Z" id="Path"></path>
                </g>
                <g id="instagram-logo" transform="translate(168.000000, 0.000000)">
                    <path d="M16.9654716,0 L6.4662444,0 C2.9007594,0 0,2.900898 0,6.466383 L0,16.9656102 C0,20.5312338 2.9007594,23.4319932 6.4662444,23.4319932 L16.9654716,23.4319932 C20.5312338,23.4319932 23.4319932,20.5310952 23.4319932,16.9656102 L23.4319932,6.466383 C23.4319932,2.900898 20.5312338,0 16.9654716,0 Z M21.3531318,16.9656102 C21.3531318,19.3848732 19.3848732,21.3529932 16.9656102,21.3529932 L6.4662444,21.3529932 C4.04712,21.3529932 2.079,19.3848732 2.079,16.9656102 L2.079,6.466383 C2.079,4.0472586 4.04712,2.079 6.4662444,2.079 L16.9654716,2.079 C19.3847346,2.079 21.3531318,4.0472586 21.3531318,6.466383 L21.3531318,16.9656102 L21.3531318,16.9656102 Z" id="Shape"></path>
                    <path d="M11.7159966,5.678442 C8.386686,5.678442 5.6781648,8.3869632 5.6781648,11.7162738 C5.6781648,15.0454458 8.386686,17.7538284 11.7159966,17.7538284 C15.0453072,17.7538284 17.7538284,15.0454458 17.7538284,11.7162738 C17.7538284,8.3869632 15.0453072,5.678442 11.7159966,5.678442 Z M11.7159966,15.6746898 C9.5331852,15.6746898 7.7571648,13.8989466 7.7571648,11.7161352 C7.7571648,9.5331852 9.5330466,7.7573034 11.7159966,7.7573034 C13.8989466,7.7573034 15.6748284,9.5331852 15.6748284,11.7161352 C15.6748284,13.8989466 13.898808,15.6746898 11.7159966,15.6746898 Z" id="Shape"></path>
                    <path d="M18.0070506,3.9155886 C17.6064966,3.9155886 17.2130112,4.0777506 16.9301286,4.3618806 C16.64586,4.6446246 16.4824506,5.0382486 16.4824506,5.4401886 C16.4824506,5.8408812 16.6459986,6.2343666 16.9301286,6.5184966 C17.2128726,6.8012406 17.6064966,6.9647886 18.0070506,6.9647886 C18.4089906,6.9647886 18.8012286,6.8012406 19.0853586,6.5184966 C19.3694886,6.2343666 19.5316506,5.8407426 19.5316506,5.4401886 C19.5316506,5.0382486 19.3694886,4.6446246 19.0853586,4.3618806 C18.8026146,4.0777506 18.4089906,3.9155886 18.0070506,3.9155886 Z" id="Path"></path>
                </g>
                <g id="linkedin-letters" transform="translate(110.000000, 0.000000)">
                    <rect id="Rectangle" x="0" y="7.854" width="5.544" height="15.708"></rect>
                    <path d="M22.8126409,9.20215883 C21.69735,7.99546075 20.2222423,7.392 18.3882196,7.392 C17.7124855,7.392 17.0982329,7.47438658 16.5457438,7.63927145 C15.9934237,7.80404461 15.52693,8.03522973 15.146037,8.33293852 C14.7653696,8.63064731 14.462188,8.90701938 14.2371124,9.16205472 C14.023082,9.40429919 13.8137853,9.6864802 13.6095605,10.0056933 L13.6095605,7.75852253 L8.316,7.75852253 L8.33222979,8.52407539 C8.34310601,9.03453705 8.34845958,10.6078694 8.34845958,13.2442958 C8.34845958,15.8809456 8.33775243,19.3200686 8.31622541,23.562 L13.6095605,23.562 L13.6095605,14.743173 C13.6095605,14.2010972 13.6682244,13.7706203 13.7864539,13.4514072 C14.0118677,12.9089405 14.3520734,12.454781 14.8081982,12.0881467 C15.2642666,11.7210657 15.8298861,11.5376927 16.5058456,11.5376927 C17.4280133,11.5376927 18.1066778,11.8539454 18.5411628,12.4865068 C18.9754788,13.1190123 19.1926649,13.993483 19.1926649,15.1098072 L19.1926649,23.5614973 L24.486,23.5614973 L24.486,14.504224 C24.4856055,12.1757279 23.92827,10.4084659 22.8126409,9.20215883 Z" id="Path"></path>
                    <path d="M3.01905053,0 C2.12100481,0 1.39334671,0.262266858 0.835905692,0.786289553 C0.278521525,1.31042581 0,1.97214002 0,2.77205678 C0,3.56078787 0.27050529,4.22023089 0.811572724,4.74964769 C1.3524696,5.27912126 2.0667673,5.544 2.95406786,5.544 L2.98653077,5.544 C3.89560593,5.544 4.62883559,5.27934838 5.1860492,4.74964769 C5.74326281,4.22023089 6.01644018,3.56101499 6.00569501,2.77205678 C5.99489299,1.9721968 5.71875928,1.31042581 5.1778624,0.786289553 C4.63702238,0.262039738 3.91715311,0 3.01905053,0 Z" id="Path"></path>
                </g>
                <g id="youtube" transform="translate(106.000000, 51.000000)">
                    <path d="M12.3711332,6.1509725 C12.0020216,5.95087184 11.5657383,5.95833989 11.2039424,6.17074099 C10.8419248,6.38336172 10.626,6.75896236 10.626,7.17585717 L10.626,14.0763663 C10.626,14.4912843 10.8405946,14.866226 11.2001737,15.0790664 C11.387944,15.1902091 11.5961096,15.246 11.8047187,15.246 C11.9958143,15.246 12.1873533,15.1992147 12.3635959,15.1052047 L18.7832565,11.6850421 C19.1643393,11.4818663 19.4022113,11.0893526 19.404,10.6603771 C19.4055366,10.2314016 19.1705466,9.8371307 18.7905722,9.63109948 L12.3711332,6.1509725 Z M12.3287907,13.2083115 L12.3287907,8.05094084 L17.126577,10.6520304 L12.3287907,13.2083115 Z" id="Shape"></path>
                    <path d="M28.433114,5.12491171 L28.4318028,5.1117883 C28.4075455,4.88103493 28.1660646,2.82853306 27.1691093,1.78456553 C26.0167757,0.556651443 24.7103752,0.407482004 24.082088,0.335959386 C24.0300767,0.330053836 23.9824361,0.324585761 23.9398219,0.31889892 L23.8897774,0.313649555 C20.103008,0.0380579272 14.3841731,0.000437447117 14.3269171,0.000218723559 L14.3218907,0 L14.3168644,0.000218723559 C14.2596084,0.000437447117 8.5407735,0.0380579272 4.71991269,0.313649555 L4.66943116,0.31889892 C4.62878367,0.324367051 4.58398407,0.329397651 4.53525082,0.335084492 C3.9141752,0.406825819 2.6217609,0.556214023 1.46614935,1.82852895 C0.516616054,2.86134157 0.242136458,4.86988002 0.213945495,5.09560273 L0.21066746,5.12491171 C0.202144593,5.22093137 0,7.50681124 0,9.80165882 L0,11.9468995 C0,14.2417471 0.202144593,16.527627 0.21066746,16.6238653 L0.212197217,16.6383011 C0.236454528,16.8653362 0.477716848,18.8802176 1.47008301,19.9246226 C2.55357807,21.1114166 3.92357215,21.2684601 4.66047125,21.3528874 C4.77695023,21.3662296 4.87725768,21.3776031 4.94565903,21.3896329 L5.01187506,21.3988194 C7.19831482,21.6070442 14.0535301,21.7096255 14.3441813,21.7137813 L14.3529227,21.714 L14.3616641,21.7137813 C14.4189202,21.7135625 20.1375364,21.6759421 23.9243059,21.4003504 L23.9743503,21.395101 C24.0222094,21.3887581 24.0759689,21.3830713 24.1349733,21.376947 C24.7525524,21.3113299 26.0379736,21.1750652 27.1776321,19.9200293 C28.1271654,18.886998 28.4018635,16.8784596 28.429836,16.6529556 L28.433114,16.6236466 C28.4416369,16.5274083 28.644,14.2417471 28.644,11.9468995 L28.644,9.80165882 C28.644,7.50681124 28.4416369,5.22115008 28.433114,5.12491171 L28.433114,5.12491171 Z M26.9652164,11.9468995 C26.9652164,14.070924 26.779899,16.2583783 26.7624162,16.4591665 C26.6911738,17.0123184 26.4016154,18.2831023 25.9389774,18.7863852 C25.2256801,19.5718214 24.4929332,19.6496871 23.9579603,19.7063364 C23.893274,19.7131169 23.8333954,19.7196786 23.7791988,19.726459 C20.1165571,19.991552 14.6136346,20.0322346 14.3601343,20.0337656 C14.0758206,20.0296099 7.32091278,19.9261537 5.20112609,19.7290837 C5.09251436,19.7113671 4.97516123,19.6978062 4.85147056,19.6838079 C4.22405739,19.6118479 3.36521601,19.5134223 2.70480409,18.7863852 L2.68928811,18.7697622 C2.23473591,18.2957882 1.95348178,17.1074631 1.88202092,16.4657282 C1.86869032,16.3139341 1.67856509,14.1006704 1.67856509,11.9468995 L1.67856509,9.80165882 C1.67856509,7.6800403 1.86344548,5.49499198 1.8813653,5.29004796 C1.96637535,4.63847052 2.26139718,3.44467731 2.70480409,2.96217317 C3.43995485,2.152896 4.21509748,2.06321931 4.72777988,2.00394522 C4.77673166,1.99825843 4.82240545,1.99300907 4.86458264,1.98754099 C8.58054684,1.72113567 14.1230241,1.68154672 14.3218907,1.68001564 C14.5207574,1.68132801 20.0612678,1.72113567 23.7442333,1.98754099 C23.78947,1.99322778 23.8388588,1.99891462 23.8919627,2.00503888 C24.419287,2.06518781 25.2162831,2.15617681 25.9477188,2.93701994 L25.9544934,2.94423781 C26.4090456,3.41821177 26.6902997,4.6273156 26.7617606,5.2819552 C26.7744356,5.42521915 26.9652164,7.64329474 26.9652164,9.80165882 L26.9652164,11.9468995 Z" id="Shape"></path>
                </g>
                <g id="twitter-2" transform="translate(47.000000, 0.000000)">
                    <path d="M10.8584857,23.7699 C9.59985267,23.7699 8.30435773,23.668195 7.00109075,23.464342 C4.7056621,23.1049401 2.38203188,21.9068602 1.72451382,21.5481231 L0,20.6072968 L1.86707597,19.9946297 C3.90802451,19.3250167 5.14955898,18.9095553 6.68643251,18.2589981 C5.1475604,17.5153776 3.96154082,16.1777026 3.39062593,14.4484968 L2.95627762,13.1327581 L3.312461,13.1870451 C2.97470857,12.8473638 2.70801517,12.5025862 2.50127779,12.1890513 C1.7660389,11.0747284 1.37676867,9.71312287 1.45959684,8.54628559 L1.54131472,7.39783947 L2.23036525,7.66417791 C1.93968942,7.11643358 1.72962114,6.5314639 1.60615608,5.91835367 C1.30526555,4.42313566 1.55708096,2.83463278 2.31541404,1.44555138 L2.91564072,0.346074244 L3.7183857,1.30817213 C6.25719152,4.35134398 9.47283465,6.15655151 13.2893707,6.68501842 C13.1334849,5.61279563 13.2502882,4.57801969 13.6368937,3.65048825 C14.0870083,2.5705101 14.8877546,1.65472235 15.9518636,1.00194934 C17.1336641,0.277163086 18.5668358,-0.074040345 19.9873502,0.0130404114 C21.4944678,0.105439017 22.8627982,0.668915508 23.9495572,1.64364335 C24.4802793,1.50604255 24.8713261,1.35913543 25.3998276,1.16060027 C25.7178167,1.04116894 26.0784413,0.905562334 26.5296661,0.750456737 L28.1924474,0.178781821 L27.108131,3.26892845 C27.1796342,3.26294585 27.2533579,3.25784951 27.3304125,3.2545258 L29.106,3.17431408 L28.056547,4.60549554 C27.9963689,4.68747995 27.9810468,4.71074578 27.9597291,4.74287478 C27.8751244,4.8700614 27.7698682,5.02826908 26.3293685,6.94759008 C25.9687439,7.42819584 25.7886537,8.0541577 25.8221847,8.71047599 C25.9498689,11.204574 25.6432048,13.4611388 24.9101864,15.417242 C24.2169168,17.2678734 23.1425931,18.8557115 21.7174155,20.1366622 C19.9538192,21.7213982 17.7050231,22.8064727 15.0332036,23.3613075 C13.7226086,23.6334071 12.3151958,23.7699 10.8584857,23.7699 Z" id="Path"></path>
                </g>
            </g>
        </g>
    </g>
</svg>