<svg width="250" height="60" viewBox="0 0 250 60" 
    xmlns="http://www.w3.org/2000/svg">
    <g transform="translate(2 2)" fill="none" fill-rule="evenodd">
        <rect stroke="#FBB420" stroke-width="3" width="246" height="56" rx="11"/>
        <path d="M23.28 41.72c1.467 0 2.86-.187 4.18-.56 1.32-.373 2.48-.947 3.48-1.72a8.36 8.36 0 002.38-2.92c.587-1.173.88-2.547.88-4.12 0-1.653-.32-2.973-.96-3.96a7.434 7.434 0 00-2.42-2.36 12.938 12.938 0 00-3.14-1.36c-1.12-.32-2.167-.64-3.14-.96-.973-.32-1.78-.707-2.42-1.16-.64-.453-.96-1.107-.96-1.96 0-.533.133-.987.4-1.36a2.964 2.964 0 011.04-.9c.427-.227.88-.393 1.36-.5.48-.107.947-.16 1.4-.16.773 0 1.593.153 2.46.46.867.307 1.553.78 2.06 1.42l4.28-4.68a10.702 10.702 0 00-4.04-2.28 15.885 15.885 0 00-4.64-.68c-1.387 0-2.733.193-4.04.58-1.307.387-2.46.967-3.46 1.74s-1.8 1.733-2.4 2.88c-.6 1.147-.9 2.48-.9 4 0 1.573.327 2.84.98 3.8a7.712 7.712 0 002.46 2.32 14.37 14.37 0 003.2 1.4c1.147.347 2.213.693 3.2 1.04.987.347 1.807.767 2.46 1.26s.98 1.167.98 2.02c0 .507-.127.947-.38 1.32a3.02 3.02 0 01-1 .92c-.413.24-.88.42-1.4.54-.52.12-1.033.18-1.54.18a6.908 6.908 0 01-3.02-.7 6.481 6.481 0 01-2.42-1.98l-4.44 4.88c1.36 1.253 2.827 2.16 4.4 2.72 1.573.56 3.28.84 5.12.84zM60.29 41v-5.76H46.57v-5.76h12.28v-5.76H46.57v-5.28h13v-5.76H40.33V41h19.96zm12.49 0V29.68h3.08L81.78 41h7.48l-7.2-11.96c2-.373 3.52-1.26 4.56-2.66 1.04-1.4 1.56-3.1 1.56-5.1 0-1.653-.286-3.033-.86-4.14-.573-1.107-1.346-1.987-2.32-2.64-.973-.653-2.106-1.12-3.4-1.4-1.293-.28-2.66-.42-4.1-.42H66.54V41h6.24zm3.68-16.6h-3.68v-6.44h4.08c.56 0 1.134.04 1.72.12.587.08 1.107.233 1.56.46.454.227.827.553 1.12.98.294.427.44 1 .44 1.72 0 .773-.166 1.373-.5 1.8a2.94 2.94 0 01-1.26.94c-.506.2-1.073.32-1.7.36-.626.04-1.22.06-1.78.06zM107.23 41l11.68-28.32h-6.68l-7.12 18.56h-.08l-7-18.56h-7.12L102.23 41h5zm22.05 0V12.68h-6.24V41h6.24zm20.69.72c1.948 0 3.84-.4 5.68-1.2 1.84-.8 3.36-2.04 4.56-3.72l-5.2-3.88a6.767 6.767 0 01-2.44 2.24c-.986.533-2.12.8-3.4.8a7.345 7.345 0 01-3.14-.68 7.705 7.705 0 01-2.54-1.9c-.72-.813-1.286-1.773-1.7-2.88-.412-1.107-.62-2.327-.62-3.66 0-1.307.208-2.52.62-3.64.414-1.12.988-2.087 1.72-2.9a7.8 7.8 0 012.6-1.9c1-.453 2.088-.68 3.26-.68 1.174 0 2.208.2 3.1.6a6.12 6.12 0 012.26 1.72l4.8-3.92a9.625 9.625 0 00-2.08-1.96c-.772-.533-1.58-.96-2.42-1.28-.84-.32-1.692-.553-2.56-.7-.866-.147-1.7-.22-2.5-.22-2.212 0-4.252.347-6.12 1.04-1.866.693-3.48 1.687-4.84 2.98-1.36 1.293-2.42 2.86-3.18 4.7-.76 1.84-1.14 3.893-1.14 6.16 0 2.267.38 4.32 1.14 6.16.76 1.84 1.82 3.407 3.18 4.7 1.36 1.293 2.974 2.287 4.84 2.98 1.868.693 3.908 1.04 6.12 1.04zm21.051-.72V12.68h-6.24V41h6.24zm20.69.72c2.214 0 4.254-.347 6.12-1.04 1.867-.693 3.48-1.687 4.84-2.98 1.36-1.293 2.42-2.86 3.18-4.7.76-1.84 1.14-3.893 1.14-6.16 0-2.267-.38-4.32-1.14-6.16-.76-1.84-1.82-3.407-3.18-4.7-1.36-1.293-2.973-2.287-4.84-2.98-1.866-.693-3.906-1.04-6.12-1.04-2.213 0-4.253.347-6.12 1.04-1.866.693-3.48 1.687-4.84 2.98-1.36 1.293-2.42 2.86-3.18 4.7-.76 1.84-1.14 3.893-1.14 6.16 0 2.267.38 4.32 1.14 6.16.76 1.84 1.82 3.407 3.18 4.7 1.36 1.293 2.974 2.287 4.84 2.98 1.867.693 3.907 1.04 6.12 1.04zm0-5.76c-1.333 0-2.54-.227-3.62-.68a8.124 8.124 0 01-2.78-1.9 8.383 8.383 0 01-1.78-2.88c-.413-1.107-.62-2.327-.62-3.66 0-1.307.207-2.52.62-3.64a8.346 8.346 0 011.78-2.9 8.124 8.124 0 012.78-1.9c1.08-.453 2.287-.68 3.62-.68 1.334 0 2.54.227 3.62.68a8.124 8.124 0 012.78 1.9 8.346 8.346 0 011.78 2.9c.414 1.12.62 2.333.62 3.64 0 1.333-.206 2.553-.62 3.66a8.383 8.383 0 01-1.78 2.88 8.124 8.124 0 01-2.78 1.9c-1.08.453-2.286.68-3.62.68zm28.17 5.76c1.467 0 2.86-.187 4.18-.56 1.32-.373 2.48-.947 3.48-1.72a8.36 8.36 0 002.38-2.92c.587-1.173.88-2.547.88-4.12 0-1.653-.32-2.973-.96-3.96a7.434 7.434 0 00-2.42-2.36 12.938 12.938 0 00-3.14-1.36c-1.12-.32-2.166-.64-3.14-.96-.973-.32-1.78-.707-2.42-1.16-.64-.453-.96-1.107-.96-1.96 0-.533.134-.987.4-1.36a2.964 2.964 0 011.04-.9c.427-.227.88-.393 1.36-.5.48-.107.947-.16 1.4-.16.774 0 1.594.153 2.46.46.867.307 1.554.78 2.06 1.42l4.28-4.68a10.702 10.702 0 00-4.04-2.28 15.885 15.885 0 00-4.64-.68c-1.386 0-2.733.193-4.04.58-1.306.387-2.46.967-3.46 1.74s-1.8 1.733-2.4 2.88c-.6 1.147-.9 2.48-.9 4 0 1.573.327 2.84.98 3.8a7.712 7.712 0 002.46 2.32 14.37 14.37 0 003.2 1.4c1.147.347 2.214.693 3.2 1.04.987.347 1.807.767 2.46 1.26.654.493.98 1.167.98 2.02 0 .507-.126.947-.38 1.32a3.02 3.02 0 01-1 .92c-.413.24-.88.42-1.4.54-.52.12-1.033.18-1.54.18a6.908 6.908 0 01-3.02-.7 6.481 6.481 0 01-2.42-1.98l-4.44 4.88c1.36 1.253 2.827 2.16 4.4 2.72 1.574.56 3.28.84 5.12.84z" fill="#FFF" fill-rule="nonzero"/>
        <path d="M192 42c-8.284 0-15-6.716-15-15 0-8.284 6.716-15 15-15 8.284 0 15 6.716 15 15 0 8.284-6.716 15-15 15z" fill="#FFF"/>
    </g>
</svg>