<?xml version="1.0" encoding="UTF-8"?>
<svg width="289px" height="465px" viewBox="0 0 289 465" version="1.1" xmlns="http://www.w3.org/2000/svg" xmlns:xlink="http://www.w3.org/1999/xlink">
    <!-- Generator: Sketch 59 (86127) - https://sketch.com -->
    <title>Zepelin_Contacto</title>
    <desc>Created with Sketch.</desc>
    <defs>
        <radialGradient cx="86.83964%" cy="213.543127%" fx="86.83964%" fy="213.543127%" r="423.409966%" gradientTransform="translate(0.868396,2.135431),scale(1.000000,0.850764),rotate(90.000000),scale(1.000000,15.233181),translate(-0.868396,-2.135431)" id="radialGradient-1">
            <stop stop-color="#B4610D" offset="0%"></stop>
            <stop stop-color="#F5A656" offset="56.9817684%"></stop>
            <stop stop-color="#C16B14" offset="93.0319725%"></stop>
            <stop stop-color="#000000" offset="100%"></stop>
        </radialGradient>
        <path d="M0,325.618328 C56.7054591,328.625426 101.659587,330.144011 134.862385,330.174082 L135.864933,330.174538 C169.163314,330.174538 218.68933,328.921285 284.442982,326.414781 L284.442982,330.174538 C219.068641,332.922723 169.874449,334.310557 136.860406,334.338038 L135.864933,334.338455 C102.847589,334.338455 57.559278,332.900883 0,330.025739 L0,325.618328 Z M5.68434189e-14,-7.7716316e-14 C57.2782415,3.03747277 102.566553,4.55620916 135.864933,4.55620916 C169.163314,4.55620916 218.68933,3.30295695 284.442982,0.796452536 L284.442982,4.55620916 C218.408294,7.33215399 168.882277,8.7201264 135.864933,8.7201264 C102.847589,8.7201264 57.559278,7.2825545 5.68434189e-14,4.40741069 L5.68434189e-14,-7.7716316e-14 Z" id="path-2"></path>
        <filter x="-1.2%" y="-0.7%" width="102.5%" height="102.1%" filterUnits="objectBoundingBox" id="filter-3">
            <feOffset dx="0" dy="1" in="SourceAlpha" result="shadowOffsetOuter1"></feOffset>
            <feGaussianBlur stdDeviation="1" in="shadowOffsetOuter1" result="shadowBlurOuter1"></feGaussianBlur>
            <feColorMatrix values="0 0 0 0 0   0 0 0 0 0   0 0 0 0 0  0 0 0 0.5 0" type="matrix" in="shadowBlurOuter1"></feColorMatrix>
        </filter>
        <linearGradient x1="48.0080176%" y1="32.9109182%" x2="102.505147%" y2="177.983723%" id="linearGradient-4">
            <stop stop-color="#DDD7DD" offset="0%"></stop>
            <stop stop-color="#D8FAF2" offset="99.9796785%"></stop>
        </linearGradient>
        <path d="M271.579406,3.68214157 C270.007529,9.53687727 269.61456,14.382781 270.400498,18.2198528 C271.579406,23.9754604 275.040072,36.0752008 275.040072,43.9719243 C275.040072,51.8686478 272.798879,77.2133928 272.798879,81.8389015 C272.798879,86.4644101 270.557686,115.274821 272.798879,121.200174 C275.040072,127.125527 277.600711,149.118909 277.600711,154.943789 C277.600711,160.76867 270.557686,184.85376 272.798879,192.932359 C274.293008,198.318092 274.293008,211.870128 272.798879,233.588468 C272.060829,256.482333 272.060829,270.120817 272.798879,274.503921 C273.905954,281.078576 270.557686,310.599844 272.798879,313.4093 C274.293008,315.282271 275.893618,320.194947 277.600711,328.147328 C266.747996,327.408019 257.901538,327.759672 251.061336,329.202287 C244.221134,330.644901 234.432676,331.045116 221.695962,330.402931 C217.724013,329.602501 211.472843,329.202287 202.94245,329.202287 C194.412057,329.202287 187.745382,330.177914 182.942423,332.12917 C173.251433,330.978344 165.958259,330.402931 161.062904,330.402931 C156.167548,330.402931 149.696371,330.978344 141.649373,332.12917 C131.150471,330.978344 124.602954,330.402931 122.006821,330.402931 L114.637589,330.402931 L114.637589,330.402931 C109.707303,330.402931 105.297877,330.978344 101.409311,332.12917 C91.8101545,330.978344 84.5065585,330.402931 79.4985233,330.402931 C74.4904881,330.402931 65.8507964,330.978344 53.5794481,332.12917 C48.5347921,329.474608 42.5853207,328.147328 35.7310338,328.147328 C28.8767469,328.147328 22.0799265,328.498981 15.3405725,329.202287 C12.7861309,324.085317 12.1475205,319.512991 13.4247413,315.485309 C15.3405725,309.443785 16.9318871,298.339714 16.9318871,291.8536 C16.9318871,287.529524 15.7628385,278.631222 13.4247413,265.158695 C12.1475205,249.627818 12.1475205,238.744802 13.4247413,232.509647 C15.3405725,223.156913 18.3896766,198.536201 18.3896766,194.546823 C18.3896766,190.557446 16.9318871,169.279502 16.9318871,167.905656 C16.9318871,166.531809 13.4247413,134.706788 13.4247413,129.08348 C13.4247413,123.460172 14.7920097,108.640637 15.3405725,103.642642 C15.8326055,99.1596949 15.8326055,89.8768727 15.6192434,87.9407138 C15.0610689,82.8755492 12.6869956,75.633746 10.6950832,66.4679462 C8.85953608,58.0216621 9.7694221,44.9152463 13.4247413,27.1486988 L13.4247413,3.68214157 C21.3697277,4.59223307 26.6801415,5.05762077 29.3559828,5.07830467 L29.5383949,5.0790262 C32.1510771,5.0790262 37.4357731,4.61339799 45.3924829,3.68214157 C52.4267616,6.1018742 58.1318391,7.31174051 62.5077153,7.31174051 C66.8835916,7.31174051 75.5379706,6.87341759 88.4708524,5.99677176 C97.7590319,7.57167477 104.8762,8.35912628 109.822357,8.35912628 C114.768515,8.35912628 121.957753,7.57167477 131.390074,5.99677176 C138.588736,6.87341759 144.575638,7.31174051 149.350781,7.31174051 C154.125923,7.31174051 164.877847,6.5675024 181.606552,5.0790262 C188.861776,6.41898646 195.638661,7.16322457 201.937206,7.31174051 C211.385022,7.53451442 216.373551,7.41594274 220.52804,5.99677176 C224.682529,4.57760078 225.7989,8.62670925 244.840589,7.31174051 C257.535048,6.43509468 266.447987,5.22522836 271.579406,3.68214157 Z M54.6266299,327.791494 C55.8651825,327.791494 56.8692277,328.537554 56.8692277,329.457866 C56.8692277,330.378178 55.8651825,331.124238 54.6266299,331.124238 C53.3880773,331.124238 52.384032,330.378178 52.384032,329.457866 C52.384032,328.537554 53.3880773,327.791494 54.6266299,327.791494 Z M98.3572879,327.791494 C99.5958405,327.791494 100.599886,328.537554 100.599886,329.457866 C100.599886,330.378178 99.5958405,331.124238 98.3572879,331.124238 C97.1187353,331.124238 96.1146901,330.378178 96.1146901,329.457866 C96.1146901,328.537554 97.1187353,327.791494 98.3572879,327.791494 Z M142.087946,327.791494 C143.326499,327.791494 144.330544,328.537554 144.330544,329.457866 C144.330544,330.378178 143.326499,331.124238 142.087946,331.124238 C140.849393,331.124238 139.845348,330.378178 139.845348,329.457866 C139.845348,328.537554 140.849393,327.791494 142.087946,327.791494 Z M182.454707,327.791494 C183.69326,327.791494 184.697305,328.537554 184.697305,329.457866 C184.697305,330.378178 183.69326,331.124238 182.454707,331.124238 C181.216155,331.124238 180.212109,330.378178 180.212109,329.457866 C180.212109,328.537554 181.216155,327.791494 182.454707,327.791494 Z M235.155757,326.125122 C236.394309,326.125122 237.398355,326.871182 237.398355,327.791494 C237.398355,328.711806 236.394309,329.457866 235.155757,329.457866 C233.917204,329.457866 232.913159,328.711806 232.913159,327.791494 C232.913159,326.871182 233.917204,326.125122 235.155757,326.125122 Z M18.7450643,324.45875 C19.9836169,324.45875 20.9876622,325.20481 20.9876622,326.125122 C20.9876622,327.045434 19.9836169,327.791494 18.7450643,327.791494 C17.5065117,327.791494 16.5024665,327.045434 16.5024665,326.125122 C16.5024665,325.20481 17.5065117,324.45875 18.7450643,324.45875 Z M271.037322,322.792378 C272.275875,322.792378 273.27992,323.538438 273.27992,324.45875 C273.27992,325.379062 272.275875,326.125122 271.037322,326.125122 C269.79877,326.125122 268.794724,325.379062 268.794724,324.45875 C268.794724,323.538438 269.79877,322.792378 271.037322,322.792378 Z M89.3868965,7.01488556 C90.6254491,7.01488556 91.6294944,7.76094571 91.6294944,8.68125755 C91.6294944,9.60156939 90.6254491,10.3476295 89.3868965,10.3476295 C88.148344,10.3476295 87.1442987,9.60156939 87.1442987,8.68125755 C87.1442987,7.76094571 88.148344,7.01488556 89.3868965,7.01488556 Z M130.874957,7.01488556 C132.113509,7.01488556 133.117555,7.76094571 133.117555,8.68125755 C133.117555,9.60156939 132.113509,10.3476295 130.874957,10.3476295 C129.636404,10.3476295 128.632359,9.60156939 128.632359,8.68125755 C128.632359,7.76094571 129.636404,7.01488556 130.874957,7.01488556 Z M222.821469,7.01488556 C224.060021,7.01488556 225.064066,7.76094571 225.064066,8.68125755 C225.064066,9.60156939 224.060021,10.3476295 222.821469,10.3476295 C221.582916,10.3476295 220.578871,9.60156939 220.578871,8.68125755 C220.578871,7.76094571 221.582916,7.01488556 222.821469,7.01488556 Z M181.333408,6.18169956 C182.571961,6.18169956 183.576006,6.92775971 183.576006,7.84807155 C183.576006,8.76838339 182.571961,9.51444354 181.333408,9.51444354 C180.094856,9.51444354 179.09081,8.76838339 179.09081,7.84807155 C179.09081,6.92775971 180.094856,6.18169956 181.333408,6.18169956 Z M44.5349396,5.34851357 C45.7734922,5.34851357 46.7775374,6.09457372 46.7775374,7.01488556 C46.7775374,7.9351974 45.7734922,8.68125755 44.5349396,8.68125755 C43.296387,8.68125755 42.2923417,7.9351974 42.2923417,7.01488556 C42.2923417,6.09457372 43.296387,5.34851357 44.5349396,5.34851357 Z M267.673426,5.34851357 C268.911978,5.34851357 269.916023,6.09457372 269.916023,7.01488556 C269.916023,7.9351974 268.911978,8.68125755 267.673426,8.68125755 C266.434873,8.68125755 265.430828,7.9351974 265.430828,7.01488556 C265.430828,6.09457372 266.434873,5.34851357 267.673426,5.34851357 Z M16.5024665,5.34851357 C17.7410191,5.34851357 18.7450643,6.09457372 18.7450643,7.01488556 C18.7450643,7.9351974 17.7410191,8.68125755 16.5024665,8.68125755 C15.2639139,8.68125755 14.2598686,7.9351974 14.2598686,7.01488556 C14.2598686,6.09457372 15.2639139,5.34851357 16.5024665,5.34851357 Z" id="path-5"></path>
        <filter x="-1.5%" y="-0.6%" width="103.0%" height="102.4%" filterUnits="objectBoundingBox" id="filter-6">
            <feOffset dx="0" dy="2" in="SourceAlpha" result="shadowOffsetOuter1"></feOffset>
            <feGaussianBlur stdDeviation="1" in="shadowOffsetOuter1" result="shadowBlurOuter1"></feGaussianBlur>
            <feColorMatrix values="0 0 0 0 0   0 0 0 0 0   0 0 0 0 0  0 0 0 0.5 0" type="matrix" in="shadowBlurOuter1"></feColorMatrix>
        </filter>
        <filter x="-6.5%" y="-13.0%" width="112.9%" height="126.1%" filterUnits="objectBoundingBox" id="filter-7">
            <feOffset dx="0" dy="2" in="SourceAlpha" result="shadowOffsetOuter1"></feOffset>
            <feGaussianBlur stdDeviation="2" in="shadowOffsetOuter1" result="shadowBlurOuter1"></feGaussianBlur>
            <feColorMatrix values="0 0 0 0 0   0 0 0 0 0   0 0 0 0 0  0 0 0 0.5 0" type="matrix" in="shadowBlurOuter1" result="shadowMatrixOuter1"></feColorMatrix>
            <feMerge>
                <feMergeNode in="shadowMatrixOuter1"></feMergeNode>
                <feMergeNode in="SourceGraphic"></feMergeNode>
            </feMerge>
        </filter>
    </defs>
    <g id="contacto" stroke="none" stroke-width="1" fill="none" fill-rule="evenodd">
        <g id="Iphone11Pro_375x812_001" transform="translate(-46.000000, -198.000000)">
            <g id="Zepelin_Contacto" transform="translate(48.000000, 200.000000)">
                <g id="DiseñoyDesarrollo03">
                    <g id="Cartel" transform="translate(0.000000, 124.950000)">
                        <g id="Group" transform="translate(0.000000, 0.050000)">
                            <g id="Rectangle-2">
                                <use fill="black" fill-opacity="1" filter="url(#filter-3)" xlink:href="#path-2"></use>
                                <use fill="url(#radialGradient-1)" fill-rule="evenodd" xlink:href="#path-2"></use>
                            </g>
                            <g id="Combined-Shape">
                                <use fill="black" fill-opacity="1" filter="url(#filter-6)" xlink:href="#path-5"></use>
                                <use fill="url(#linearGradient-4)" fill-rule="evenodd" xlink:href="#path-5"></use>
                            </g>
                        </g>
                        <line x1="17.5" y1="5.05" x2="17.5" y2="1.05" id="Path-14" stroke="#8D6939" stroke-width="1.463616" stroke-linecap="round"></line>
                        <line x1="45.5" y1="5.05" x2="45.5" y2="1.05" id="Path-14-Copy" stroke="#8D6939" stroke-width="1.463616" stroke-linecap="round"></line>
                        <line x1="89.5" y1="9.05" x2="89.5" y2="5.05" id="Path-14-Copy-2" stroke="#8D6939" stroke-width="1.463616" stroke-linecap="round"></line>
                        <line x1="130.5" y1="9.05" x2="130.5" y2="5.05" id="Path-14-Copy-3" stroke="#8D6939" stroke-width="1.463616" stroke-linecap="round"></line>
                        <line x1="182.5" y1="6.05" x2="182.5" y2="4.05" id="Path-14-Copy-4" stroke="#8D6939" stroke-width="1.463616" stroke-linecap="round"></line>
                        <line x1="224.5" y1="5.05" x2="224.5" y2="3.05" id="Path-14-Copy-5" stroke="#8D6939" stroke-width="1.463616" stroke-linecap="round"></line>
                        <line x1="266.5" y1="5.05" x2="266.5" y2="3.05" id="Path-14-Copy-6" stroke="#8D6939" stroke-width="1.463616" stroke-linecap="round"></line>
                        <line x1="183.5" y1="333.05" x2="183.5" y2="331.05" id="Path-14-Copy-6" stroke="#8D6939" stroke-width="1.463616" stroke-linecap="round"></line>
                        <line x1="141.5" y1="333.05" x2="141.5" y2="331.05" id="Path-14-Copy-6" stroke="#8D6939" stroke-width="1.463616" stroke-linecap="round"></line>
                        <line x1="235.5" y1="332.05" x2="235.5" y2="330.05" id="Path-14-Copy-6" stroke="#8D6939" stroke-width="1.463616" stroke-linecap="round"></line>
                        <line x1="270.5" y1="329.05" x2="270.5" y2="327.05" id="Path-14-Copy-6" stroke="#8D6939" stroke-width="1.463616" stroke-linecap="round"></line>
                        <line x1="98.5" y1="333.05" x2="98.5" y2="331.05" id="Path-14-Copy-6" stroke="#8D6939" stroke-width="1.463616" stroke-linecap="round"></line>
                        <line x1="55.5" y1="332.05" x2="55.5" y2="330.05" id="Path-14-Copy-6" stroke="#8D6939" stroke-width="1.463616" stroke-linecap="round"></line>
                        <line x1="20.5" y1="330.05" x2="20.5" y2="328.05" id="Path-14-Copy-6" stroke="#8D6939" stroke-width="1.463616" stroke-linecap="round"></line>
                    </g>
                    <line x1="84.784938" y1="128.944134" x2="97.979421" y2="74.7357336" id="Path-4" stroke="#FFFFFF" stroke-width="2.927232" stroke-dasharray="0.7318080961704254" transform="translate(91.371210, 102.177744) rotate(11.000000) translate(-91.371210, -102.177744) "></line>
                    <line x1="191.579256" y1="129.473212" x2="202.787703" y2="76.5534134" id="Path-4" stroke="#FFFFFF" stroke-width="2.927232" stroke-dasharray="0.7318080961704254" transform="translate(197.067816, 103.072726) scale(1, -1) rotate(11.000000) translate(-197.067816, -103.072726) "></line>
                    <g id="Zepelin-1" transform="translate(42.254352, 0.000000)">
                        <g id="zeppelin-copy-6" transform="translate(0.538861, 0.000000)">
                            <g id="zeppelin-copy-2" filter="url(#filter-7)">
                                <path d="M150.238205,77.4918144 L150.238205,82.4723312 C150.238205,87.3664353 146.096091,91.3296384 140.990219,91.3296384 L90.8583427,91.3296384 L90.8583427,81.5885645 C92.4905815,81.6356987 94.1228203,81.6592658 95.7509579,81.6592658 C115.227093,81.6592658 134.576094,81.0700879 150.238205,77.4918144 Z" id="Path" fill="#EDB53E"></path>
                                <polygon id="Path" fill="#FBC34C" points="11.9441627 56.8717869 12.5328718 55.351296 50.7948215 55.351296 47.2750041 60.6076168 39.3274304 72.4813429 29.02502 87.8701824 0 87.8701824"></polygon>
                                <polygon id="Path" fill="#FBB420" points="11.775935 30.3388552 0 0 28.6162169 0 38.7694355 15.057417 46.5275631 26.3519667 47.3582368 27.5053768 50.3074488 31.8269952 12.3563525 31.8269952"></polygon>
                                <path d="M96.4702296,5.5351296 C141.213256,5.5351296 185.285607,12.40915 185.293786,44.2810368 C185.285607,26.3693035 141.213256,22.5080681 96.4702296,22.5080681 C79.2412406,22.5080681 61.6278403,23.9535764 46.4763083,26.4203677 L38.6326812,15.0094938 C55.3423059,9.10569222 76.1741289,5.5351296 96.4702296,5.5351296 Z" id="Path" fill="#FCCA62"></path>
                                <path d="M4.29252013,43.5891456 L185.293786,43.5891456 C185.289694,63.9442027 141.188153,65.729664 96.4196478,65.729664 C79.1808475,65.729664 61.5533251,64.2597541 46.3972567,61.7513208 L49.8712043,56.6146247 L12.1078794,56.6146247 L11.5268422,58.1005119 C6.92355469,53.6108957 4.29252013,48.7138588 4.29252013,43.5891456 Z" id="Path" fill="#FBBB36"></path>
                                <path d="M150.80213,78.1674324 C135.183961,81.745851 115.889246,82.3350528 96.4677528,82.3350528 C94.844183,82.3350528 93.2165237,82.3114847 91.5888644,82.2643486 C72.8666922,81.7497791 54.0013843,78.2931288 38.6367708,72.8606886 L38.6326812,72.8606886 L46.4724374,61.4498147 C61.6203023,63.916606 79.2382834,65.3621143 96.4677528,65.3621143 C141.212027,65.3621143 185.289696,63.6062931 185.293786,43.5891456 C185.293786,63.7516295 171.172409,73.5009545 150.80213,78.1674324 Z" id="Path" fill="#FBB420"></path>
                                <path d="M185.293786,44.2810368 L4.29252013,44.2810368 C4.29252013,39.1541792 6.92355469,34.2629014 11.5268422,29.7709117 L12.1078794,31.2562629 L49.8712043,31.2562629 L46.3972567,26.1174267 C61.5574169,23.6098982 79.1808475,22.1405184 96.4196478,22.1405184 C141.188153,22.1405184 185.285602,26.0655192 185.293786,44.273051 L185.293786,44.2810368 Z" id="Path" fill="#FBC34C"></path>
                            </g>
                        </g>
                    </g>
                </g>
            </g>
        </g>
    </g>
</svg>