<?xml version="1.0" encoding="UTF-8"?>
<svg width="264px" height="136px" viewBox="0 0 264 136" version="1.1" xmlns="http://www.w3.org/2000/svg" xmlns:xlink="http://www.w3.org/1999/xlink">
    <!-- Generator: Sketch 52.2 (67145) - http://www.bohemiancoding.com/sketch -->
    <title>Group</title>
    <desc>Created with Sketch.</desc>
    <defs>
        <filter x="-6.3%" y="-12.9%" width="112.7%" height="125.8%" filterUnits="objectBoundingBox" id="filter-1">
            <feOffset dx="0" dy="2" in="SourceAlpha" result="shadowOffsetOuter1"></feOffset>
            <feGaussianBlur stdDeviation="3" in="shadowOffsetOuter1" result="shadowBlurOuter1"></feGaussianBlur>
            <feColorMatrix values="0 0 0 0 0   0 0 0 0 0   0 0 0 0 0  0 0 0 0.5 0" type="matrix" in="shadowBlurOuter1" result="shadowMatrixOuter1"></feColorMatrix>
            <feMerge>
                <feMergeNode in="shadowMatrixOuter1"></feMergeNode>
                <feMergeNode in="SourceGraphic"></feMergeNode>
            </feMerge>
        </filter>
    </defs>
    <g id="Zeppelin" stroke="none" stroke-width="1" fill="none" fill-rule="evenodd">
        <g id="Desktop-Copy-2" transform="translate(-87.000000, -96.000000)">
            <g id="Group" transform="translate(93.000000, 100.000000)">
                <g id="zeppelin-copy-3">
                    <g id="zeppelin-copy-2" filter="url(#filter-1)">
                        <path d="M204.324324,105.212121 L204.324324,111.974264 C204.324324,118.619083 198.69104,124 191.747041,124 L123.567568,124 L123.567568,110.774357 C125.787416,110.838352 128.007265,110.87035 130.221536,110.87035 C156.709128,110.87035 183.023816,110.070412 204.324324,105.212121 Z" id="Path" fill="#EDB53E"></path>
                        <polygon id="Path" fill="#FBC34C" points="16.2440903 77.2159148 17.0447362 75.1515152 69.0810811 75.1515152 64.2941208 82.2881226 53.4854012 98.409308 39.474098 119.30303 0 119.30303"></polygon>
                        <polygon id="Path" fill="#FBB420" points="16.0153003 41.191645 0 0 38.9181248 0 52.7265267 20.4437436 63.2775992 35.7785701 64.4073174 37.3445771 68.418253 43.2121212 16.8046695 43.2121212"></polygon>
                        <path d="M131.199747,7.51515152 C192.050372,7.51515152 251.988877,16.8481408 252,60.1212121 C251.988877,35.8021087 192.050372,30.5596353 131.199747,30.5596353 C107.76828,30.5596353 83.8140129,32.5222296 63.2078925,35.8714395 L52.5405405,20.3786773 C75.2656709,12.3629728 103.597001,7.51515152 131.199747,7.51515152 Z" id="Path" fill="#FCCA62"></path>
                        <path d="M5.83783784,59.1818182 L252,59.1818182 C251.994435,86.8182693 192.016233,89.2424242 131.130956,89.2424242 C107.686146,89.2424242 83.7126722,87.2466994 63.1003822,83.8409515 L67.8249594,76.8667607 L16.4667455,76.8667607 L15.6765335,78.8841782 C9.41605125,72.7885403 5.83783784,66.1397394 5.83783784,59.1818182 Z" id="Path" fill="#FBBB36"></path>
                        <path d="M205.091264,106.129421 C183.850517,110.987908 157.609657,111.787879 131.196379,111.787879 C128.98832,111.787879 126.774699,111.75588 124.561079,111.691882 C99.098879,110.993241 73.4420142,106.300081 52.5461024,98.924353 L52.5405405,98.924353 L63.2026281,83.4315908 C83.8037613,86.7808007 107.764258,88.743395 131.196379,88.743395 C192.0487,88.743395 251.994438,86.3594829 252,59.1818182 C252,86.556809 232.794894,99.7936543 205.091264,106.129421 Z" id="Path" fill="#FBB420"></path>
                        <path d="M252,60.1212121 L5.83783784,60.1212121 C5.83783784,53.1603793 9.41605125,46.5193978 15.6765335,40.4205372 L16.4667455,42.4372271 L67.8249594,42.4372271 L63.1003822,35.4601306 C83.7182371,32.0556111 107.686146,30.0606061 131.130956,30.0606061 C192.016233,30.0606061 251.98887,35.3896549 252,60.1103697 L252,60.1212121 Z" id="Path" fill="#FBC34C"></path>
                    </g>
                </g>
                <path d="M44,118 C116.753375,122 187.086708,122 255,118" id="Path-4" transform="translate(149.500000, 119.500000) rotate(-1.000000) translate(-149.500000, -119.500000) "></path>
                <path d="M71,58.2063136 C125.458962,53.6865868 175.722736,52.8092294 221.791323,55.5742412" id="Path-7" transform="translate(146.395662, 56.103157) rotate(1.000000) translate(-146.395662, -56.103157) "></path>
                <text id="EMPIEZA" transform="translate(146.000000, 43.500000) rotate(1.000000) translate(-146.000000, -43.500000) " font-family="Avenir-Black, Avenir" font-size="28.5" font-weight="700" letter-spacing="0.910000026" fill="#5F0263">
                    <tspan x="78.6757499" y="53">EMPIEZA</tspan>
                    <tspan x="213.32425" y="53"> </tspan>
                </text>
                <path d="M71,83 C120.678342,87.8553591 171.93603,87.8553591 224.773065,83" id="Path-34"></path>
                <text id="AHORA" transform="translate(148.000000, 75.500000) rotate(-1.000000) translate(-148.000000, -75.500000) " font-family="Avenir-Black, Avenir" font-size="28.5" font-weight="700" letter-spacing="0.910000026" fill="#5F0263">
                    <tspan x="92.7007499" y="85">AHORA</tspan>
                    <tspan x="203.29925" y="85"> </tspan>
                </text>
            </g>
        </g>
    </g>
</svg>