<?xml version="1.0" encoding="UTF-8"?>
<svg width="230px" height="428px" viewBox="0 0 230 428" version="1.1" xmlns="http://www.w3.org/2000/svg" xmlns:xlink="http://www.w3.org/1999/xlink">
    <!-- Generator: Sketch 59 (86127) - https://sketch.com -->
    <title>ZeppelinNosotros</title>
    <desc>Created with Sketch.</desc>
    <defs>
        <filter x="-5.1%" y="-10.5%" width="110.3%" height="121.0%" filterUnits="objectBoundingBox" id="filter-1">
            <feOffset dx="0" dy="1" in="SourceAlpha" result="shadowOffsetOuter1"></feOffset>
            <feGaussianBlur stdDeviation="2" in="shadowOffsetOuter1" result="shadowBlurOuter1"></feGaussianBlur>
            <feColorMatrix values="0 0 0 0 0   0 0 0 0 0   0 0 0 0 0  0 0 0 0.5 0" type="matrix" in="shadowBlurOuter1" result="shadowMatrixOuter1"></feColorMatrix>
            <feMerge>
                <feMergeNode in="shadowMatrixOuter1"></feMergeNode>
                <feMergeNode in="SourceGraphic"></feMergeNode>
            </feMerge>
        </filter>
    </defs>
    <g id="nosotros" stroke="none" stroke-width="1" fill="none" fill-rule="evenodd">
        <g id="Iphone11Pro_375x812_001" transform="translate(-66.000000, -222.000000)">
            <g id="ZeppelinNosotros" transform="translate(69.000000, 225.000000)">
                <g id="PAQUETE_WEB">
                    <g id="Zepelin-1">
                        <g id="zeppelin-copy-6" transform="translate(0.976716, 0.000000)">
                            <line x1="41.9330113" y1="316.587065" x2="29.4210313" y2="72.7410128" id="Path-4" stroke="#FFFFFF" stroke-width="3.08" stroke-dasharray="0.7699999868869782" transform="translate(35.872950, 194.483874) rotate(11.000000) translate(-35.872950, -194.483874) "></line>
                            <line x1="196.095903" y1="317.321874" x2="192.3181" y2="64.1195612" id="Path-4" stroke="#FFFFFF" stroke-width="3.08" stroke-dasharray="0.7699999868869782" transform="translate(194.219951, 190.792000) scale(1, -1) rotate(11.000000) translate(-194.219951, -190.792000) "></line>
                            <g id="zeppelin-copy-2" filter="url(#filter-1)">
                                <path d="M165.157079,84.79744 L165.157079,90.2475005 C165.157079,95.6030016 160.603648,99.93984 154.990755,99.93984 L99.88071,99.93984 L99.88071,89.2804156 C101.675032,89.3319935 103.469355,89.3577824 105.259169,89.3577824 C126.669313,89.3577824 147.939699,88.7130592 165.157079,84.79744 Z" id="Path" fill="#EDB53E"></path>
                                <polygon id="Path" fill="#FBC34C" points="13.1302356 62.2334369 13.7774044 60.5696 55.8388221 60.5696 51.9694816 66.3214661 43.2327021 79.3146008 31.9072473 96.15424 0 96.15424"></polygon>
                                <polygon id="Path" fill="#FBB420" points="12.9453027 33.1990839 0 0 31.4578494 0 42.6192975 16.4769715 51.1478186 28.8363272 52.0609794 30.0984763 55.3030525 34.82752 13.5833565 34.82752"></polygon>
                                <path d="M106.049865,6.05696 C155.23594,6.05696 203.68474,13.5790362 203.693731,48.45568 C203.68474,28.8552985 155.23594,24.6300408 106.049865,24.6300408 C87.1100125,24.6300408 67.7475755,26.211826 51.0914741,28.9111768 L42.4689633,16.4245302 C60.8378784,9.96414131 83.738332,6.05696 106.049865,6.05696 Z" id="Path" fill="#FCCA62"></path>
                                <path d="M4.7187737,47.69856 L203.693731,47.69856 C203.689233,69.9726124 155.208345,71.9264 105.994261,71.9264 C87.0436222,71.9264 67.6656609,70.3179127 51.0045726,67.5729941 L54.8234884,61.9520304 L13.3102096,61.9520304 L12.6714746,63.5780012 C7.61107386,58.6651215 4.7187737,53.3064111 4.7187737,47.69856 Z" id="Path" fill="#FBBB36"></path>
                                <path d="M165.777004,85.5367526 C148.607928,89.4525306 127.397219,90.09728 106.047143,90.09728 C104.26235,90.09728 102.473062,90.07149 100.683773,90.0199101 C80.1024621,89.4568289 59.3638012,85.6742992 42.473459,79.7297098 L42.4689633,79.7297098 L51.0872188,67.2430632 C67.739289,69.942414 87.1067616,71.5241992 106.047143,71.5241992 C155.234589,71.5241992 203.689236,69.602846 203.693731,47.69856 C203.693731,69.7618842 188.170082,80.4303375 165.777004,85.5367526 Z" id="Path" fill="#FBB420"></path>
                                <path d="M203.693731,48.45568 L4.7187737,48.45568 C4.7187737,42.8454822 7.61107386,37.4930739 12.6714746,32.5775969 L13.3102096,34.2029813 L54.8234884,34.2029813 L51.0045726,28.5796756 C67.6701591,25.8357471 87.0436222,24.22784 105.994261,24.22784 C155.208345,24.22784 203.684735,28.5228746 203.693731,48.4469414 L203.693731,48.45568 Z" id="Path" fill="#FBC34C"></path>
                            </g>
                        </g>
                        <text id="IRVING-RIZO" transform="translate(118.000000, 53.500000) rotate(1.000000) translate(-118.000000, -53.500000) " font-family="Avenir-Black, Avenir" font-size="17.90712" font-weight="700" line-spacing="16.632" letter-spacing="0.571771157" fill="#5F0263">
                            <tspan x="75.3758709" y="40.0538876">IRVING</tspan>
                            <tspan x="86.0741184" y="61.1155437">RIZO</tspan>
                        </text>
                    </g>
                </g>
                <g id="Basket" transform="translate(6.000000, 186.000000)">
                    <path d="M109.006483,23.8627417 C108.872519,23.4864056 109.3064,21.3113607 109.363385,20.9162572 C109.420369,20.5221414 109.427367,20.4865821 109.427367,20.4865821 C109.427367,20.4865821 108.917507,20.5823947 108.632585,20.5823947 C108.632585,20.5823947 108.976491,20.0085068 108.805538,19.7269955 C108.633585,19.4444965 107.721836,19.0464297 107.436914,18.4824194 C107.150992,17.9174214 107.094008,17.9727359 107.037024,17.1262266 C106.980039,16.280705 106.695118,14.2488851 106.353211,13.0645623 C106.010306,11.8812272 106.295227,10.4707076 106.295227,9.56789608 C106.295227,8.66607228 106.295227,8.2146665 106.46718,7.31284269 C106.638133,6.41101889 106.866071,4.88789479 107.322945,4.379199 C107.77882,3.87247872 108.007757,3.5899797 108.007757,3.5899797 C108.007757,3.5899797 107.664851,4.4918035 108.065741,4.26758225 C108.464632,4.04138548 109.034475,3.47737519 109.549334,3.13857392 C110.063192,2.80174816 110.975942,1.95523885 112.858425,1.1650318 C114.741907,0.375812499 115.998562,-0.243512282 118.965747,0.0943012349 C121.933932,0.432114751 125.414976,0.939822785 128.782051,5.11211604 C132.150126,9.28539706 130.837487,12.2743552 130.780502,16.3903463 C130.723518,20.507325 130.552565,21.9168569 131.521299,22.3682626 C131.521299,22.3682626 130.837487,22.2556581 131.236377,22.8759707 C131.636267,23.4962832 132.093142,25.5824298 132.663985,26.8230549 C133.233829,28.06368 132.892922,28.1199822 133.690703,28.9664916 C134.489484,29.8120131 134.375515,29.9246176 135.23128,30.0935244 C136.088045,30.2624311 136.259997,31.0526382 137.001794,31.3341494 C137.74359,31.6156607 138.599355,32.4058678 139.341151,32.5747745 C140.082947,32.744669 140.996696,32.744669 141.909446,33.3649816 C142.822195,33.9852941 143.27907,34.6609211 143.67896,35.1686292 C144.07885,35.677325 145.162552,36.0714407 145.334505,36.2403475 C145.505458,36.4092543 146.076301,37.2547758 146.989051,39.2856079 C147.9018,41.3154523 148.073753,43.1773777 148.930517,43.9656092 C149.786282,44.7548285 150.813,45.4877456 150.927969,46.3342549 C151.041937,47.1797764 150.869985,47.6874845 150.983953,49.0407141 C151.097922,50.3939436 150.585063,52.0296722 150.071204,53.2139951 C149.557345,54.3983179 149.271424,54.4546201 149.215439,55.638943 C149.157455,56.8232658 148.986502,58.2327976 148.815549,58.7968079 C148.643596,59.3608182 147.331956,65.1125378 146.989051,68.2704028 C146.646145,71.4282677 145.220536,77.5178008 144.420756,79.0409249 C143.621975,80.5630613 141.909446,83.1006137 141.624524,84.5101455 C141.339602,85.9206651 141.281618,85.6391539 140.996696,86.9350934 C140.710775,88.2330085 140.196916,88.345613 140.025963,89.4163436 C139.85501,90.4880619 140.710775,90.7695732 140.882728,91.4471757 C141.053681,92.1228028 140.539822,93.8148336 140.310885,94.3225417 C140.082947,94.8302497 139.398135,94.4351462 139.398135,94.8302497 C139.398135,95.2253532 139.569089,95.2816555 139.741041,96.0708748 C139.911994,96.8600941 139.45512,96.5212928 139.798026,97.1416053 C140.140931,97.7619179 141.167649,100.074261 141.224634,101.202282 C141.281618,102.330302 141.395587,103.006917 141.624524,104.472751 C141.852461,105.939573 141.909446,113.157127 141.452571,114.285147 C140.996696,115.41218 141.452571,115.243273 141.624524,115.638377 C141.795477,116.032493 141.56654,121.671608 141.110665,125.05567 C140.653791,128.438744 139.85501,130.52489 139.85501,131.766503 C139.85501,133.007128 140.140931,139.435462 140.025963,141.182808 C139.911994,142.931141 139.969978,146.821923 139.969978,147.781037 C139.969978,148.740151 140.425853,150.882599 140.767759,152.009632 C141.110665,153.138641 142.480289,161.201716 142.595257,163.965465 C142.709226,166.728226 143.223085,172.479946 142.709226,176.370728 C142.194367,180.262498 141.93044,181.503123 141.644518,182.348644 C141.359597,183.194166 140.808748,182.686458 140.808748,184.603698 C140.808748,186.521925 140.808748,186.690832 140.808748,186.690832 C140.808748,186.690832 141.644518,187.254842 141.701503,188.495468 C141.759487,189.736093 141.891451,189.678803 141.948435,190.920415 C142.005419,192.161041 142.243354,192.273645 142.129385,193.795781 C142.015417,195.317918 142.504282,195.205313 141.876455,196.108125 C141.248627,197.009949 140.637795,196.783752 140.751764,197.461354 C140.865732,198.136981 141.615526,198.927188 141.729495,199.322292 C141.844464,199.716408 141.791478,200.619219 141.848462,200.957033 C141.905447,201.295834 141.450572,203.269376 141.793478,203.325679 C142.136383,203.381981 142.993148,203.043179 143.336054,203.945991 C143.67796,204.847815 143.734944,205.412813 143.507007,206.369951 C143.27907,207.329065 142.651242,206.990264 142.880179,207.611564 C143.108116,208.231877 143.336054,208.119272 143.393038,208.794899 C143.450023,209.472502 143.621975,209.190003 143.393038,209.92292 C143.165101,210.655837 143.27907,211.164533 143.393038,211.333439 C143.508007,211.502346 143.67896,211.727555 143.67896,212.405158 C143.67896,213.080785 143.223085,214.209793 142.423305,214.548594 C141.624524,214.88542 140.140931,215 140.140931,215 L112.116628,215 C112.116628,215 110.29113,213.927294 110.063192,213.758387 C109.834255,213.58948 102.871168,213.786044 102.871168,213.786044 C102.871168,213.786044 99.5610769,212.559248 99.6750456,210.980809 C99.7890143,209.402371 100.416842,209.014182 100.930701,208.788973 C101.44356,208.562776 103.783917,208.566727 104.925604,208.566727 C106.06729,208.566727 106.695118,208.625005 107.265961,208.511412 C107.836804,208.398808 108.635585,207.892088 109.149443,207.666879 C109.663302,207.440682 110.348114,207.047554 111.146895,206.877659 C111.945675,206.708752 111.831707,206.369951 112.744456,206.08844 C113.658205,205.806929 113.715189,205.694324 114.172064,205.694324 C114.627939,205.694324 115.027829,205.468127 115.31375,205.355523 C115.598672,205.242918 116.398452,204.1712 116.911312,203.776097 C117.42517,203.381981 117.42517,203.043179 117.082265,202.987865 C116.739359,202.930575 115.770625,201.126927 116.055547,200.33672 C116.340468,199.547501 118.33792,197.179843 118.166967,195.93823 C117.996014,194.697605 117.710092,193.118179 117.311202,190.694219 C116.911312,188.269271 115.598672,182.968957 115.142797,181.728332 C114.685923,180.487707 113.658205,179.472291 113.486252,178.062759 C113.315299,176.652239 113.372284,177.047343 113.372284,175.412602 C113.372284,173.776873 113.201331,173.156561 112.630487,171.409216 C112.060644,169.659895 112.00266,168.984268 111.888691,168.137758 C111.774722,167.292237 109.377381,163.570362 108.749553,162.16083 C108.121726,160.751298 107.095008,159.792184 107.265961,159.059267 C107.437914,158.32635 108.121726,158.720466 107.437914,157.761352 C106.752102,156.804214 105.039572,153.871558 104.983588,153.251245 C104.925604,152.630933 103.669948,147.385933 103.498995,145.525983 C103.327043,143.664058 104.183807,148.570256 103.100105,141.070203 C102.015403,133.570151 101.387575,130.469576 100.987685,127.593222 C100.587795,124.716868 99.902983,122.29192 99.9599674,121.164888 C100.017951,120.036867 100.017951,119.529159 100.188904,117.837128 C100.360857,116.146085 100.188904,110.169156 100.530811,109.266345 C100.873716,108.364521 101.102654,107.461709 101.329591,106.727805 C101.558528,105.995875 101.558528,105.205668 101.044669,105.883271 C100.530811,106.558898 100.416842,106.390979 100.759748,105.600772 C101.102654,104.811553 101.044669,104.811553 101.44356,103.739834 C101.84445,102.668116 101.672497,103.458323 101.786466,102.330302 C101.901434,101.202282 101.501544,101.258584 101.84445,100.919783 C102.186356,100.581969 102.071387,101.202282 102.358309,100.35676 C102.64323,99.5112387 102.071387,98.6647294 102.186356,98.0444169 C102.300325,97.4241043 102.985136,96.9726986 103.271058,96.5212928 C103.55598,96.0708748 103.612964,96.0145725 103.841901,95.5641545 C104.068839,95.1127487 104.240792,89.3047268 104.240792,88.288323 C104.240792,87.2738947 104.012854,86.2594664 104.469729,85.2430626 C104.925604,84.2286343 104.640682,84.7363423 105.039572,84.0034253 C105.440462,83.2695205 103.15609,81.9162909 102.699215,81.4095706 C102.24334,80.9018626 99.8459987,82.7064979 98.0764847,83.1006137 C98.0764847,83.1006137 97.106751,82.5366034 96.5928921,82.5938934 C96.0790333,82.6492079 95.166284,82.0861854 94.9943312,81.1270716 C94.9943312,81.1270716 93.4537543,80.8455603 93.2828013,79.8301442 C93.1118482,78.8157159 93.3397856,78.9836349 93.3397856,78.9836349 C93.3397856,78.9836349 92.6549737,79.3797262 91.8561931,78.3643102 C91.0574125,77.3488941 90.7145067,76.5033725 90.7145067,76.5033725 L83.1235916,75.2627475 C83.1235916,75.2627475 82.3817953,74.8113417 81.9829048,73.9095179 C81.582015,73.0076941 70.0541811,49.3795153 70.0541811,49.3795153 C70.0541811,49.3795153 69.7682597,48.1388903 70.5100559,47.9699835 C71.2518522,47.800089 102.928152,39.7370137 102.928152,39.7370137 C102.928152,39.7370137 104.126823,38.9468067 105.496447,41.9920671 C106.866071,45.0373276 108.863522,49.5494098 108.863522,49.5494098 C108.863522,49.5494098 109.377381,45.8838369 109.834255,45.0936298 C110.29113,44.3044105 110.519067,43.1773777 111.317848,42.8385764 C112.116628,42.4997751 112.516519,41.9367526 113.486252,41.2591501 C114.456986,40.5825353 114.970845,40.018525 115.998562,39.5118047 C117.02528,39.0040967 117.254217,38.8914922 118.109982,38.5526909 C118.965747,38.2138896 119.821512,36.7480555 120.792246,36.352952 C121.762979,35.9588362 121.933932,36.352952 121.762979,35.9588362 C121.592026,35.5637327 120.393355,32.744669 120.393355,32.4058678 C120.393355,32.0670665 120.222402,31.5603462 119.879496,31.6156607 C119.536591,31.6729507 118.109982,31.6156607 117.311202,32.1243565 C116.512421,32.6320645 114.856876,31.8418575 114.400001,30.3197211 C113.943127,28.796597 111.945675,27.9510755 111.717738,27.2744607 C111.488801,26.5978459 110.804989,24.7932105 110.69102,24.623316 C110.576052,24.4544093 109.377381,24.905815 109.006483,23.8627417" id="Fill-14" fill="#DCDADF"></path>
                    <path d="M55.7601706,238.116108 L28.3019742,139.306356 C14.0444578,127.970995 5.37887747,119.920566 2.3052332,115.155069 C-0.768411068,110.389572 -0.768411068,105.004549 2.3052332,99 L218.494767,99 C221.568411,105.004549 221.568411,110.389572 218.494767,115.155069 C215.421123,119.920566 206.755542,127.970995 192.498026,139.306356 L192.498026,139.306356 L165.039829,238.116108 L55.7601706,238.116108 Z" id="Combined-Shape" fill="#C07735"></path>
                    <polygon id="Path-6" fill="#A26125" points="2.4 115.155069 62.8984448 115.155069 218.589534 115.155069 220.8 107.077535 218.589534 99 2.4 99 0 107.077535"></polygon>
                    <polygon id="Path-7" fill="#885220" points="110.4 115.155069 110.4 238.116108 165.039829 238.116108 192.498026 139.306356 218.494767 115.155069"></polygon>
                    <polygon id="Path-10" fill="#81430A" points="110.4 99 110.4 115.155069 218.494767 115.155069 220.8 107.077535 218.494767 99"></polygon>
                    <path d="M9.17981017,113.4 C25.9263308,132.904346 42.6532293,142.656518 59.3605055,142.656518 C76.0677818,142.656518 93.5809466,132.904346 111.9,113.4 C129.327993,133.4 146.832746,143.4 164.414262,143.4 C181.995777,143.4 198.917626,133.4 215.17981,113.4" id="Path-21" stroke="#F7C968" stroke-width="3"></path>
                    <g id="Bolsa" transform="translate(0.000000, 107.400000)">
                        <path d="M2.86096682,0.605358586 L6.82682196,6.47083649 C3.94180488,11.4342875 2.00895124,15.9574806 1.02826104,20.0404159 C0.0475708355,24.1233512 -0.231629251,28.8096639 0.190660779,34.0993542 C3.10192864,34.8744379 6.01319649,35.2619797 8.92446435,35.2619797 C11.8357322,35.2619797 14.7470001,34.8744379 17.6582679,34.0993542 C18.113774,27.3824474 18.113774,22.6961346 17.6582679,20.0404159 C16.1817563,11.4319702 12.9194534,6.47083649 12.9194534,6.47083649 C12.9194534,6.47083649 14.0438407,4.51567719 16.2926153,0.605358586 C14.2055947,1.09426222 12.7885025,1.09426222 12.0413388,0.605358586 C10.9205932,-0.127996858 8.07457322,0.010389272 7.47346685,0.010389272 C7.07272928,0.010389272 5.53522927,0.208712377 2.86096682,0.605358586 Z" id="Path-3" fill="#D8D8D8"></path>
                        <path d="M10.4304322,0.605358586 L10.4304322,4.44946888 C9.47677655,10.1578702 8.97478728,15.5879017 8.92446435,20.7395632 C8.87414142,25.8912248 8.89930288,30.7320303 8.99994875,35.2619797 C6.03835796,35.2619797 6.01319649,35.2619797 8.92446435,35.2619797 C11.8357322,35.2619797 14.7470001,34.8744379 17.6582679,34.0993542 C18.113774,27.3824474 18.113774,22.6961346 17.6582679,20.0404159 C16.1817563,11.4319702 12.9194534,6.47083649 12.9194534,6.47083649 C12.9194534,6.47083649 14.0438407,4.51567719 16.2926153,0.605358586 C14.2055947,1.09426222 12.7885025,1.09426222 12.0413388,0.605358586 C10.9205932,-0.127996858 8.07457322,0.010389272 7.47346685,0.010389272 C7.07272928,0.010389272 8.05838438,0.208712377 10.4304322,0.605358586 Z" id="Path-3-Copy" fill="#CFCBCB"></path>
                    </g>
                    <g id="Bolsa-Copy-2" transform="translate(202.800000, 107.400000)">
                        <path d="M2.86096682,0.605358586 L6.82682196,6.47083649 C3.94180488,11.4342875 2.00895124,15.9574806 1.02826104,20.0404159 C0.0475708355,24.1233512 -0.231629251,28.8096639 0.190660779,34.0993542 C3.10192864,34.8744379 6.01319649,35.2619797 8.92446435,35.2619797 C11.8357322,35.2619797 14.7470001,34.8744379 17.6582679,34.0993542 C18.113774,27.3824474 18.113774,22.6961346 17.6582679,20.0404159 C16.1817563,11.4319702 12.9194534,6.47083649 12.9194534,6.47083649 C12.9194534,6.47083649 14.0438407,4.51567719 16.2926153,0.605358586 C14.2055947,1.09426222 12.7885025,1.09426222 12.0413388,0.605358586 C10.9205932,-0.127996858 8.07457322,0.010389272 7.47346685,0.010389272 C7.07272928,0.010389272 5.53522927,0.208712377 2.86096682,0.605358586 Z" id="Path-3" fill="#D8D8D8"></path>
                        <path d="M10.4304322,0.605358586 L10.4304322,4.44946888 C9.47677655,10.1578702 8.97478728,15.5879017 8.92446435,20.7395632 C8.87414142,25.8912248 8.89930288,30.7320303 8.99994875,35.2619797 C6.03835796,35.2619797 6.01319649,35.2619797 8.92446435,35.2619797 C11.8357322,35.2619797 14.7470001,34.8744379 17.6582679,34.0993542 C18.113774,27.3824474 18.113774,22.6961346 17.6582679,20.0404159 C16.1817563,11.4319702 12.9194534,6.47083649 12.9194534,6.47083649 C12.9194534,6.47083649 14.0438407,4.51567719 16.2926153,0.605358586 C14.2055947,1.09426222 12.7885025,1.09426222 12.0413388,0.605358586 C10.9205932,-0.127996858 8.07457322,0.010389272 7.47346685,0.010389272 C7.07272928,0.010389272 8.05838438,0.208712377 10.4304322,0.605358586 Z" id="Path-3-Copy" fill="#CFCBCB"></path>
                    </g>
                    <g id="Bolsa-Copy-3" transform="translate(102.000000, 107.400000)">
                        <path d="M2.86096682,0.605358586 L6.82682196,6.47083649 C3.94180488,11.4342875 2.00895124,15.9574806 1.02826104,20.0404159 C0.0475708355,24.1233512 -0.231629251,28.8096639 0.190660779,34.0993542 C3.10192864,34.8744379 6.01319649,35.2619797 8.92446435,35.2619797 C11.8357322,35.2619797 14.7470001,34.8744379 17.6582679,34.0993542 C18.113774,27.3824474 18.113774,22.6961346 17.6582679,20.0404159 C16.1817563,11.4319702 12.9194534,6.47083649 12.9194534,6.47083649 C12.9194534,6.47083649 14.0438407,4.51567719 16.2926153,0.605358586 C14.2055947,1.09426222 12.7885025,1.09426222 12.0413388,0.605358586 C10.9205932,-0.127996858 8.07457322,0.010389272 7.47346685,0.010389272 C7.07272928,0.010389272 5.53522927,0.208712377 2.86096682,0.605358586 Z" id="Path-3" fill="#D8D8D8"></path>
                        <path d="M10.4304322,0.605358586 L10.4304322,4.44946888 C9.47677655,10.1578702 8.97478728,15.5879017 8.92446435,20.7395632 C8.87414142,25.8912248 8.89930288,30.7320303 8.99994875,35.2619797 C6.03835796,35.2619797 6.01319649,35.2619797 8.92446435,35.2619797 C11.8357322,35.2619797 14.7470001,34.8744379 17.6582679,34.0993542 C18.113774,27.3824474 18.113774,22.6961346 17.6582679,20.0404159 C16.1817563,11.4319702 12.9194534,6.47083649 12.9194534,6.47083649 C12.9194534,6.47083649 14.0438407,4.51567719 16.2926153,0.605358586 C14.2055947,1.09426222 12.7885025,1.09426222 12.0413388,0.605358586 C10.9205932,-0.127996858 8.07457322,0.010389272 7.47346685,0.010389272 C7.07272928,0.010389272 8.05838438,0.208712377 10.4304322,0.605358586 Z" id="Path-3-Copy" fill="#CFCBCB"></path>
                    </g>
                    <line x1="6.75972285" y1="113.620373" x2="13.3825696" y2="113.620373" id="Path-11" stroke="#979797" stroke-width="1.2" stroke-linecap="round"></line>
                    <line x1="108" y1="114.6" x2="115.8" y2="114" id="Path-11" stroke="#979797" stroke-width="1.2" stroke-linecap="round"></line>
                    <line x1="208.8" y1="114.6" x2="216.6" y2="114" id="Path-11" stroke="#979797" stroke-width="1.2" stroke-linecap="round"></line>
                </g>
            </g>
        </g>
    </g>
</svg>