<?xml version="1.0" encoding="UTF-8"?>
<svg width="422px" height="170px" viewBox="0 0 422 170" version="1.1" xmlns="http://www.w3.org/2000/svg" xmlns:xlink="http://www.w3.org/1999/xlink">
    <!-- Generator: Sketch 59 (86127) - https://sketch.com -->
    <title>Group 8</title>
    <desc>Created with Sketch.</desc>
    <defs>
        <linearGradient x1="0%" y1="50%" x2="80.9921614%" y2="50%" id="linearGradient-1">
            <stop stop-color="#7E91A8" offset="0%"></stop>
            <stop stop-color="#48586F" offset="100%"></stop>
        </linearGradient>
        <linearGradient x1="0%" y1="45.4800189%" x2="83.8334698%" y2="50%" id="linearGradient-2">
            <stop stop-color="#6B7C93" offset="0%"></stop>
            <stop stop-color="#4C5C73" offset="100%"></stop>
        </linearGradient>
    </defs>
    <g id="Zepeelin" stroke="none" stroke-width="1" fill="none" fill-rule="evenodd">
        <g id="Desktop-Copy" transform="translate(-751.000000, -151.000000)">
            <g id="Group-8" transform="translate(752.000000, 152.000000)">
                <g id="Group-6">
                    <g id="Group-3">
                        <g id="Group-2">
                            <g id="Cabina" transform="translate(273.033058, 137.591837)">
                                <path d="M0.37263925,8.1535905 C7.50895579,21.3156472 12.2041027,28.5634109 14.4580799,29.8968814 C17.8390458,31.8970872 76.6643141,29.8968814 79.8131012,29.8968814 C82.9618882,29.8968814 84.2930468,29.9256454 84.2930468,22.3551762 C84.2930468,17.3081968 84.2930468,10.0382403 84.2930468,0.545306721 L44.3200126,5.23469388 L0.37263925,8.1535905 Z" id="Path-32" fill="#384C57"></path>
                                <rect id="Rectangle" fill="#4A90E2" x="35.6198347" y="12.2142857" width="12.2066116" height="10.4693878"></rect>
                                <rect id="Rectangle" fill="#4A90E2" x="49.5702479" y="12.2142857" width="10.4628099" height="10.4693878"></rect>
                                <rect id="Rectangle" fill="#4A90E2" x="63.5206612" y="12.2142857" width="10.4628099" height="10.4693878"></rect>
                                <rect id="Rectangle" fill="#4A90E2" x="77.4710744" y="12.2142857" width="6.97520661" height="10.4693878"></rect>
                            </g>
                            <path d="M33.2066108,54.5024429 C26.1322317,30.5729814 26.1322317,14.8330705 33.2066108,7.28271005 C40.28099,-0.267650357 49.3235126,-1.94712528 60.3341787,2.24428528 L104.204638,29.5618036 L33.2066108,54.5024429 Z" id="Path-31" stroke="#384C57" fill="url(#linearGradient-1)"></path>
                            <path d="M34.8760331,4.5294189 C52.3505827,12.3583836 76.1320679,20.2726555 106.220489,28.2722348 C151.353119,40.2716037 213.631777,46.9050213 254.908011,46.9050213 C296.184244,46.9050213 354.111141,43.9467023 376.806896,36.0537195 C391.9374,30.791731 404.897833,21.1977474 415.688195,7.27176881 C410.680578,17.7621152 405.300282,25.4293201 399.547307,30.2733833 C390.917846,37.5394783 370.836657,50.482587 337.393512,55.231324 C303.950367,59.9800611 243.830592,55.5494877 222.837443,53.8401646 C215.178412,53.2165441 202.381883,51.7286019 191.148075,49.7744898 C168.821554,45.8908089 142.248436,41.2548784 119.483352,36.0537195 C106.910983,33.1812991 99.0130643,31.0617383 90.0745933,28.2722348 C68.0206664,21.3896811 51.3111207,14.6770318 44.647871,12.2671128 C38.4052916,10.009339 35.1480123,7.43010767 34.8760331,4.5294189 Z" id="Path-27" fill="#DFE0E0" transform="translate(225.282114, 30.945404) scale(1, -1) translate(-225.282114, -30.945404) "></path>
                            <path d="M3.48760331,82.755102 C6.09506011,83.6481502 7.94778245,84.293581 9.04577035,84.6913944 C38.5096442,95.3664879 67.5007715,105.010868 96.0191523,113.624533 C141.187919,127.267267 202.707844,137.524777 243.984078,137.524777 C285.260311,137.524777 346.154857,133.613775 368.850613,126.239268 C383.981116,121.32293 399.898858,110.214815 416.603839,92.9149247 C412.026482,104.354422 405.107509,113.68107 395.846919,120.894867 C381.956034,131.715562 372.084623,137.809783 328.99885,142.708228 C285.913078,147.606674 234.288566,145.431908 212.643461,143.987754 C198.926232,143.072544 175.647084,140.140049 151.653464,135.249119 C137.786349,132.422406 123.756351,128.628991 111,125 C100.95529,122.14243 88.6868102,118.179823 79.7483393,115.573557 C57.6944123,109.143105 41.7673184,99.9170684 34.2074613,97.0676865 C26.8621755,94.2991786 16.6222228,89.5283171 3.48760331,82.755102 Z" id="Path-27-Copy" fill="#34445E"></path>
                            <path d="M3.33312969,83.1747542 C19.3746572,89.9516579 40.0577851,97.4209469 65.3825133,105.582621 C103.369606,117.825132 110.438845,121.374901 140.048059,127.547164 C169.657273,133.719427 217.925401,142.142553 290.504398,142.142553 C320.066319,142.142553 353.518483,135.739861 373.420155,127.547164 C402.380106,115.625548 411.81448,99.9251333 414.945098,94.7425181 C420.227119,85.9983391 404.792457,110.774984 345.675597,116.58872 C313.569888,119.746096 267.966294,119.85797 223.985647,117.932021 C186.98388,116.311682 151.130864,113.248935 125.431068,109.343853 C87.9331913,103.646053 46.7041024,94.2015032 1.74380165,81.0102041 L3.33312969,83.1747542 Z" id="Path-28" fill="#53657B"></path>
                            <path d="M9.98974999,12.9591837 C17.0261752,17.1448716 22.3629252,20.125606 26,21.9013867 C39.0068381,28.2519003 52.447734,33.0943954 65.7826961,37.0864916 C94.175001,45.5863142 109.858078,50.4740772 139.719614,56.2162384 C169.581149,61.9583997 217.531531,67.2592889 290.739,67.2592889 C320.556901,67.2592889 351.850353,62.255182 374.372736,56.2162384 C405.541789,47.8588568 412.938231,30.8209944 416.095957,26.899764 C416.201849,26.7682682 416.278918,26.6210931 416.307944,26.5084068 C416.366737,26.2801556 416.381324,26.1401099 416.40326,26.0280228 C416.915376,23.4112863 383.447463,47.3335678 341.700557,45.9639985 C305.9213,44.7902067 268.005736,50.3984998 223.644253,48.9413028 C186.322084,47.7153348 149.587288,42.3978402 123.664954,39.4432069 C85.8423775,35.1321813 55.3826846,27.776354 32.285875,17.3757249 L9.98974999,12.9591837 Z" id="Path-28-Copy" fill="#BDC0D0" transform="translate(213.199405, 40.109236) scale(1, -1) translate(-213.199405, -40.109236) "></path>
                            <path d="M31.4628092,155.451422 C24.38843,129.223653 24.38843,111.972 31.4628092,103.696465 C38.5371883,95.4209288 47.5797109,93.5801485 58.590377,98.1741236 L102.460836,128.115356 L31.4628092,155.451422 Z" id="Path-31-Copy" stroke="#384C57" fill="url(#linearGradient-2)" transform="translate(64.308930, 125.582854) scale(1, -1) translate(-64.308930, -125.582854) "></path>
                            <path d="M27.2082974,81.7485369 C121.378328,91.9474052 185.684275,97.0468394 220.126139,97.0468394 C271.788935,97.0468394 344.834601,98.1174691 365.947977,95.2517249 C375.678182,93.9310323 386.848511,91.7378991 396.788508,89.7149161 C408.417109,87.348269 418.027917,83.9758411 419.0505,83.3003433 C419.879987,82.7524012 418.390475,87.5434616 416.832563,91.7971516 C416.270936,93.3306033 414.848756,94.3353308 413.11969,96.0111512 C409.540072,99.4805382 403.725038,101.56439 397.892765,104.345929 C382.520438,111.677327 365.199578,117.497541 313.769128,119.239599 C262.338677,120.981657 197.589167,117.292477 166.892794,114.647093 C136.196421,112.001708 74.5373421,102.850189 61.5135486,98.7527422 C48.4897551,94.6552951 15.1309182,86.0387883 12.7390897,85.309697 C11.1445373,84.8236361 7.47944132,83.3904718 1.74380165,81.0102041 L27.2082974,81.7485369 Z" id="Path-29" fill="#687D99"></path>
                            <path d="M27.3507042,34.776976 C114.497619,42.8105997 177.964441,47.3920462 217.751173,48.5213154 C277.431269,50.2152193 336.041746,46.6250504 362.495835,46.6250504 C379.020223,46.6250504 390.303616,46.4121617 402.43882,45.024876 C414.574024,43.6375904 416.550349,43.4243673 417.572932,42.6559476 C418.402419,42.0326304 418.099864,44.3670719 415.231726,48.5213154 C414.029858,50.2621146 412.609405,51.5363174 410.880339,53.4426646 C407.300721,57.3893024 402.812223,59.3581475 397.701358,62.5376309 C392.162462,65.9833933 364.891524,69.7945021 313.461073,71.7761983 C262.030623,73.7578946 198.553389,71.4632254 168.11367,67.1224005 C137.67395,62.7815757 75.0048466,54.2627415 62.0024233,50.4438959 C49,46.6250504 38.4889065,45.024876 19.5625034,37.6951843 C15.9150595,36.2826265 12.8401448,35.1690695 10.4350732,34.0172381 C6.6832276,32.2204127 4.46053018,30.5964407 3.46106373,29.6448691 C3.07693413,29.2791471 2.85334773,28.9519459 2.79030454,28.6632653 L27.3507042,34.776976 Z" id="Path-29-Copy" fill="#A6ADC0" transform="translate(210.382817, 50.579412) scale(1, -1) translate(-210.382817, -50.579412) "></path>
                            <path d="M0.557251796,81.2315291 C31.730138,83.8992631 61.4876217,86.5166115 89.8297028,89.0835741 C132.342824,92.9340181 189.887878,99.5824387 252.627737,101.764583 C315.367596,103.946726 357.845292,97.9392345 377.948583,95.5875343 C398.051873,93.2358341 416.652589,88.292964 418.548153,83.6922788 C420.123656,79.8684081 420.087447,66.4843359 418.684365,60.7209034 C418.399331,59.5500692 418.139954,58.6343745 417.714139,58.2427289 C415.192248,55.9232076 372.64974,50.6552474 332.997758,50.6552474 C293.345775,50.6552474 224.467499,48.2855326 195.282293,50.6552474 C166.097086,53.0249622 139.636101,55.8006447 112.653063,58.2427289 C85.6700247,60.6848132 50.4598813,63.2962929 23.4235083,66.7114952 C5.39925955,68.9882967 -2.22282593,73.828308 0.557251796,81.2315291 Z" id="Path-30" fill="#879BB7"></path>
                            <path d="M4.5741076,83.3852376 C72.8296866,114.764564 129.296947,133.440358 173.97589,139.412619 C179.897905,140.204218 186.141695,140.958908 192.632903,141.657116 C259.601554,148.860402 352.904591,150.05191 390.892225,123.739306 C432.561966,94.8762464 433.132965,38.5752084 368.765998,14.2507229 C304.399031,-10.0737627 137.822473,13.9065471 60.5875647,43.5165229 C9.09762602,63.2565068 -9.57352636,76.5460783 4.5741076,83.3852376 Z" id="Path-26" stroke="#384C57"></path>
                            <path d="M123.833976,75.2500849 C106.01275,78.6470146 94.0893773,80.3454794 88.0638572,80.3454794 C82.038337,80.3454794 70.1217345,78.6470146 52.3140496,75.2500849 L88.0638572,68.7959184 L123.833976,75.2500849 Z" id="Path-33" stroke="#384562" fill="#33415D"></path>
                        </g>
                    </g>
                </g>
                <g id="BOTON-EMPIEZA-AHORA" transform="translate(146.000000, 39.000000)">
                    <rect id="Rectangle" fill="#FBB420" fill-rule="evenodd" x="0" y="0" width="213" height="62" rx="28.5"></rect>
                    <text id="Empieza-ahora" font-family="Avenir-Heavy, Avenir" font-size="17" font-weight="600" fill="#5D1270">
                        <tspan x="47.7905" y="37.3611111">Empieza ahora</tspan>
                    </text>
                </g>
            </g>
        </g>
    </g>
</svg>