<svg width="288" height="35" xmlns="http://www.w3.org/2000/svg"><g fill="none" fill-rule="evenodd"><path fill="#FFF" d="M7.582 8.457l.02 23.073-5.585-.005L1.996 8.45z"/><path fill="#919191" d="M.02 34.199l5.587.006 1.996-2.675-5.586-.005z"/><path fill="#919191" d="M0 11.125l.021 23.073 1.996-2.674L1.996 8.45zM20.822 19.93l-1.996 2.675-.01-11.46 1.996-2.675zM18.837 34.218l5.576.006 1.996-2.675-5.576-.006z"/><path fill="#919191" d="M13.44 22.6l5.397 11.617 1.997-2.674-5.397-11.619z"/><path fill="#FFF" d="M26.388 8.475l.021 23.073-5.576-.005-5.396-11.618.01 11.612-5.586-.005-.02-23.074 5.585.006 5.396 11.466-.01-11.46z"/><path fill="#919191" d="M7.866 34.207l5.585.005 1.997-2.673-5.587-.007z"/><path fill="#919191" d="M7.844 11.133l.022 23.074 1.995-2.675-.02-23.073zM39.395 14.071l-1.996 2.675-1.278-.916 1.996-2.675zM38.117 13.155L36.12 15.83l-2.821-.003 1.996-2.675zM44.984 17.754l-1.996 2.675-5.586-.825 1.996-2.675z"/><path fill="#919191" d="M39.397 16.929l-1.996 2.675-.002-2.858 1.995-2.675z"/><path fill="#665A71" d="M35.295 13.152L33.3 15.827l-1.286.913 1.996-2.675z"/><path fill="#919191" d="M39.406 26.113l-1.996 2.675-.002-2.496 1.996-2.675zM28.437 18.061l-1.996 2.675-.005-6.04 1.996-2.675z"/><path fill="#919191" d="M39.403 23.617l-1.996 2.675-10.967-5.556 1.996-2.674zM39.449 31.562l-1.996 2.675 5.545-3.538 1.995-2.675zM32 34.231l5.452.005 1.996-2.674-5.452-.006zM28.446 28.007l-1.996 2.675-.005-5.65 1.996-2.674z"/><path fill="#919191" d="M26.45 30.681l5.55 3.55 1.996-2.675-5.55-3.55z"/><path fill="#FFF" d="M39.39 8.527l5.589 3.51.005 5.717-5.586-.825-.003-2.858-1.278-.915-2.822-.003-1.286.913.003 2.525 10.976 5.46.005 5.973-5.544 3.538-5.452-.005-5.551-3.55-.005-5.65 5.577.93.002 2.82 1.316.82 2.755.004 1.315-.818-.002-2.496-10.967-5.555-.006-6.04 5.545-3.54zM71.532 8.52l.02 23.074-5.575-.005-.021-23.074z"/><path fill="#919191" d="M63.98 34.264l5.576.005 1.997-2.674-5.577-.006zM63.96 11.19l.02 23.073 1.996-2.675-.02-23.073zM58.468 14.09l-1.996 2.675-1.278-.916 1.996-2.675z"/><path fill="#919191" d="M58.47 16.948l-1.995 2.675-.002-2.858 1.995-2.675zM57.19 13.174l-1.996 2.675-4.099-.004 1.996-2.675zM64.058 18.554l-1.996 2.675-5.582 3.833 1.996-2.674z"/><path fill="#919191" d="M58.476 22.388l-1.996 2.675-5.376-.006 1.996-2.674zM45.506 11.171l.02 23.073 1.997-2.675L47.5 8.496z"/><path fill="#919191" d="M45.526 34.245l5.585.005 1.998-2.674-5.587-.006z"/><path d="M58.47 16.948l-.002-2.858-1.278-.916-4.098-.004.004 4.592 4.07.004 1.305-.818zm-.007-8.44l5.589 3.55.006 6.496-5.582 3.834-5.376-.006.008 9.193-5.586-.005-.02-23.074 10.96.011z" fill="#FFF"/><path fill="#919191" d="M118.558 14.15l-1.996 2.675-1.287-.916 1.995-2.675z"/><path fill="#919191" d="M117.27 13.235l-1.996 2.675-2.82-.004 1.995-2.675zM124.137 17.795l-1.996 2.675-5.576-.006 1.996-2.675z"/><path fill="#919191" d="M118.561 17.79l-1.996 2.675-.003-3.64 1.996-2.675zM114.449 13.232l-1.996 2.675-1.276.913 1.996-2.675zM118.569 26.192l-1.996 2.675-.003-3.744 1.996-2.675zM118.602 31.64l-1.995 2.676 5.544-3.51 1.996-2.674z"/><path fill="#919191" d="M111.192 34.31l5.414.005 1.996-2.674-5.414-.006zM107.6 28.115l-1.997 2.675-.014-16.015 1.996-2.674z"/><path fill="#919191" d="M105.603 30.79l5.59 3.52 1.995-2.675-5.589-3.52z"/><path fill="#FFF" d="M118.553 8.568l5.579 3.549.006 5.678-5.577-.005-.003-3.64-1.288-.915-2.821-.003-1.277.913.01 12.042 1.317.792 2.755.003 1.315-.79-.003-3.744 5.576.006.005 5.678-5.545 3.509-5.414-.005-5.59-3.521-.013-16.014 5.544-3.538z"/><path fill="#919191" d="M99.387 22.495l-1.996 2.675-.526-2.192 1.996-2.675zM85.034 14.117l-1.996 2.675-1.278-.916 1.996-2.675z"/><path fill="#919191" d="M85.037 16.975L83.04 19.65l-.002-2.858 1.996-2.675zM83.756 13.2l-1.996 2.676-4.108-.004 1.996-2.675zM100.478 27.126l-1.996 2.675-3.25-.004 1.996-2.674zM99.563 34.299l5.585.005 1.997-2.674-5.587-.006z"/><path fill="#919191" d="M98.482 29.801l1.082 4.497 1.995-2.675-1.081-4.497z"/><path fill="#665A71" d="M90.624 18.58l-1.996 2.676-4.01 2.72 1.996-2.674z"/><path fill="#919191" d="M90.912 30.281l-1.996 2.675 5.145-21.737 1.996-2.674zM81.467 22.41l-1.996 2.676-1.811-.002 1.996-2.675zM89.555 34.289l4.631.005 1.996-2.675-4.632-.005z"/><path d="M98.338 22.494l1.05.001-.528-2.192-.522 2.191zm3.306-13.944l5.5 23.08-5.585-.006-1.081-4.498-3.25-.003-1.045 4.495-4.633-.004h-.953l.316-1.333 5.145-21.736 5.585.005z" fill="#FFF"/><path fill="#665A71" d="M88.916 32.956l-.315 1.332 1.996-2.675.315-1.332z"/><path fill="#665A71" d="M88.601 34.288h.953l1.996-2.674-.953-.001z"/><path fill="#919191" d="M83.97 34.283l4.631.005 1.996-2.675-4.633-.005zM79.47 25.085l4.499 9.198 1.995-2.675-4.497-9.198z"/><path d="M85.037 16.975l-.004-2.858-1.278-.916-4.108-.004.004 4.592 4.07.004 1.316-.818zm1.576 4.327l4.3 8.98-.316 1.33-4.632-.003-4.499-9.198-1.81-.002.008 9.193-5.576-.005-.02-23.074 10.96.01 5.59 3.55.006 6.498-4.01 2.72z" fill="#FFF"/><path fill="#919191" d="M72.071 11.197l.021 23.074 1.996-2.675-.02-23.073zM72.092 34.272l5.576.005 1.997-2.674-5.577-.006z"/><path fill="#FFF" d="M132.04 8.581l.022 23.073-5.577-.005-.02-23.074z"/><path fill="#919191" d="M124.489 34.324l5.576.005 1.997-2.674-5.577-.006zM124.468 11.25l.021 23.074 1.996-2.675-.02-23.074zM147.306 3.48l-1.996 2.676-5.152 5.148 1.996-2.674zM141.963 8.63l-1.996 2.674-3.387-3.386 1.996-2.674zM145.61 14.177l-1.997 2.675-1.286-.916 1.994-2.675z"/><path fill="#919191" d="M144.322 13.261l-1.996 2.676-2.821-.003 1.996-2.675z"/><path fill="#919191" d="M141.5 13.259l-1.995 2.675-1.276.913 1.995-2.675zM145.62 26.219l-1.996 2.675-.01-12.042 1.995-2.675zM145.654 31.668l-1.996 2.675 5.545-3.538 1.995-2.675z"/><path fill="#919191" d="M138.244 34.337l5.414.005 1.997-2.674-5.415-.006zM134.65 28.142l-1.995 2.675-.014-16.015 1.996-2.674zM132.655 30.817l5.589 3.52 1.996-2.675-5.59-3.52z"/><path d="M143.824 0l-5.247 5.244 3.387 3.385-1.744-.001-5.583 3.5.014 16.014 5.589 3.52 5.415.006 5.544-3.538-.015-15.985-5.58-3.511-3.45-.004 5.152-5.15L143.824 0zm-2.272 27.006l-1.316-.792-.012-12.042 1.277-.913 2.822.003 1.287.916.01 12.042-1.314.789-2.754-.003z" fill="#FFF"/><path fill="#919191" d="M164.593 20.074l-1.996 2.675-.01-11.46 1.996-2.675zM162.607 34.362l5.577.005 1.996-2.673-5.577-.007z"/><path fill="#919191" d="M157.212 22.744l5.396 11.617 1.996-2.674-5.397-11.619z"/><path fill="#FFF" d="M170.159 8.62l.02 23.072-5.575-.005-5.396-11.618.01 11.612-5.586-.005-.021-23.074 5.586.006 5.396 11.466-.01-11.46z"/><path fill="#919191" d="M151.637 34.35l5.584.006 1.998-2.674-5.588-.006z"/><path fill="#919191" d="M151.616 11.277l.02 23.073 1.996-2.675-.021-23.073zM196.567 14.228l-1.996 2.675-1.286-.916 1.995-2.675z"/><path fill="#919191" d="M195.28 13.313l-1.996 2.675-4.1-.005 1.997-2.675zM196.578 26.27l-1.996 2.675-.01-12.042 1.995-2.675zM196.612 31.72l-1.996 2.674 5.544-3.539 1.996-2.674z"/><path d="M196.578 26.27l-.01-12.042-1.289-.915-4.098-.005.012 13.747 4.07.004 1.315-.789zm-.016-17.586l5.58 3.511.014 15.986-5.544 3.538-11-.011-.02-23.073 10.97.049z" fill="#FFF"/><path fill="#919191" d="M183.616 34.383l11 .011 1.996-2.675-11-.01z"/><path fill="#919191" d="M183.595 11.309l.022 23.074 1.996-2.675-.023-23.073z"/><path fill="#FFF" d="M209.917 8.66l.02 23.072-5.575-.005-.021-23.074z"/><path fill="#919191" d="M202.366 34.401l5.576.006 1.996-2.675-5.577-.005zM202.344 11.328l.022 23.073 1.995-2.674-.02-23.073zM228.738 14.29l-1.996 2.674-5.576-.006 1.996-2.675z"/><path fill="#919191" d="M223.162 14.284l-1.996 2.675-1.287-.916 1.995-2.675z"/><path fill="#919191" d="M221.874 13.368l-1.996 2.675-2.82-.003 1.995-2.675z"/><path fill="#919191" d="M219.053 13.365l-1.996 2.675-1.276.913 1.996-2.675zM220.51 23.312l-1.996 2.675-.004-4.659 1.996-2.674zM223.17 23.315l-1.996 2.675-2.66-.003 1.997-2.675zM223.173 26.335l-1.996 2.675-.003-3.02 1.996-2.675zM223.206 31.774l-1.996 2.675 5.545-3.5 1.995-2.675z"/><path fill="#919191" d="M215.758 34.444l5.452.005 1.996-2.674-5.452-.006zM212.203 28.258l-1.996 2.675-.014-16.148 1.995-2.675z"/><path fill="#919191" d="M210.208 30.933l5.55 3.51 1.997-2.674-5.552-3.511z"/><path fill="#FFF" d="M223.157 8.74l5.579 3.52.002 2.03-5.576-.007-1.288-.915-2.821-.003-1.277.913.01 12.051 1.308.783 2.764.002 1.315-.779-.003-3.02-2.66-.003-.003-4.658 8.207.008.003 3.601.034 6.011-5.545 3.5-5.452-.005-5.551-3.51-.014-16.149 5.582-3.376zM272.057 31.795l15.5.015-.006-4.658-9.912-.01-.017-18.415-5.586-.005z"/><path fill="#919191" d="M270.061 34.47l15.5.015 1.995-2.675-15.499-.015z"/><path fill="#919191" d="M270.04 11.396l.022 23.073 1.995-2.674-.02-23.074zM263.613 22.66l-1.996 2.675-.526-2.192 1.996-2.675zM254.94 13.372l-1.996 2.675-5.49-.006 1.996-2.674zM264.704 27.29l-1.996 2.676-3.25-.004 1.996-2.674z"/><path fill="#919191" d="M263.79 34.463l5.585.005 1.996-2.674-5.586-.006z"/><path fill="#919191" d="M262.708 29.965l1.081 4.498 1.996-2.675-1.08-4.497zM243.874 13.361l-1.996 2.675-5.481-.006 1.996-2.674z"/><path fill="#919191" d="M238.393 13.356l-1.996 2.675-.004-4.63 1.996-2.675z"/><path d="M262.565 22.659h1.049l-.527-2.191-.522 2.19zm3.305-13.944l5.5 23.079-5.584-.005-1.082-4.498-3.25-.003-1.054 4.495-5.576-.005 5.46-23.068 5.586.005z" fill="#FFF"/><path fill="#919191" d="M252.828 34.453l5.576.005 1.996-2.674-5.577-.006zM258.287 11.385l-5.459 23.068 1.995-2.675 5.46-23.068zM241.895 34.44l5.576.007 1.996-2.675-5.577-.005z"/><path fill="#FFF" d="M254.936 8.742l.004 4.63-5.49-.006.016 18.406-5.576-.006-.016-18.405-5.48-.006-.006-4.63z"/><path fill="#919191" d="M241.878 16.036l.017 18.405 1.995-2.674-.016-18.406z"/><path fill="#FFF" d="M236.444 8.686l.021 23.073-5.576-.005-.02-23.074z"/><path fill="#919191" d="M228.893 34.428l5.576.005 1.996-2.674-5.577-.006z"/><path fill="#919191" d="M228.872 11.355l.022 23.073 1.995-2.675-.021-23.073z"/></g></svg>